Panamera-Medium.ufo
<glyph name="exclam" format="1">
  <advance width="310"/>
  <unicode hex="0021"/>
  <outline>
    <contour>
      <point x="200" y="203" type="line"/>
      <point x="221" y="583" type="line"/>
      <point x="221" y="730" type="line"/>
      <point x="89" y="730" type="line"/>
      <point x="89" y="583" type="line"/>
      <point x="110" y="203" type="line"/>
    </contour>
    <contour>
      <point x="89" y="-1" type="line"/>
      <point x="221" y="-1" type="line"/>
      <point x="221" y="131" type="line"/>
      <point x="89" y="131" type="line"/>
    </contour>
  </outline>
</glyph>
<glyph name="quotedbl" format="1">
  <advance width="644"/>
  <unicode hex="0022"/>
  <outline>
    <contour>
      <point x="121" y="478" type="line"/>
      <point x="231" y="478" type="line"/>
      <point x="242" y="750" type="line"/>
      <point x="110" y="750" type="line"/>
    </contour>
    <contour>
      <point x="335" y="478" type="line"/>
      <point x="445" y="478" type="line"/>
      <point x="456" y="750" type="line"/>
      <point x="324" y="750" type="line"/>
    </contour>
  </outline>
</glyph>
<glyph name="numbersign" format="1">
  <advance width="823"/>
  <unicode hex="0023"/>
  <outline>
    <contour>
      <point x="658" y="456" type="line"/>
      <point x="806" y="456" type="line"/>
      <point x="806" y="559" type="line"/>
      <point x="692" y="559" type="line"/>
      <point x="757" y="753" type="line"/>
      <point x="646" y="753" type="line"/>
      <point x="581" y="559" type="line"/>
      <point x="379" y="559" type="line"/>
      <point x="444" y="753" type="line"/>
      <point x="333" y="753" type="line"/>
      <point x="268" y="559" type="line"/>
      <point x="96" y="559" type="line"/>
      <point x="96" y="456" type="line"/>
      <point x="234" y="456" type="line"/>
      <point x="174" y="277" type="line"/>
      <point x="35" y="277" type="line"/>
      <point x="35" y="173" type="line"/>
      <point x="139" y="173" type="line"/>
      <point x="80" y="-3" type="line"/>
      <point x="191" y="-3" type="line"/>
      <point x="250" y="173" type="line"/>
      <point x="452" y="173" type="line"/>
      <point x="393" y="-3" type="line"/>
      <point x="504" y="-3" type="line"/>
      <point x="563" y="173" type="line"/>
      <point x="734" y="173" type="line"/>
      <point x="734" y="277" type="line"/>
      <point x="598" y="277" type="line"/>
    </contour>
    <contour>
      <point x="547" y="456" type="line"/>
      <point x="487" y="277" type="line"/>
      <point x="285" y="277" type="line"/>
      <point x="345" y="456" type="line"/>
    </contour>
  </outline>
</glyph>
<glyph name="dollar" format="1">
  <advance width="646"/>
  <unicode hex="0024"/>
  <outline>
    <contour>
      <point x="596" y="316"/>
      <point x="500" y="365"/>
      <point x="417" y="394" type="curve"/>
      <point x="417" y="595" type="line"/>
      <point x="439" y="579"/>
      <point x="451" y="556"/>
      <point x="451" y="526" type="curve"/>
      <point x="559" y="554" type="line"/>
      <point x="548" y="631"/>
      <point x="491" y="678"/>
      <point x="417" y="698" type="curve"/>
      <point x="417" y="804" type="line"/>
      <point x="356" y="804" type="line"/>
      <point x="356" y="707" type="line"/>
      <point x="349" y="708"/>
      <point x="343" y="708"/>
      <point x="336" y="708" type="curve" smooth="yes"/>
      <point x="331" y="708"/>
      <point x="327" y="708"/>
      <point x="322" y="708" type="curve"/>
      <point x="322" y="804" type="line"/>
      <point x="261" y="804" type="line"/>
      <point x="261" y="698" type="line"/>
      <point x="172" y="674"/>
      <point x="110" y="607"/>
      <point x="110" y="525" type="curve" smooth="yes"/>
      <point x="110" y="447"/>
      <point x="163" y="386"/>
      <point x="261" y="345" type="curve"/>
      <point x="261" y="100" type="line"/>
      <point x="196" y="122"/>
      <point x="164" y="173"/>
      <point x="151" y="240" type="curve"/>
      <point x="50" y="189" type="line"/>
      <point x="81" y="96"/>
      <point x="145" y="23"/>
      <point x="261" y="0" type="curve"/>
      <point x="261" y="-101" type="line"/>
      <point x="322" y="-101" type="line"/>
      <point x="322" y="-7" type="line"/>
      <point x="328" y="-7"/>
      <point x="335" y="-7"/>
      <point x="341" y="-7" type="curve" smooth="yes"/>
      <point x="346" y="-7"/>
      <point x="351" y="-7"/>
      <point x="356" y="-7" type="curve"/>
      <point x="356" y="-101" type="line"/>
      <point x="417" y="-101" type="line"/>
      <point x="417" y="0" type="line"/>
      <point x="539" y="25"/>
      <point x="596" y="111"/>
      <point x="596" y="206" type="curve" smooth="yes"/>
    </contour>
    <contour>
      <point x="343" y="615"/>
      <point x="350" y="615"/>
      <point x="356" y="614" type="curve"/>
      <point x="356" y="414" type="line"/>
      <point x="355" y="414"/>
      <point x="353" y="415"/>
      <point x="352" y="415" type="curve" smooth="yes"/>
      <point x="341" y="418"/>
      <point x="331" y="421"/>
      <point x="322" y="425" type="curve"/>
      <point x="322" y="614" type="line"/>
      <point x="327" y="615"/>
      <point x="331" y="615"/>
      <point x="336" y="615" type="curve" smooth="yes"/>
    </contour>
    <contour>
      <point x="220" y="554"/>
      <point x="235" y="579"/>
      <point x="261" y="596" type="curve"/>
      <point x="261" y="455" type="line"/>
      <point x="232" y="476"/>
      <point x="220" y="499"/>
      <point x="220" y="525" type="curve" smooth="yes"/>
    </contour>
    <contour>
      <point x="334" y="88"/>
      <point x="328" y="88"/>
      <point x="322" y="89" type="curve"/>
      <point x="322" y="323" type="line"/>
      <point x="333" y="320"/>
      <point x="345" y="316"/>
      <point x="356" y="313" type="curve"/>
      <point x="356" y="88" type="line"/>
      <point x="351" y="88"/>
      <point x="346" y="88"/>
      <point x="341" y="88" type="curve" smooth="yes"/>
    </contour>
    <contour>
      <point x="417" y="290" type="line"/>
      <point x="457" y="272"/>
      <point x="485" y="247"/>
      <point x="485" y="206" type="curve" smooth="yes"/>
      <point x="485" y="158"/>
      <point x="465" y="119"/>
      <point x="417" y="100" type="curve"/>
    </contour>
  </outline>
</glyph>
<glyph name="percent" format="1">
  <advance width="845"/>
  <unicode hex="0025"/>
  <outline>
    <contour>
      <point x="86" y="724"/>
      <point x="23" y="635"/>
      <point x="23" y="512" type="curve" smooth="yes"/>
      <point x="23" y="390"/>
      <point x="86" y="302"/>
      <point x="192" y="302" type="curve" smooth="yes"/>
      <point x="297" y="302"/>
      <point x="363" y="390"/>
      <point x="363" y="512" type="curve" smooth="yes"/>
      <point x="363" y="635"/>
      <point x="297" y="724"/>
      <point x="192" y="724" type="curve" smooth="yes"/>
    </contour>
    <contour>
      <point x="229" y="-39" type="line"/>
      <point x="711" y="724" type="line"/>
      <point x="589" y="724" type="line"/>
      <point x="108" y="-39" type="line"/>
    </contour>
    <contour>
      <point x="241" y="632"/>
      <point x="271" y="593"/>
      <point x="271" y="512" type="curve" smooth="yes"/>
      <point x="271" y="433"/>
      <point x="241" y="393"/>
      <point x="192" y="393" type="curve" smooth="yes"/>
      <point x="145" y="393"/>
      <point x="115" y="433"/>
      <point x="115" y="512" type="curve" smooth="yes"/>
      <point x="115" y="593"/>
      <point x="145" y="632"/>
      <point x="192" y="632" type="curve" smooth="yes"/>
    </contour>
    <contour>
      <point x="552" y="415"/>
      <point x="489" y="326"/>
      <point x="489" y="203" type="curve" smooth="yes"/>
      <point x="489" y="81"/>
      <point x="552" y="-7"/>
      <point x="658" y="-7" type="curve" smooth="yes"/>
      <point x="763" y="-7"/>
      <point x="829" y="81"/>
      <point x="829" y="203" type="curve" smooth="yes"/>
      <point x="829" y="326"/>
      <point x="763" y="415"/>
      <point x="658" y="415" type="curve" smooth="yes"/>
    </contour>
    <contour>
      <point x="707" y="323"/>
      <point x="737" y="284"/>
      <point x="737" y="203" type="curve" smooth="yes"/>
      <point x="737" y="124"/>
      <point x="707" y="84"/>
      <point x="658" y="84" type="curve" smooth="yes"/>
      <point x="611" y="84"/>
      <point x="581" y="124"/>
      <point x="581" y="203" type="curve" smooth="yes"/>
      <point x="581" y="284"/>
      <point x="611" y="323"/>
      <point x="658" y="323" type="curve" smooth="yes"/>
    </contour>
  </outline>
</glyph>
<glyph name="ampersand" format="1">
  <advance width="890"/>
  <unicode hex="0026"/>
  <outline>
    <contour>
      <point x="718" y="184" type="line"/>
      <point x="809" y="98"/>
      <point x="784" y="46"/>
      <point x="718" y="46" type="curve" smooth="yes"/>
      <point x="689" y="46"/>
      <point x="652" y="65"/>
      <point x="610" y="97" type="curve"/>
      <point x="668" y="173"/>
      <point x="707" y="283"/>
      <point x="707" y="434" type="curve"/>
      <point x="587" y="434" type="line"/>
      <point x="587" y="310"/>
      <point x="569" y="222"/>
      <point x="536" y="162" type="curve"/>
      <point x="471" y="227"/>
      <point x="404" y="309"/>
      <point x="355" y="386" type="curve"/>
      <point x="470" y="423"/>
      <point x="587" y="463"/>
      <point x="587" y="580" type="curve" smooth="yes"/>
      <point x="587" y="673"/>
      <point x="503" y="751"/>
      <point x="384" y="751" type="curve" smooth="yes"/>
      <point x="270" y="751"/>
      <point x="163" y="687"/>
      <point x="163" y="575" type="curve" smooth="yes"/>
      <point x="163" y="537"/>
      <point x="180" y="485"/>
      <point x="208" y="429" type="curve"/>
      <point x="109" y="389"/>
      <point x="20" y="332"/>
      <point x="20" y="217" type="curve" smooth="yes"/>
      <point x="20" y="76"/>
      <point x="148" y="-44"/>
      <point x="327" y="-44" type="curve" smooth="yes"/>
      <point x="399" y="-44"/>
      <point x="477" y="-22"/>
      <point x="543" y="29" type="curve"/>
      <point x="605" y="-16"/>
      <point x="666" y="-44"/>
      <point x="718" y="-44" type="curve" smooth="yes"/>
      <point x="862" y="-44"/>
      <point x="930" y="89"/>
      <point x="802" y="242" type="curve"/>
    </contour>
    <contour>
      <point x="273" y="633"/>
      <point x="321" y="661"/>
      <point x="384" y="661" type="curve" smooth="yes"/>
      <point x="445" y="661"/>
      <point x="477" y="625"/>
      <point x="477" y="580" type="curve" smooth="yes"/>
      <point x="477" y="522"/>
      <point x="400" y="495"/>
      <point x="309" y="464" type="curve"/>
      <point x="286" y="509"/>
      <point x="273" y="547"/>
      <point x="273" y="575" type="curve" smooth="yes"/>
    </contour>
    <contour>
      <point x="212" y="52"/>
      <point x="130" y="119"/>
      <point x="130" y="217" type="curve" smooth="yes"/>
      <point x="130" y="285"/>
      <point x="183" y="322"/>
      <point x="252" y="350" type="curve"/>
      <point x="310" y="259"/>
      <point x="388" y="163"/>
      <point x="470" y="89" type="curve"/>
      <point x="430" y="63"/>
      <point x="382" y="52"/>
      <point x="327" y="52" type="curve" smooth="yes"/>
    </contour>
  </outline>
</glyph>
<glyph name="quotesingle" format="1">
  <advance width="342"/>
  <unicode hex="0027"/>
  <outline>
    <contour>
      <point x="121" y="478" type="line"/>
      <point x="231" y="478" type="line"/>
      <point x="242" y="750" type="line"/>
      <point x="110" y="750" type="line"/>
    </contour>
  </outline>
</glyph>
<glyph name="parenleft" format="1">
  <advance width="373"/>
  <unicode hex="0028"/>
  <outline>
    <contour>
      <point x="240" y="769" type="line"/>
      <point x="177" y="687"/>
      <point x="82" y="534"/>
      <point x="79" y="311" type="curve" smooth="yes"/>
      <point x="82" y="98"/>
      <point x="177" y="-55"/>
      <point x="240" y="-147" type="curve"/>
      <point x="344" y="-147" type="line"/>
      <point x="281" y="-55"/>
      <point x="206" y="96"/>
      <point x="203" y="309" type="curve"/>
      <point x="206" y="533"/>
      <point x="281" y="686"/>
      <point x="344" y="769" type="curve"/>
    </contour>
  </outline>
</glyph>
<glyph name="parenright" format="1">
  <advance width="373"/>
  <unicode hex="0029"/>
  <outline>
    <contour>
      <point x="29" y="769" type="line"/>
      <point x="92" y="686"/>
      <point x="167" y="533"/>
      <point x="170" y="309" type="curve" smooth="yes"/>
      <point x="167" y="96"/>
      <point x="92" y="-55"/>
      <point x="29" y="-147" type="curve"/>
      <point x="133" y="-147" type="line"/>
      <point x="196" y="-55"/>
      <point x="291" y="98"/>
      <point x="294" y="311" type="curve"/>
      <point x="291" y="534"/>
      <point x="196" y="687"/>
      <point x="133" y="769" type="curve"/>
    </contour>
  </outline>
</glyph>
<glyph name="asterisk" format="1">
  <advance width="600"/>
  <unicode hex="002A"/>
  <outline>
    <contour>
      <point x="350" y="560" type="line"/>
      <point x="438" y="589" type="line"/>
      <point x="427" y="624" type="line"/>
      <point x="338" y="595" type="line"/>
      <point x="393" y="671" type="line"/>
      <point x="362" y="693" type="line"/>
      <point x="307" y="617" type="line"/>
      <point x="307" y="711" type="line"/>
      <point x="271" y="711" type="line"/>
      <point x="271" y="617" type="line"/>
      <point x="215" y="693" type="line"/>
      <point x="184" y="671" type="line"/>
      <point x="239" y="597" type="line"/>
      <point x="151" y="625" type="line"/>
      <point x="140" y="588" type="line"/>
      <point x="228" y="560" type="line"/>
      <point x="140" y="531" type="line"/>
      <point x="151" y="496" type="line"/>
      <point x="240" y="525" type="line"/>
      <point x="185" y="449" type="line"/>
      <point x="216" y="427" type="line"/>
      <point x="271" y="503" type="line"/>
      <point x="271" y="409" type="line"/>
      <point x="307" y="409" type="line"/>
      <point x="307" y="503" type="line"/>
      <point x="363" y="427" type="line"/>
      <point x="394" y="449" type="line"/>
      <point x="339" y="523" type="line"/>
      <point x="427" y="495" type="line"/>
      <point x="438" y="532" type="line"/>
    </contour>
  </outline>
</glyph>
<glyph name="plus" format="1">
  <advance width="641"/>
  <unicode hex="002B"/>
  <outline>
    <contour>
      <point x="586" y="213" type="line"/>
      <point x="586" y="313" type="line"/>
      <point x="371" y="313" type="line"/>
      <point x="371" y="527" type="line"/>
      <point x="271" y="527" type="line"/>
      <point x="271" y="313" type="line"/>
      <point x="55" y="313" type="line"/>
      <point x="55" y="213" type="line"/>
      <point x="271" y="213" type="line"/>
      <point x="271" y="0" type="line"/>
      <point x="371" y="0" type="line"/>
      <point x="371" y="213" type="line"/>
    </contour>
  </outline>
</glyph>
<glyph name="period" format="1">
  <advance width="296"/>
  <unicode hex="002E"/>
  <outline>
    <contour>
      <point x="69" y="-1" type="line"/>
      <point x="201" y="-1" type="line"/>
      <point x="201" y="131" type="line"/>
      <point x="69" y="131" type="line"/>
    </contour>
  </outline>
</glyph>
<glyph name="slash" format="1">
  <advance width="413"/>
  <unicode hex="002F"/>
  <outline>
    <contour>
      <point x="134" y="-119" type="line"/>
      <point x="384" y="724" type="line"/>
      <point x="279" y="724" type="line"/>
      <point x="29" y="-119" type="line"/>
    </contour>
  </outline>
</glyph>
<glyph name="zero" format="1">
  <advance width="652"/>
  <unicode hex="0030"/>
  <outline>
    <contour>
      <point x="515" y="-12"/>
      <point x="622" y="135"/>
      <point x="622" y="348" type="curve" smooth="yes"/>
      <point x="622" y="561"/>
      <point x="515" y="708"/>
      <point x="325" y="708" type="curve" smooth="yes"/>
      <point x="136" y="708"/>
      <point x="30" y="561"/>
      <point x="30" y="348" type="curve" smooth="yes"/>
      <point x="30" y="135"/>
      <point x="136" y="-12"/>
      <point x="325" y="-12" type="curve" smooth="yes"/>
    </contour>
    <contour>
      <point x="210" y="82"/>
      <point x="140" y="177"/>
      <point x="140" y="348" type="curve" smooth="yes"/>
      <point x="140" y="519"/>
      <point x="210" y="614"/>
      <point x="325" y="614" type="curve" smooth="yes"/>
      <point x="440" y="614"/>
      <point x="512" y="519"/>
      <point x="512" y="348" type="curve" smooth="yes"/>
      <point x="512" y="177"/>
      <point x="440" y="82"/>
      <point x="325" y="82" type="curve" smooth="yes"/>
    </contour>
  </outline>
</glyph>
<glyph name="two" format="1">
  <advance width="537"/>
  <unicode hex="0032"/>
  <outline>
    <contour>
      <point x="160" y="536" type="line"/>
      <point x="160" y="582"/>
      <point x="189" y="621"/>
      <point x="268" y="621" type="curve" smooth="yes"/>
      <point x="338" y="621"/>
      <point x="381" y="572"/>
      <point x="380" y="499" type="curve" smooth="yes"/>
      <point x="377" y="309"/>
      <point x="97" y="200"/>
      <point x="31" y="94" type="curve"/>
      <point x="30" y="0" type="line"/>
      <point x="507" y="0" type="line"/>
      <point x="507" y="106" type="line"/>
      <point x="177" y="106" type="line"/>
      <point x="239" y="194"/>
      <point x="490" y="268"/>
      <point x="488" y="510" type="curve" smooth="yes"/>
      <point x="487" y="627"/>
      <point x="414" y="713"/>
      <point x="268" y="713" type="curve" smooth="yes"/>
      <point x="129" y="713"/>
      <point x="41" y="632"/>
      <point x="51" y="526" type="curve"/>
    </contour>
  </outline>
</glyph>
<glyph name="three" format="1">
  <advance width="537"/>
  <unicode hex="0033"/>
  <outline>
    <contour>
      <point x="495" y="609" type="line"/>
      <point x="495" y="700" type="line"/>
      <point x="55" y="700" type="line"/>
      <point x="55" y="609" type="line"/>
      <point x="352" y="609" type="line"/>
      <point x="163" y="406" type="line"/>
      <point x="217" y="341" type="line"/>
      <point x="238" y="347"/>
      <point x="253" y="350"/>
      <point x="274" y="350" type="curve" smooth="yes"/>
      <point x="348" y="350"/>
      <point x="400" y="302"/>
      <point x="400" y="216" type="curve" smooth="yes"/>
      <point x="400" y="129"/>
      <point x="338" y="81"/>
      <point x="264" y="81" type="curve" smooth="yes"/>
      <point x="179" y="81"/>
      <point x="127" y="119"/>
      <point x="127" y="216" type="curve"/>
      <point x="20" y="216" type="line"/>
      <point x="20" y="63"/>
      <point x="128" y="-10"/>
      <point x="264" y="-10" type="curve" smooth="yes"/>
      <point x="389" y="-10"/>
      <point x="507" y="73"/>
      <point x="507" y="216" type="curve" smooth="yes"/>
      <point x="507" y="346"/>
      <point x="418" y="418"/>
      <point x="316" y="426" type="curve"/>
    </contour>
  </outline>
</glyph>
<glyph name="six" format="1">
  <advance width="547"/>
  <unicode hex="0036"/>
  <outline>
    <contour>
      <point x="269" y="443"/>
      <point x="266" y="443"/>
      <point x="262" y="443" type="curve"/>
      <point x="422" y="700" type="line"/>
      <point x="290" y="700" type="line"/>
      <point x="64" y="339" type="line" smooth="yes"/>
      <point x="42" y="306"/>
      <point x="29" y="265"/>
      <point x="29" y="217" type="curve" smooth="yes"/>
      <point x="29" y="74"/>
      <point x="148" y="-10"/>
      <point x="273" y="-10" type="curve" smooth="yes"/>
      <point x="398" y="-10"/>
      <point x="516" y="73"/>
      <point x="516" y="216" type="curve" smooth="yes"/>
      <point x="516" y="359"/>
      <point x="397" y="443"/>
      <point x="272" y="443" type="curve" smooth="yes"/>
    </contour>
    <contour>
      <point x="198" y="82"/>
      <point x="137" y="129"/>
      <point x="137" y="216" type="curve" smooth="yes"/>
      <point x="137" y="303"/>
      <point x="199" y="351"/>
      <point x="273" y="351" type="curve" smooth="yes"/>
      <point x="347" y="351"/>
      <point x="408" y="304"/>
      <point x="408" y="217" type="curve" smooth="yes"/>
      <point x="408" y="130"/>
      <point x="346" y="82"/>
      <point x="272" y="82" type="curve" smooth="yes"/>
    </contour>
  </outline>
</glyph>
<glyph name="nine" format="1">
  <advance width="600"/>
  <unicode hex="0039"/>
  <outline>
    <contour>
      <point x="554" y="631"/>
      <point x="435" y="712"/>
      <point x="310" y="712" type="curve" smooth="yes"/>
      <point x="185" y="712"/>
      <point x="67" y="632"/>
      <point x="67" y="495" type="curve" smooth="yes"/>
      <point x="67" y="357"/>
      <point x="186" y="277"/>
      <point x="311" y="277" type="curve" smooth="yes"/>
      <point x="318" y="277"/>
      <point x="325" y="277"/>
      <point x="332" y="278" type="curve"/>
      <point x="160" y="0" type="line"/>
      <point x="292" y="0" type="line"/>
      <point x="521" y="379" type="line"/>
      <point x="542" y="411"/>
      <point x="554" y="449"/>
      <point x="554" y="494" type="curve" smooth="yes"/>
    </contour>
    <contour>
      <point x="236" y="365"/>
      <point x="175" y="410"/>
      <point x="175" y="494" type="curve" smooth="yes"/>
      <point x="175" y="577"/>
      <point x="237" y="624"/>
      <point x="311" y="624" type="curve" smooth="yes"/>
      <point x="385" y="624"/>
      <point x="446" y="578"/>
      <point x="446" y="495" type="curve" smooth="yes"/>
      <point x="446" y="411"/>
      <point x="384" y="365"/>
      <point x="310" y="365" type="curve" smooth="yes"/>
    </contour>
  </outline>
</glyph>
<glyph name="colon" format="1">
  <advance width="270"/>
  <unicode hex="003A"/>
  <outline>
    <contour>
      <point x="69" y="397" type="line"/>
      <point x="201" y="397" type="line"/>
      <point x="201" y="529" type="line"/>
      <point x="69" y="529" type="line"/>
    </contour>
    <contour>
      <point x="69" y="-2" type="line"/>
      <point x="202" y="-2" type="line"/>
      <point x="202" y="131" type="line"/>
      <point x="69" y="131" type="line"/>
    </contour>
  </outline>
</glyph>
<glyph name="semicolon" format="1">
  <advance width="385"/>
  <unicode hex="003B"/>
  <outline>
    <contour>
      <point x="226" y="517" type="line"/>
      <point x="94" y="517" type="line"/>
      <point x="94" y="385" type="line"/>
      <point x="226" y="385" type="line"/>
    </contour>
    <contour>
      <point x="94" y="133" type="line"/>
      <point x="94" y="1" type="line"/>
      <point x="157" y="1" type="line"/>
      <point x="157" y="-36"/>
      <point x="156" y="-72"/>
      <point x="111" y="-99" type="curve"/>
      <point x="111" y="-157" type="line"/>
      <point x="204" y="-133"/>
      <point x="226" y="-35"/>
      <point x="226" y="1" type="curve"/>
      <point x="226" y="1" type="line"/>
      <point x="226" y="133" type="line"/>
    </contour>
  </outline>
</glyph>
<glyph name="equal" format="1">
  <advance width="600"/>
  <unicode hex="003D"/>
  <outline>
    <contour>
      <point x="38" y="310" type="line"/>
      <point x="559" y="310" type="line"/>
      <point x="559" y="410" type="line"/>
      <point x="38" y="410" type="line"/>
    </contour>
    <contour>
      <point x="38" y="120" type="line"/>
      <point x="559" y="120" type="line"/>
      <point x="559" y="220" type="line"/>
      <point x="38" y="220" type="line"/>
    </contour>
  </outline>
</glyph>
<glyph name="greater" format="1">
  <advance width="600"/>
  <unicode hex="003E"/>
  <outline>
    <contour>
      <point x="577" y="287" type="line"/>
      <point x="45" y="579" type="line"/>
      <point x="45" y="456" type="line"/>
      <point x="378" y="287" type="line"/>
      <point x="45" y="118" type="line"/>
      <point x="45" y="-6" type="line"/>
    </contour>
  </outline>
</glyph>
<glyph name="at" format="1">
  <advance width="1008"/>
  <unicode hex="0040"/>
  <outline>
    <contour>
      <point x="317" y="274"/>
      <point x="264" y="216"/>
      <point x="264" y="140" type="curve" smooth="yes"/>
      <point x="264" y="49"/>
      <point x="331" y="-12"/>
      <point x="453" y="-12" type="curve" smooth="yes"/>
      <point x="538" y="-12"/>
      <point x="593" y="27"/>
      <point x="622" y="79" type="curve"/>
      <point x="643" y="27"/>
      <point x="692" y="-12"/>
      <point x="765" y="-12" type="curve" smooth="yes"/>
      <point x="894" y="-12"/>
      <point x="958" y="93"/>
      <point x="958" y="233" type="curve" smooth="yes"/>
      <point x="958" y="488"/>
      <point x="777" y="697"/>
      <point x="504" y="697" type="curve" smooth="yes"/>
      <point x="231" y="697"/>
      <point x="50" y="488"/>
      <point x="50" y="233" type="curve" smooth="yes"/>
      <point x="50" y="-19"/>
      <point x="232" y="-226"/>
      <point x="504" y="-226" type="curve" smooth="yes"/>
      <point x="625" y="-226"/>
      <point x="728" y="-195"/>
      <point x="805" y="-128" type="curve"/>
      <point x="724" y="-51" type="line"/>
      <point x="668" y="-100"/>
      <point x="593" y="-119"/>
      <point x="504" y="-119" type="curve" smooth="yes"/>
      <point x="302" y="-119"/>
      <point x="172" y="29"/>
      <point x="172" y="233" type="curve" smooth="yes"/>
      <point x="172" y="440"/>
      <point x="303" y="591"/>
      <point x="504" y="591" type="curve" smooth="yes"/>
      <point x="706" y="591"/>
      <point x="836" y="440"/>
      <point x="836" y="233" type="curve" smooth="yes"/>
      <point x="836" y="117"/>
      <point x="807" y="88"/>
      <point x="772" y="88" type="curve" smooth="yes"/>
      <point x="737" y="88"/>
      <point x="720" y="108"/>
      <point x="720" y="134" type="curve" smooth="yes"/>
      <point x="720" y="304" type="line" smooth="yes"/>
      <point x="720" y="385"/>
      <point x="702" y="510"/>
      <point x="511" y="510" type="curve" smooth="yes"/>
      <point x="389" y="510"/>
      <point x="287" y="429"/>
      <point x="307" y="338" type="curve"/>
      <point x="426" y="337" type="line"/>
      <point x="421" y="349"/>
      <point x="432" y="420"/>
      <point x="511" y="420" type="curve" smooth="yes"/>
      <point x="542" y="420"/>
      <point x="563" y="414"/>
      <point x="578" y="402" type="curve"/>
      <point x="632" y="357"/>
      <point x="598" y="303"/>
      <point x="473" y="290" type="curve" smooth="yes"/>
    </contour>
    <contour>
      <point x="612" y="228" type="line" smooth="yes"/>
      <point x="612" y="112"/>
      <point x="543" y="65"/>
      <point x="467" y="65" type="curve" smooth="yes"/>
      <point x="396" y="65"/>
      <point x="377" y="112"/>
      <point x="377" y="145" type="curve" smooth="yes"/>
      <point x="377" y="188"/>
      <point x="419" y="215"/>
      <point x="478" y="222" type="curve" smooth="yes"/>
      <point x="530" y="228"/>
      <point x="578" y="242"/>
      <point x="612" y="267" type="curve"/>
    </contour>
  </outline>
</glyph>
<glyph name="A" format="1">
  <advance width="756"/>
  <unicode hex="0041"/>
  <outline>
    <contour>
      <point x="533" y="186" type="line"/>
      <point x="608" y="0" type="line"/>
      <point x="726" y="0" type="line"/>
      <point x="442" y="700" type="line"/>
      <point x="314" y="700" type="line"/>
      <point x="30" y="0" type="line"/>
      <point x="148" y="0" type="line"/>
      <point x="223" y="186" type="line"/>
    </contour>
    <contour>
      <point x="495" y="280" type="line"/>
      <point x="261" y="280" type="line"/>
      <point x="378" y="571" type="line"/>
    </contour>
  </outline>
</glyph>
<glyph name="B" format="1">
  <advance width="573"/>
  <unicode hex="0042"/>
  <outline>
    <contour>
      <point x="428" y="452"/>
      <point x="441" y="486"/>
      <point x="441" y="533" type="curve" smooth="yes"/>
      <point x="441" y="662"/>
      <point x="340" y="700"/>
      <point x="231" y="700" type="curve" smooth="yes"/>
      <point x="40" y="700" type="line"/>
      <point x="40" y="0" type="line"/>
      <point x="288" y="0" type="line" smooth="yes"/>
      <point x="441" y="0"/>
      <point x="556" y="71"/>
      <point x="556" y="222" type="curve" smooth="yes"/>
      <point x="556" y="330"/>
      <point x="500" y="398"/>
      <point x="406" y="426" type="curve"/>
    </contour>
    <contour>
      <point x="148" y="602" type="line"/>
      <point x="231" y="602" type="line" smooth="yes"/>
      <point x="300" y="602"/>
      <point x="333" y="572"/>
      <point x="333" y="523" type="curve" smooth="yes"/>
      <point x="333" y="474"/>
      <point x="301" y="441"/>
      <point x="228" y="441" type="curve" smooth="yes"/>
      <point x="148" y="441" type="line"/>
    </contour>
    <contour>
      <point x="148" y="98" type="line"/>
      <point x="148" y="352" type="line"/>
      <point x="274" y="352" type="line" smooth="yes"/>
      <point x="372" y="352"/>
      <point x="437" y="313"/>
      <point x="437" y="222" type="curve" smooth="yes"/>
      <point x="437" y="135"/>
      <point x="375" y="98"/>
      <point x="269" y="98" type="curve" smooth="yes"/>
    </contour>
  </outline>
</glyph>
<glyph name="D" format="1">
  <advance width="636"/>
  <unicode hex="0044"/>
  <outline>
    <contour>
      <point x="50" y="700" type="line"/>
      <point x="50" y="0" type="line"/>
      <point x="246" y="0" type="line" smooth="yes"/>
      <point x="449" y="0"/>
      <point x="611" y="105"/>
      <point x="611" y="351" type="curve" smooth="yes"/>
      <point x="611" y="602"/>
      <point x="428" y="700"/>
      <point x="230" y="700" type="curve" smooth="yes"/>
    </contour>
    <contour>
      <point x="158" y="98" type="line"/>
      <point x="158" y="602" type="line"/>
      <point x="230" y="602" type="line" smooth="yes"/>
      <point x="383" y="602"/>
      <point x="498" y="537"/>
      <point x="498" y="351" type="curve" smooth="yes"/>
      <point x="498" y="169"/>
      <point x="402" y="98"/>
      <point x="246" y="98" type="curve" smooth="yes"/>
    </contour>
  </outline>
</glyph>
<glyph name="F" format="1">
  <advance width="630"/>
  <unicode hex="0046"/>
  <outline>
    <contour>
      <point x="158" y="592" type="line"/>
      <point x="585" y="592" type="line"/>
      <point x="585" y="700" type="line"/>
      <point x="50" y="700" type="line"/>
      <point x="50" y="0" type="line"/>
      <point x="158" y="0" type="line"/>
      <point x="158" y="304" type="line"/>
      <point x="575" y="304" type="line"/>
      <point x="575" y="412" type="line"/>
      <point x="158" y="412" type="line"/>
    </contour>
  </outline>
</glyph>
<glyph name="G" format="1">
  <advance width="777"/>
  <unicode hex="0047"/>
  <outline>
    <contour>
      <point x="716" y="403" type="line"/>
      <point x="389" y="403" type="line"/>
      <point x="389" y="305" type="line"/>
      <point x="608" y="305" type="line"/>
      <point x="608" y="294" type="line" smooth="yes"/>
      <point x="608" y="197"/>
      <point x="557" y="93"/>
      <point x="401" y="93" type="curve" smooth="yes"/>
      <point x="250" y="93"/>
      <point x="168" y="200"/>
      <point x="168" y="348" type="curve" smooth="yes"/>
      <point x="168" y="498"/>
      <point x="267" y="607"/>
      <point x="402" y="607" type="curve" smooth="yes"/>
      <point x="483" y="607"/>
      <point x="551" y="569"/>
      <point x="592" y="501" type="curve"/>
      <point x="693" y="552" type="line"/>
      <point x="633" y="646"/>
      <point x="533" y="705"/>
      <point x="402" y="705" type="curve" smooth="yes"/>
      <point x="192" y="705"/>
      <point x="50" y="544"/>
      <point x="50" y="348" type="curve" smooth="yes"/>
      <point x="50" y="154"/>
      <point x="173" y="-3"/>
      <point x="397" y="-5" type="curve" smooth="yes"/>
      <point x="493" y="-6"/>
      <point x="567" y="36"/>
      <point x="617" y="93" type="curve"/>
      <point x="618" y="90" type="line"/>
      <point x="618" y="0" type="line"/>
      <point x="716" y="0" type="line"/>
    </contour>
  </outline>
</glyph>
<glyph name="I" format="1">
  <advance width="248"/>
  <unicode hex="0049"/>
  <outline>
    <contour>
      <point x="70" y="0" type="line"/>
      <point x="178" y="0" type="line"/>
      <point x="178" y="700" type="line"/>
      <point x="70" y="700" type="line"/>
    </contour>
  </outline>
</glyph>
<glyph name="J" format="1">
  <advance width="581"/>
  <unicode hex="004A"/>
  <outline>
    <contour>
      <point x="500" y="700" type="line"/>
      <point x="392" y="700" type="line"/>
      <point x="392" y="245" type="line" smooth="yes"/>
      <point x="392" y="134"/>
      <point x="331" y="83"/>
      <point x="250" y="83" type="curve" smooth="yes"/>
      <point x="157" y="83"/>
      <point x="132" y="130"/>
      <point x="115" y="176" type="curve"/>
      <point x="24" y="113" type="line"/>
      <point x="56" y="43"/>
      <point x="123" y="-12"/>
      <point x="250" y="-12" type="curve" smooth="yes"/>
      <point x="389" y="-12"/>
      <point x="501" y="74"/>
      <point x="501" y="245" type="curve"/>
    </contour>
  </outline>
</glyph>
<glyph name="K" format="1">
  <advance width="639"/>
  <unicode hex="004B"/>
  <outline>
    <contour>
      <point x="258" y="345" type="line"/>
      <point x="486" y="0" type="line"/>
      <point x="614" y="0" type="line"/>
      <point x="333" y="427" type="line"/>
      <point x="583" y="700" type="line"/>
      <point x="450" y="700" type="line"/>
      <point x="158" y="381" type="line"/>
      <point x="158" y="700" type="line"/>
      <point x="50" y="700" type="line"/>
      <point x="50" y="0" type="line"/>
      <point x="158" y="0" type="line"/>
      <point x="158" y="235" type="line"/>
    </contour>
  </outline>
</glyph>
<glyph name="L" format="1">
  <advance width="582"/>
  <unicode hex="004C"/>
  <outline>
    <contour>
      <point x="551" y="108" type="line"/>
      <point x="158" y="108" type="line"/>
      <point x="158" y="700" type="line"/>
      <point x="50" y="700" type="line"/>
      <point x="50" y="0" type="line"/>
      <point x="551" y="0" type="line"/>
    </contour>
  </outline>
</glyph>
<glyph name="M" format="1">
  <advance width="886"/>
  <unicode hex="004D"/>
  <outline>
    <contour>
      <point x="836" y="700" type="line"/>
      <point x="693" y="700" type="line"/>
      <point x="443" y="119" type="line"/>
      <point x="193" y="700" type="line"/>
      <point x="50" y="700" type="line"/>
      <point x="50" y="0" type="line"/>
      <point x="158" y="0" type="line"/>
      <point x="158" y="498" type="line"/>
      <point x="379" y="0" type="line"/>
      <point x="507" y="0" type="line"/>
      <point x="728" y="500" type="line"/>
      <point x="728" y="0" type="line"/>
      <point x="836" y="0" type="line"/>
    </contour>
  </outline>
</glyph>
<glyph name="N" format="1">
  <advance width="625"/>
  <unicode hex="004E"/>
  <outline>
    <contour>
      <point x="585" y="700" type="line"/>
      <point x="477" y="700" type="line"/>
      <point x="477" y="191" type="line"/>
      <point x="158" y="700" type="line"/>
      <point x="50" y="700" type="line"/>
      <point x="50" y="0" type="line"/>
      <point x="158" y="0" type="line"/>
      <point x="158" y="498" type="line"/>
      <point x="472" y="0" type="line"/>
      <point x="585" y="0" type="line"/>
    </contour>
  </outline>
</glyph>
<glyph name="P" format="1">
  <advance width="551"/>
  <unicode hex="0050"/>
  <outline>
    <contour>
      <point x="50" y="700" type="line"/>
      <point x="50" y="0" type="line"/>
      <point x="158" y="0" type="line"/>
      <point x="158" y="306" type="line"/>
      <point x="248" y="306" type="line" smooth="yes"/>
      <point x="358" y="306"/>
      <point x="471" y="352"/>
      <point x="471" y="503" type="curve" smooth="yes"/>
      <point x="471" y="652"/>
      <point x="353" y="700"/>
      <point x="254" y="700" type="curve" smooth="yes"/>
    </contour>
    <contour>
      <point x="158" y="401" type="line"/>
      <point x="158" y="602" type="line"/>
      <point x="251" y="602" type="line" smooth="yes"/>
      <point x="320" y="602"/>
      <point x="363" y="572"/>
      <point x="363" y="503" type="curve" smooth="yes"/>
      <point x="363" y="434"/>
      <point x="321" y="401"/>
      <point x="248" y="401" type="curve" smooth="yes"/>
    </contour>
  </outline>
</glyph>
<glyph name="Q" format="1">
  <advance width="802"/>
  <unicode hex="0051"/>
  <outline>
    <contour>
      <point x="642" y="0" type="line"/>
      <point x="790" y="0" type="line"/>
      <point x="655" y="124" type="line"/>
      <point x="701" y="185"/>
      <point x="728" y="263"/>
      <point x="728" y="348" type="curve" smooth="yes"/>
      <point x="728" y="544"/>
      <point x="589" y="705"/>
      <point x="389" y="705" type="curve" smooth="yes"/>
      <point x="189" y="705"/>
      <point x="50" y="544"/>
      <point x="50" y="348" type="curve" smooth="yes"/>
      <point x="50" y="154"/>
      <point x="190" y="-5"/>
      <point x="389" y="-5" type="curve" smooth="yes"/>
      <point x="464" y="-5"/>
      <point x="530" y="17"/>
      <point x="583" y="55" type="curve"/>
    </contour>
    <contour>
      <point x="253" y="93"/>
      <point x="158" y="200"/>
      <point x="158" y="348" type="curve" smooth="yes"/>
      <point x="158" y="498"/>
      <point x="254" y="607"/>
      <point x="389" y="607" type="curve" smooth="yes"/>
      <point x="525" y="607"/>
      <point x="620" y="498"/>
      <point x="620" y="348" type="curve" smooth="yes"/>
      <point x="620" y="289"/>
      <point x="605" y="236"/>
      <point x="578" y="195" type="curve"/>
      <point x="457" y="306" type="line"/>
      <point x="314" y="306" type="line"/>
      <point x="508" y="125" type="line"/>
      <point x="474" y="105"/>
      <point x="434" y="93"/>
      <point x="389" y="93" type="curve" smooth="yes"/>
    </contour>
  </outline>
</glyph>
<glyph name="R" format="1">
  <advance width="624"/>
  <unicode hex="0052"/>
  <outline>
    <contour>
      <point x="486" y="0" type="line"/>
      <point x="614" y="0" type="line"/>
      <point x="382" y="353" type="line"/>
      <point x="438" y="379"/>
      <point x="481" y="430"/>
      <point x="481" y="523" type="curve" smooth="yes"/>
      <point x="481" y="662"/>
      <point x="370" y="700"/>
      <point x="271" y="700" type="curve" smooth="yes"/>
      <point x="50" y="700" type="line"/>
      <point x="50" y="-0" type="line"/>
      <point x="158" y="-0" type="line"/>
      <point x="158" y="330" type="line"/>
      <point x="264" y="331" type="line" smooth="yes"/>
      <point x="265" y="331"/>
      <point x="266" y="331"/>
      <point x="267" y="331" type="curve"/>
    </contour>
    <contour>
      <point x="158" y="421" type="line"/>
      <point x="158" y="602" type="line"/>
      <point x="197" y="602"/>
      <point x="244" y="602"/>
      <point x="271" y="602" type="curve" smooth="yes"/>
      <point x="330" y="602"/>
      <point x="373" y="572"/>
      <point x="373" y="513" type="curve" smooth="yes"/>
      <point x="373" y="454"/>
      <point x="331" y="421"/>
      <point x="268" y="421" type="curve" smooth="yes"/>
    </contour>
  </outline>
</glyph>
<glyph name="S" format="1">
  <advance width="646"/>
  <unicode hex="0053"/>
  <outline>
    <contour>
      <point x="208" y="708"/>
      <point x="110" y="628"/>
      <point x="110" y="525" type="curve" smooth="yes"/>
      <point x="110" y="432"/>
      <point x="185" y="364"/>
      <point x="320" y="324" type="curve" smooth="yes"/>
      <point x="403" y="298"/>
      <point x="485" y="277"/>
      <point x="485" y="206" type="curve" smooth="yes"/>
      <point x="485" y="137"/>
      <point x="444" y="88"/>
      <point x="341" y="88" type="curve" smooth="yes"/>
      <point x="219" y="88"/>
      <point x="169" y="150"/>
      <point x="151" y="240" type="curve"/>
      <point x="50" y="189" type="line"/>
      <point x="88" y="76"/>
      <point x="174" y="-7"/>
      <point x="341" y="-7" type="curve" smooth="yes"/>
      <point x="516" y="-7"/>
      <point x="596" y="93"/>
      <point x="596" y="206" type="curve" smooth="yes"/>
      <point x="596" y="347"/>
      <point x="437" y="389"/>
      <point x="352" y="415" type="curve" smooth="yes"/>
      <point x="258" y="443"/>
      <point x="220" y="479"/>
      <point x="220" y="525" type="curve" smooth="yes"/>
      <point x="220" y="576"/>
      <point x="266" y="615"/>
      <point x="336" y="615" type="curve" smooth="yes"/>
      <point x="409" y="615"/>
      <point x="451" y="583"/>
      <point x="451" y="526" type="curve"/>
      <point x="559" y="554" type="line"/>
      <point x="544" y="657"/>
      <point x="446" y="708"/>
      <point x="336" y="708" type="curve" smooth="yes"/>
    </contour>
  </outline>
</glyph>
<glyph name="T" format="1">
  <advance width="675"/>
  <unicode hex="0054"/>
  <outline>
    <contour>
      <point x="655" y="592" type="line"/>
      <point x="655" y="700" type="line"/>
      <point x="20" y="700" type="line"/>
      <point x="20" y="592" type="line"/>
      <point x="284" y="592" type="line"/>
      <point x="284" y="0" type="line"/>
      <point x="392" y="0" type="line"/>
      <point x="392" y="592" type="line"/>
    </contour>
  </outline>
</glyph>
<glyph name="V" format="1">
  <advance width="629"/>
  <unicode hex="0056"/>
  <outline>
    <contour>
      <point x="616" y="700" type="line"/>
      <point x="508" y="700" type="line"/>
      <point x="314" y="134" type="line"/>
      <point x="121" y="700" type="line"/>
      <point x="13" y="700" type="line"/>
      <point x="252" y="0" type="line"/>
      <point x="376" y="0" type="line"/>
    </contour>
  </outline>
</glyph>
<glyph name="W" format="1">
  <advance width="822"/>
  <unicode hex="0057"/>
  <outline>
    <contour>
      <point x="799" y="700" type="line"/>
      <point x="691" y="700" type="line"/>
      <point x="582" y="189" type="line"/>
      <point x="456" y="690" type="line"/>
      <point x="362" y="690" type="line"/>
      <point x="237" y="192" type="line"/>
      <point x="131" y="700" type="line"/>
      <point x="23" y="700" type="line"/>
      <point x="179" y="0" type="line"/>
      <point x="287" y="0" type="line"/>
      <point x="409" y="507" type="line"/>
      <point x="531" y="0" type="line"/>
      <point x="639" y="0" type="line"/>
    </contour>
  </outline>
</glyph>
<glyph name="X" format="1">
  <advance width="743"/>
  <unicode hex="0058"/>
  <outline>
    <contour>
      <point x="599" y="0" type="line"/>
      <point x="736" y="0" type="line"/>
      <point x="452" y="369" type="line"/>
      <point x="714" y="700" type="line"/>
      <point x="576" y="700" type="line"/>
      <point x="383" y="457" type="line"/>
      <point x="196" y="700" type="line"/>
      <point x="62" y="700" type="line"/>
      <point x="311" y="375" type="line"/>
      <point x="17" y="0" type="line"/>
      <point x="154" y="0" type="line"/>
      <point x="380" y="286" type="line"/>
    </contour>
  </outline>
</glyph>
<glyph name="Z" format="1">
  <advance width="555"/>
  <unicode hex="005A"/>
  <outline>
    <contour>
      <point x="545" y="592" type="line"/>
      <point x="545" y="700" type="line"/>
      <point x="33" y="700" type="line"/>
      <point x="33" y="592" type="line"/>
      <point x="404" y="592" type="line"/>
      <point x="10" y="108" type="line"/>
      <point x="10" y="0" type="line"/>
      <point x="541" y="0" type="line"/>
      <point x="541" y="108" type="line"/>
      <point x="150" y="108" type="line"/>
    </contour>
  </outline>
</glyph>
<glyph name="bracketleft" format="1">
  <advance width="500"/>
  <unicode hex="005B"/>
  <outline>
    <contour>
      <point x="262" y="703" type="line"/>
      <point x="403" y="703" type="line"/>
      <point x="403" y="814" type="line"/>
      <point x="147" y="814" type="line"/>
      <point x="147" y="-151" type="line"/>
      <point x="403" y="-151" type="line"/>
      <point x="403" y="-40" type="line"/>
      <point x="262" y="-40" type="line"/>
    </contour>
  </outline>
</glyph>
<glyph name="bracketright" format="1">
  <advance width="500"/>
  <unicode hex="005D"/>
  <outline>
    <contour>
      <point x="403" y="814" type="line"/>
      <point x="147" y="814" type="line"/>
      <point x="147" y="703" type="line"/>
      <point x="288" y="703" type="line"/>
      <point x="288" y="-40" type="line"/>
      <point x="147" y="-40" type="line"/>
      <point x="147" y="-151" type="line"/>
      <point x="403" y="-151" type="line"/>
    </contour>
  </outline>
</glyph>
<glyph name="asciicircum" format="1">
  <advance width="600"/>
  <unicode hex="005E"/>
  <outline>
    <contour>
      <point x="428" y="236" type="line"/>
      <point x="526" y="236" type="line"/>
      <point x="304" y="673" type="line"/>
      <point x="82" y="236" type="line"/>
      <point x="180" y="236" type="line"/>
      <point x="304" y="486" type="line"/>
    </contour>
  </outline>
</glyph>
<glyph name="underscore" format="1">
  <advance width="600"/>
  <unicode hex="005F"/>
  <outline>
    <contour>
      <point x="8" y="-177" type="line"/>
      <point x="586" y="-177" type="line"/>
      <point x="586" y="-67" type="line"/>
      <point x="8" y="-67" type="line"/>
    </contour>
  </outline>
</glyph>
<glyph name="grave" format="1">
  <advance width="600"/>
  <unicode hex="0060"/>
  <outline>
    <contour>
      <point x="403" y="592" type="line"/>
      <point x="219" y="764" type="line"/>
      <point x="158" y="663" type="line"/>
      <point x="315" y="565" type="line"/>
    </contour>
  </outline>
</glyph>
<glyph name="b" format="1">
  <advance width="583"/>
  <unicode hex="0062"/>
  <outline>
    <contour>
      <point x="227" y="512"/>
      <point x="181" y="486"/>
      <point x="149" y="448" type="curve"/>
      <point x="149" y="700" type="line"/>
      <point x="40" y="700" type="line"/>
      <point x="41" y="0" type="line"/>
      <point x="149" y="0" type="line"/>
      <point x="149" y="54" type="line"/>
      <point x="181" y="16"/>
      <point x="227" y="-10"/>
      <point x="294" y="-10" type="curve" smooth="yes"/>
      <point x="444" y="-10"/>
      <point x="543" y="104"/>
      <point x="543" y="252" type="curve" smooth="yes"/>
      <point x="543" y="399"/>
      <point x="444" y="512"/>
      <point x="294" y="512" type="curve" smooth="yes"/>
    </contour>
    <contour>
      <point x="207" y="86"/>
      <point x="138" y="147"/>
      <point x="138" y="252" type="curve" smooth="yes"/>
      <point x="138" y="355"/>
      <point x="207" y="417"/>
      <point x="294" y="417" type="curve" smooth="yes"/>
      <point x="378" y="417"/>
      <point x="434" y="345"/>
      <point x="434" y="252" type="curve" smooth="yes"/>
      <point x="434" y="157"/>
      <point x="378" y="86"/>
      <point x="294" y="86" type="curve" smooth="yes"/>
    </contour>
  </outline>
</glyph>
<glyph name="c" format="1">
  <advance width="549"/>
  <unicode hex="0063"/>
  <outline>
    <contour>
      <point x="525" y="371" type="line"/>
      <point x="494" y="459"/>
      <point x="413" y="511"/>
      <point x="294" y="511" type="curve" smooth="yes"/>
      <point x="138" y="511"/>
      <point x="20" y="417"/>
      <point x="20" y="245" type="curve" smooth="yes"/>
      <point x="20" y="74"/>
      <point x="148" y="-12"/>
      <point x="287" y="-12" type="curve" smooth="yes"/>
      <point x="412" y="-12"/>
      <point x="497" y="47"/>
      <point x="529" y="150" type="curve"/>
      <point x="431" y="191" type="line"/>
      <point x="411" y="132"/>
      <point x="378" y="79"/>
      <point x="287" y="79" type="curve" smooth="yes"/>
      <point x="206" y="79"/>
      <point x="135" y="134"/>
      <point x="135" y="245" type="curve" smooth="yes"/>
      <point x="135" y="355"/>
      <point x="193" y="422"/>
      <point x="294" y="422" type="curve" smooth="yes"/>
      <point x="361" y="422"/>
      <point x="406" y="382"/>
      <point x="433" y="320" type="curve"/>
    </contour>
  </outline>
</glyph>
<glyph name="d" format="1">
  <advance width="578"/>
  <unicode hex="0064"/>
  <outline>
    <contour>
      <point x="523" y="700" type="line"/>
      <point x="414" y="700" type="line"/>
      <point x="414" y="448" type="line"/>
      <point x="382" y="486"/>
      <point x="336" y="512"/>
      <point x="269" y="512" type="curve" smooth="yes"/>
      <point x="119" y="512"/>
      <point x="20" y="399"/>
      <point x="20" y="252" type="curve" smooth="yes"/>
      <point x="20" y="104"/>
      <point x="119" y="-10"/>
      <point x="269" y="-10" type="curve" smooth="yes"/>
      <point x="336" y="-10"/>
      <point x="382" y="16"/>
      <point x="414" y="54" type="curve"/>
      <point x="414" y="0" type="line"/>
      <point x="522" y="0" type="line"/>
    </contour>
    <contour>
      <point x="185" y="86"/>
      <point x="129" y="157"/>
      <point x="129" y="252" type="curve" smooth="yes"/>
      <point x="129" y="345"/>
      <point x="185" y="417"/>
      <point x="269" y="417" type="curve" smooth="yes"/>
      <point x="356" y="417"/>
      <point x="425" y="355"/>
      <point x="425" y="252" type="curve" smooth="yes"/>
      <point x="425" y="147"/>
      <point x="356" y="86"/>
      <point x="269" y="86" type="curve" smooth="yes"/>
    </contour>
  </outline>
</glyph>
<glyph name="g" format="1">
  <advance width="578"/>
  <unicode hex="0067"/>
  <outline>
    <contour>
      <point x="522" y="500" type="line"/>
      <point x="414" y="500" type="line"/>
      <point x="414" y="446" type="line"/>
      <point x="382" y="484"/>
      <point x="336" y="510"/>
      <point x="269" y="510" type="curve" smooth="yes"/>
      <point x="119" y="510"/>
      <point x="20" y="396"/>
      <point x="20" y="248" type="curve" smooth="yes"/>
      <point x="20" y="101"/>
      <point x="119" y="-12"/>
      <point x="269" y="-12" type="curve" smooth="yes"/>
      <point x="336" y="-12"/>
      <point x="382" y="14"/>
      <point x="414" y="52" type="curve"/>
      <point x="414" y="-3" type="line" smooth="yes"/>
      <point x="414" y="-114"/>
      <point x="353" y="-165"/>
      <point x="272" y="-165" type="curve" smooth="yes"/>
      <point x="179" y="-165"/>
      <point x="154" y="-118"/>
      <point x="137" y="-72" type="curve"/>
      <point x="32" y="-95" type="line"/>
      <point x="55" y="-183"/>
      <point x="121" y="-260"/>
      <point x="272" y="-260" type="curve" smooth="yes"/>
      <point x="411" y="-260"/>
      <point x="523" y="-174"/>
      <point x="523" y="-3" type="curve"/>
    </contour>
    <contour>
      <point x="185" y="83"/>
      <point x="129" y="155"/>
      <point x="129" y="248" type="curve" smooth="yes"/>
      <point x="129" y="343"/>
      <point x="185" y="414"/>
      <point x="269" y="414" type="curve" smooth="yes"/>
      <point x="356" y="414"/>
      <point x="425" y="353"/>
      <point x="425" y="248" type="curve" smooth="yes"/>
      <point x="425" y="145"/>
      <point x="356" y="83"/>
      <point x="269" y="83" type="curve" smooth="yes"/>
    </contour>
  </outline>
</glyph>
<glyph name="h" format="1">
  <advance width="571"/>
  <unicode hex="0068"/>
  <outline>
    <contour>
      <point x="236" y="507"/>
      <point x="182" y="474"/>
      <point x="148" y="424" type="curve"/>
      <point x="148" y="700" type="line"/>
      <point x="40" y="700" type="line"/>
      <point x="40" y="0" type="line"/>
      <point x="148" y="0" type="line"/>
      <point x="148" y="261" type="line"/>
      <point x="157" y="370"/>
      <point x="232" y="415"/>
      <point x="297" y="415" type="curve" smooth="yes"/>
      <point x="380" y="415"/>
      <point x="408" y="364"/>
      <point x="408" y="296" type="curve" smooth="yes"/>
      <point x="408" y="0" type="line"/>
      <point x="516" y="0" type="line"/>
      <point x="516" y="296" type="line" smooth="yes"/>
      <point x="516" y="397"/>
      <point x="476" y="507"/>
      <point x="308" y="507" type="curve" smooth="yes"/>
    </contour>
  </outline>
</glyph>
<glyph name="k" format="1">
  <advance width="511"/>
  <unicode hex="006B"/>
  <outline>
    <contour>
      <point x="221" y="251" type="line"/>
      <point x="387" y="0" type="line"/>
      <point x="515" y="0" type="line"/>
      <point x="298" y="331" type="line"/>
      <point x="462" y="500" type="line"/>
      <point x="325" y="500" type="line"/>
      <point x="148" y="312" type="line"/>
      <point x="148" y="700" type="line"/>
      <point x="40" y="700" type="line"/>
      <point x="40" y="0" type="line"/>
      <point x="148" y="0" type="line"/>
      <point x="148" y="176" type="line"/>
    </contour>
  </outline>
</glyph>
<glyph name="m" format="1">
  <advance width="921"/>
  <unicode hex="006D"/>
  <outline>
    <contour>
      <point x="592" y="510"/>
      <point x="528" y="468"/>
      <point x="491" y="407" type="curve"/>
      <point x="464" y="465"/>
      <point x="410" y="510"/>
      <point x="306" y="510" type="curve" smooth="yes"/>
      <point x="235" y="510"/>
      <point x="181" y="476"/>
      <point x="148" y="424" type="curve"/>
      <point x="148" y="500" type="line"/>
      <point x="40" y="500" type="line"/>
      <point x="40" y="-0" type="line"/>
      <point x="148" y="-0" type="line"/>
      <point x="148" y="238" type="line" smooth="yes"/>
      <point x="148" y="363"/>
      <point x="228" y="415"/>
      <point x="295" y="415" type="curve" smooth="yes"/>
      <point x="377" y="415"/>
      <point x="404" y="364"/>
      <point x="404" y="296" type="curve" smooth="yes"/>
      <point x="404" y="-0" type="line"/>
      <point x="512" y="-0" type="line"/>
      <point x="512" y="238" type="line" smooth="yes"/>
      <point x="512" y="363"/>
      <point x="593" y="415"/>
      <point x="662" y="415" type="curve" smooth="yes"/>
      <point x="745" y="415"/>
      <point x="773" y="364"/>
      <point x="773" y="296" type="curve" smooth="yes"/>
      <point x="773" y="-0" type="line"/>
      <point x="881" y="-0" type="line"/>
      <point x="881" y="296" type="line" smooth="yes"/>
      <point x="881" y="397"/>
      <point x="841" y="510"/>
      <point x="673" y="510" type="curve" smooth="yes"/>
    </contour>
  </outline>
</glyph>
<glyph name="n" format="1">
  <advance width="571"/>
  <unicode hex="006E"/>
  <outline>
    <contour>
      <point x="238" y="507"/>
      <point x="183" y="472"/>
      <point x="148" y="419" type="curve"/>
      <point x="148" y="500" type="line"/>
      <point x="40" y="500" type="line"/>
      <point x="40" y="0" type="line"/>
      <point x="148" y="0" type="line"/>
      <point x="148" y="261" type="line"/>
      <point x="157" y="370"/>
      <point x="232" y="415"/>
      <point x="297" y="415" type="curve" smooth="yes"/>
      <point x="380" y="415"/>
      <point x="408" y="364"/>
      <point x="408" y="296" type="curve" smooth="yes"/>
      <point x="408" y="0" type="line"/>
      <point x="516" y="0" type="line"/>
      <point x="516" y="296" type="line" smooth="yes"/>
      <point x="516" y="397"/>
      <point x="476" y="507"/>
      <point x="308" y="507" type="curve" smooth="yes"/>
    </contour>
  </outline>
</glyph>
<glyph name="o" format="1">
  <advance width="554"/>
  <unicode hex="006F"/>
  <outline>
    <contour>
      <point x="423" y="-12"/>
      <point x="524" y="102"/>
      <point x="524" y="247" type="curve" smooth="yes"/>
      <point x="524" y="393"/>
      <point x="423" y="510"/>
      <point x="277" y="510" type="curve" smooth="yes"/>
      <point x="131" y="510"/>
      <point x="30" y="393"/>
      <point x="30" y="247" type="curve" smooth="yes"/>
      <point x="30" y="102"/>
      <point x="131" y="-12"/>
      <point x="277" y="-12" type="curve" smooth="yes"/>
    </contour>
    <contour>
      <point x="193" y="77"/>
      <point x="136" y="148"/>
      <point x="136" y="247" type="curve" smooth="yes"/>
      <point x="136" y="347"/>
      <point x="193" y="418"/>
      <point x="277" y="418" type="curve" smooth="yes"/>
      <point x="361" y="418"/>
      <point x="418" y="347"/>
      <point x="418" y="247" type="curve" smooth="yes"/>
      <point x="418" y="148"/>
      <point x="361" y="77"/>
      <point x="277" y="77" type="curve" smooth="yes"/>
    </contour>
  </outline>
</glyph>
<glyph name="p" format="1">
  <advance width="573"/>
  <unicode hex="0070"/>
  <outline>
    <contour>
      <point x="227" y="510"/>
      <point x="181" y="484"/>
      <point x="149" y="446" type="curve"/>
      <point x="149" y="500" type="line"/>
      <point x="41" y="500" type="line"/>
      <point x="40" y="-200" type="line"/>
      <point x="149" y="-200" type="line"/>
      <point x="149" y="52" type="line"/>
      <point x="181" y="14"/>
      <point x="227" y="-12"/>
      <point x="294" y="-12" type="curve" smooth="yes"/>
      <point x="444" y="-12"/>
      <point x="543" y="101"/>
      <point x="543" y="248" type="curve" smooth="yes"/>
      <point x="543" y="396"/>
      <point x="444" y="510"/>
      <point x="294" y="510" type="curve" smooth="yes"/>
    </contour>
    <contour>
      <point x="207" y="83"/>
      <point x="138" y="145"/>
      <point x="138" y="248" type="curve" smooth="yes"/>
      <point x="138" y="353"/>
      <point x="207" y="414"/>
      <point x="294" y="414" type="curve" smooth="yes"/>
      <point x="378" y="414"/>
      <point x="434" y="343"/>
      <point x="434" y="248" type="curve" smooth="yes"/>
      <point x="434" y="155"/>
      <point x="378" y="83"/>
      <point x="294" y="83" type="curve" smooth="yes"/>
    </contour>
  </outline>
</glyph>
<glyph name="q" format="1">
  <advance width="563"/>
  <unicode hex="0071"/>
  <outline>
    <contour>
      <point x="414" y="-200" type="line"/>
      <point x="523" y="-200" type="line"/>
      <point x="522" y="500" type="line"/>
      <point x="414" y="500" type="line"/>
      <point x="414" y="446" type="line"/>
      <point x="382" y="484"/>
      <point x="336" y="510"/>
      <point x="269" y="510" type="curve" smooth="yes"/>
      <point x="119" y="510"/>
      <point x="20" y="396"/>
      <point x="20" y="248" type="curve" smooth="yes"/>
      <point x="20" y="101"/>
      <point x="119" y="-12"/>
      <point x="269" y="-12" type="curve" smooth="yes"/>
      <point x="336" y="-12"/>
      <point x="382" y="14"/>
      <point x="414" y="52" type="curve"/>
    </contour>
    <contour>
      <point x="185" y="83"/>
      <point x="129" y="155"/>
      <point x="129" y="248" type="curve" smooth="yes"/>
      <point x="129" y="343"/>
      <point x="185" y="414"/>
      <point x="269" y="414" type="curve" smooth="yes"/>
      <point x="356" y="414"/>
      <point x="425" y="353"/>
      <point x="425" y="248" type="curve" smooth="yes"/>
      <point x="425" y="145"/>
      <point x="356" y="83"/>
      <point x="269" y="83" type="curve" smooth="yes"/>
    </contour>
  </outline>
</glyph>
<glyph name="r" format="1">
  <advance width="455"/>
  <unicode hex="0072"/>
  <outline>
    <contour>
      <point x="219" y="510"/>
      <point x="175" y="476"/>
      <point x="148" y="424" type="curve"/>
      <point x="148" y="500" type="line"/>
      <point x="40" y="500" type="line"/>
      <point x="40" y="0" type="line"/>
      <point x="148" y="0" type="line"/>
      <point x="148" y="238" type="line" smooth="yes"/>
      <point x="148" y="363"/>
      <point x="209" y="415"/>
      <point x="267" y="415" type="curve" smooth="yes"/>
      <point x="316" y="415"/>
      <point x="340" y="384"/>
      <point x="338" y="338" type="curve"/>
      <point x="444" y="338" type="line"/>
      <point x="450" y="426"/>
      <point x="406" y="510"/>
      <point x="278" y="510" type="curve" smooth="yes"/>
    </contour>
  </outline>
</glyph>
<glyph name="t" format="1">
  <advance width="459"/>
  <unicode hex="0074"/>
  <outline>
    <contour>
      <point x="366" y="145" type="line"/>
      <point x="352" y="117"/>
      <point x="331" y="77"/>
      <point x="282" y="77" type="curve" smooth="yes"/>
      <point x="234" y="77"/>
      <point x="208" y="109"/>
      <point x="208" y="157" type="curve" smooth="yes"/>
      <point x="208" y="400" type="line"/>
      <point x="360" y="400" type="line"/>
      <point x="360" y="500" type="line"/>
      <point x="208" y="500" type="line"/>
      <point x="208" y="700" type="line"/>
      <point x="100" y="700" type="line"/>
      <point x="100" y="500" type="line"/>
      <point x="10" y="500" type="line"/>
      <point x="10" y="400" type="line"/>
      <point x="100" y="400" type="line"/>
      <point x="100" y="155" type="line" smooth="yes"/>
      <point x="100" y="64"/>
      <point x="146" y="-12"/>
      <point x="282" y="-12" type="curve" smooth="yes"/>
      <point x="370" y="-12"/>
      <point x="418" y="38"/>
      <point x="449" y="97" type="curve"/>
    </contour>
  </outline>
</glyph>
<glyph name="w" format="1">
  <advance width="649"/>
  <unicode hex="0077"/>
  <outline>
    <contour>
      <point x="677" y="500" type="line"/>
      <point x="569" y="500" type="line"/>
      <point x="480" y="165" type="line"/>
      <point x="391" y="500" type="line"/>
      <point x="297" y="500" type="line"/>
      <point x="208" y="165" type="line"/>
      <point x="119" y="500" type="line"/>
      <point x="11" y="500" type="line"/>
      <point x="154" y="0" type="line"/>
      <point x="262" y="0" type="line"/>
      <point x="344" y="325" type="line"/>
      <point x="426" y="0" type="line"/>
      <point x="534" y="0" type="line"/>
    </contour>
  </outline>
</glyph>
<glyph name="x" format="1">
  <advance width="590"/>
  <unicode hex="0078"/>
  <outline>
    <contour>
      <point x="424" y="0" type="line"/>
      <point x="561" y="0" type="line"/>
      <point x="365" y="254" type="line"/>
      <point x="558" y="500" type="line"/>
      <point x="420" y="500" type="line"/>
      <point x="296" y="343" type="line"/>
      <point x="175" y="500" type="line"/>
      <point x="40" y="500" type="line"/>
      <point x="224" y="260" type="line"/>
      <point x="20" y="0" type="line"/>
      <point x="158" y="0" type="line"/>
      <point x="293" y="171" type="line"/>
    </contour>
  </outline>
</glyph>
<glyph name="y" format="1">
  <advance width="532"/>
  <unicode hex="0079"/>
  <outline>
    <contour>
      <point x="522" y="500" type="line"/>
      <point x="409" y="500" type="line"/>
      <point x="284" y="196" type="line"/>
      <point x="139" y="500" type="line"/>
      <point x="15" y="500" type="line"/>
      <point x="230" y="64" type="line"/>
      <point x="122" y="-200" type="line"/>
      <point x="236" y="-200" type="line"/>
    </contour>
  </outline>
</glyph>
<glyph name="z" format="1">
  <advance width="489"/>
  <unicode hex="007A"/>
  <outline>
    <contour>
      <point x="469" y="100" type="line"/>
      <point x="158" y="100" type="line"/>
      <point x="451" y="400" type="line"/>
      <point x="451" y="500" type="line"/>
      <point x="35" y="500" type="line"/>
      <point x="35" y="400" type="line"/>
      <point x="313" y="400" type="line"/>
      <point x="20" y="100" type="line"/>
      <point x="20" y="0" type="line"/>
      <point x="469" y="0" type="line"/>
    </contour>
  </outline>
</glyph>
<glyph name="braceleft" format="1">
  <advance width="512"/>
  <unicode hex="007B"/>
  <outline>
    <contour>
      <point x="363" y="788" type="line"/>
      <point x="258" y="798"/>
      <point x="194" y="745"/>
      <point x="194" y="622" type="curve" smooth="yes"/>
      <point x="194" y="517"/>
      <point x="237" y="430"/>
      <point x="225" y="397" type="curve" smooth="yes"/>
      <point x="215" y="368"/>
      <point x="198" y="365"/>
      <point x="149" y="365" type="curve"/>
      <point x="149" y="252" type="line"/>
      <point x="199" y="252"/>
      <point x="215" y="250"/>
      <point x="226" y="221" type="curve" smooth="yes"/>
      <point x="238" y="188"/>
      <point x="194" y="100"/>
      <point x="194" y="-5" type="curve" smooth="yes"/>
      <point x="194" y="-128"/>
      <point x="258" y="-180"/>
      <point x="363" y="-170" type="curve"/>
      <point x="363" y="-79" type="line"/>
      <point x="313" y="-89"/>
      <point x="304" y="-70"/>
      <point x="304" y="-5" type="curve" smooth="yes"/>
      <point x="304" y="84"/>
      <point x="356" y="181"/>
      <point x="330" y="252" type="curve" smooth="yes"/>
      <point x="320" y="277"/>
      <point x="305" y="296"/>
      <point x="287" y="309" type="curve"/>
      <point x="305" y="322"/>
      <point x="321" y="341"/>
      <point x="330" y="366" type="curve" smooth="yes"/>
      <point x="356" y="437"/>
      <point x="304" y="534"/>
      <point x="304" y="622" type="curve" smooth="yes"/>
      <point x="304" y="688"/>
      <point x="314" y="707"/>
      <point x="363" y="697" type="curve"/>
    </contour>
  </outline>
</glyph>
<glyph name="bar" format="1">
  <advance width="314"/>
  <unicode hex="007C"/>
  <outline>
    <contour>
      <point x="100" y="-151" type="line"/>
      <point x="215" y="-151" type="line"/>
      <point x="215" y="814" type="line"/>
      <point x="100" y="814" type="line"/>
    </contour>
  </outline>
</glyph>
<glyph name="braceright" format="1">
  <advance width="512"/>
  <unicode hex="007D"/>
  <outline>
    <contour>
      <point x="291" y="430"/>
      <point x="334" y="517"/>
      <point x="334" y="622" type="curve" smooth="yes"/>
      <point x="334" y="745"/>
      <point x="270" y="798"/>
      <point x="165" y="788" type="curve"/>
      <point x="165" y="697" type="line"/>
      <point x="214" y="707"/>
      <point x="224" y="688"/>
      <point x="224" y="622" type="curve" smooth="yes"/>
      <point x="224" y="534"/>
      <point x="172" y="437"/>
      <point x="198" y="366" type="curve" smooth="yes"/>
      <point x="207" y="341"/>
      <point x="223" y="322"/>
      <point x="241" y="309" type="curve"/>
      <point x="223" y="296"/>
      <point x="208" y="277"/>
      <point x="198" y="252" type="curve" smooth="yes"/>
      <point x="172" y="181"/>
      <point x="224" y="84"/>
      <point x="224" y="-5" type="curve" smooth="yes"/>
      <point x="224" y="-70"/>
      <point x="215" y="-89"/>
      <point x="165" y="-79" type="curve"/>
      <point x="165" y="-170" type="line"/>
      <point x="270" y="-180"/>
      <point x="334" y="-128"/>
      <point x="334" y="-5" type="curve" smooth="yes"/>
      <point x="334" y="100"/>
      <point x="290" y="188"/>
      <point x="302" y="221" type="curve" smooth="yes"/>
      <point x="313" y="250"/>
      <point x="329" y="252"/>
      <point x="379" y="252" type="curve"/>
      <point x="379" y="365" type="line"/>
      <point x="330" y="365"/>
      <point x="313" y="368"/>
      <point x="303" y="397" type="curve" smooth="yes"/>
    </contour>
  </outline>
</glyph>
<glyph name="asciitilde" format="1">
  <advance width="600"/>
  <unicode hex="007E"/>
  <outline>
    <contour>
      <point x="462" y="379" type="line"/>
      <point x="472" y="350"/>
      <point x="466" y="296"/>
      <point x="410" y="296" type="curve" smooth="yes"/>
      <point x="374" y="296"/>
      <point x="327" y="334"/>
      <point x="297" y="356" type="curve" smooth="yes"/>
      <point x="263" y="380"/>
      <point x="223" y="403"/>
      <point x="176" y="403" type="curve" smooth="yes"/>
      <point x="31" y="403"/>
      <point x="34" y="281"/>
      <point x="47" y="242" type="curve"/>
      <point x="132" y="242" type="line"/>
      <point x="122" y="271"/>
      <point x="128" y="325"/>
      <point x="184" y="325" type="curve" smooth="yes"/>
      <point x="220" y="325"/>
      <point x="268" y="287"/>
      <point x="298" y="265" type="curve" smooth="yes"/>
      <point x="332" y="241"/>
      <point x="371" y="218"/>
      <point x="418" y="218" type="curve" smooth="yes"/>
      <point x="563" y="218"/>
      <point x="560" y="340"/>
      <point x="547" y="379" type="curve"/>
    </contour>
  </outline>
</glyph>
<glyph name="exclamdown" format="1">
  <advance width="310"/>
  <unicode hex="00A1"/>
  <outline>
    <contour>
      <point x="221" y="410" type="line"/>
      <point x="221" y="542" type="line"/>
      <point x="89" y="542" type="line"/>
      <point x="89" y="410" type="line"/>
    </contour>
    <contour>
      <point x="221" y="-189" type="line"/>
      <point x="221" y="-42" type="line"/>
      <point x="200" y="338" type="line"/>
      <point x="110" y="338" type="line"/>
      <point x="89" y="-42" type="line"/>
      <point x="89" y="-189" type="line"/>
    </contour>
  </outline>
</glyph>
<glyph name="cent" format="1">
  <advance width="549"/>
  <unicode hex="00A2"/>
  <outline>
    <contour>
      <point x="431" y="288" type="line"/>
      <point x="416" y="244"/>
      <point x="394" y="204"/>
      <point x="347" y="186" type="curve"/>
      <point x="347" y="509" type="line"/>
      <point x="386" y="494"/>
      <point x="414" y="461"/>
      <point x="433" y="417" type="curve"/>
      <point x="525" y="468" type="line"/>
      <point x="499" y="542"/>
      <point x="437" y="591"/>
      <point x="347" y="604" type="curve"/>
      <point x="347" y="700" type="line"/>
      <point x="232" y="700" type="line"/>
      <point x="232" y="603" type="line"/>
      <point x="108" y="581"/>
      <point x="20" y="490"/>
      <point x="20" y="342" type="curve" smooth="yes"/>
      <point x="20" y="194"/>
      <point x="116" y="110"/>
      <point x="232" y="90" type="curve"/>
      <point x="232" y="3" type="line"/>
      <point x="347" y="3" type="line"/>
      <point x="347" y="90" type="line"/>
      <point x="439" y="106"/>
      <point x="502" y="161"/>
      <point x="529" y="247" type="curve"/>
    </contour>
    <contour>
      <point x="135" y="427"/>
      <point x="170" y="486"/>
      <point x="232" y="509" type="curve"/>
      <point x="232" y="185" type="line"/>
      <point x="176" y="205"/>
      <point x="135" y="257"/>
      <point x="135" y="342" type="curve" smooth="yes"/>
    </contour>
  </outline>
</glyph>
<glyph name="sterling" format="1">
  <advance width="581"/>
  <unicode hex="00A3"/>
  <outline>
    <contour>
      <point x="551" y="108" type="line"/>
      <point x="246" y="108" type="line"/>
      <point x="270" y="148"/>
      <point x="278" y="196"/>
      <point x="278" y="238" type="curve" smooth="yes"/>
      <point x="278" y="320" type="line"/>
      <point x="389" y="320" type="line"/>
      <point x="389" y="420" type="line"/>
      <point x="278" y="420" type="line"/>
      <point x="278" y="526" type="line" smooth="yes"/>
      <point x="278" y="577"/>
      <point x="294" y="635"/>
      <point x="363" y="635" type="curve" smooth="yes"/>
      <point x="412" y="635"/>
      <point x="449" y="593"/>
      <point x="455" y="571" type="curve"/>
      <point x="543" y="634" type="line"/>
      <point x="516" y="671"/>
      <point x="470" y="723"/>
      <point x="363" y="723" type="curve" smooth="yes"/>
      <point x="195" y="723"/>
      <point x="170" y="587"/>
      <point x="170" y="526" type="curve" smooth="yes"/>
      <point x="170" y="420" type="line"/>
      <point x="89" y="420" type="line"/>
      <point x="89" y="320" type="line"/>
      <point x="170" y="320" type="line"/>
      <point x="170" y="238" type="line" smooth="yes"/>
      <point x="170" y="147"/>
      <point x="153" y="108"/>
      <point x="88" y="108" type="curve" smooth="yes"/>
      <point x="73" y="108" type="line"/>
      <point x="73" y="0" type="line"/>
      <point x="551" y="0" type="line"/>
    </contour>
  </outline>
</glyph>
<glyph name="yen" format="1">
  <advance width="585"/>
  <unicode hex="00A5"/>
  <outline>
    <contour>
      <point x="395" y="393" type="line"/>
      <point x="572" y="700" type="line"/>
      <point x="459" y="700" type="line"/>
      <point x="292" y="410" type="line"/>
      <point x="126" y="700" type="line"/>
      <point x="13" y="700" type="line"/>
      <point x="189" y="393" type="line"/>
      <point x="103" y="393" type="line"/>
      <point x="103" y="318" type="line"/>
      <point x="232" y="318" type="line"/>
      <point x="238" y="307" type="line"/>
      <point x="238" y="250" type="line"/>
      <point x="103" y="250" type="line"/>
      <point x="103" y="175" type="line"/>
      <point x="238" y="175" type="line"/>
      <point x="238" y="0" type="line"/>
      <point x="346" y="0" type="line"/>
      <point x="346" y="175" type="line"/>
      <point x="494" y="175" type="line"/>
      <point x="494" y="250" type="line"/>
      <point x="346" y="250" type="line"/>
      <point x="346" y="307" type="line"/>
      <point x="352" y="318" type="line"/>
      <point x="494" y="318" type="line"/>
      <point x="494" y="393" type="line"/>
    </contour>
  </outline>
</glyph>
<glyph name="brokenbar" format="1">
  <advance width="314"/>
  <unicode hex="00A6"/>
  <outline>
    <contour>
      <point x="100" y="426" type="line"/>
      <point x="215" y="426" type="line"/>
      <point x="215" y="814" type="line"/>
      <point x="100" y="814" type="line"/>
    </contour>
    <contour>
      <point x="100" y="-147" type="line"/>
      <point x="215" y="-147" type="line"/>
      <point x="215" y="241" type="line"/>
      <point x="100" y="241" type="line"/>
    </contour>
  </outline>
</glyph>
<glyph name="section" format="1">
  <advance width="592"/>
  <unicode hex="00A7"/>
  <outline>
    <contour>
      <point x="556" y="126"/>
      <point x="566" y="165"/>
      <point x="566" y="206" type="curve" smooth="yes"/>
      <point x="566" y="347"/>
      <point x="407" y="389"/>
      <point x="322" y="415" type="curve" smooth="yes"/>
      <point x="228" y="443"/>
      <point x="190" y="479"/>
      <point x="190" y="525" type="curve" smooth="yes"/>
      <point x="190" y="576"/>
      <point x="236" y="615"/>
      <point x="306" y="615" type="curve" smooth="yes"/>
      <point x="379" y="615"/>
      <point x="421" y="583"/>
      <point x="421" y="526" type="curve"/>
      <point x="529" y="554" type="line"/>
      <point x="514" y="657"/>
      <point x="416" y="708"/>
      <point x="306" y="708" type="curve" smooth="yes"/>
      <point x="178" y="708"/>
      <point x="80" y="628"/>
      <point x="80" y="525" type="curve" smooth="yes"/>
      <point x="80" y="483"/>
      <point x="95" y="446"/>
      <point x="125" y="415" type="curve"/>
      <point x="99" y="385"/>
      <point x="85" y="349"/>
      <point x="85" y="309" type="curve" smooth="yes"/>
      <point x="85" y="216"/>
      <point x="160" y="148"/>
      <point x="295" y="108" type="curve" smooth="yes"/>
      <point x="378" y="82"/>
      <point x="460" y="61"/>
      <point x="460" y="-10" type="curve" smooth="yes"/>
      <point x="460" y="-79"/>
      <point x="419" y="-128"/>
      <point x="316" y="-128" type="curve" smooth="yes"/>
      <point x="194" y="-128"/>
      <point x="144" y="-66"/>
      <point x="126" y="24" type="curve"/>
      <point x="25" y="-27" type="line"/>
      <point x="63" y="-140"/>
      <point x="149" y="-223"/>
      <point x="316" y="-223" type="curve" smooth="yes"/>
      <point x="491" y="-223"/>
      <point x="571" y="-123"/>
      <point x="571" y="-10" type="curve" smooth="yes"/>
      <point x="571" y="32"/>
      <point x="557" y="66"/>
      <point x="534" y="93" type="curve"/>
    </contour>
    <contour>
      <point x="195" y="326"/>
      <point x="200" y="341"/>
      <point x="209" y="355" type="curve"/>
      <point x="233" y="343"/>
      <point x="260" y="333"/>
      <point x="290" y="324" type="curve" smooth="yes"/>
      <point x="373" y="298"/>
      <point x="455" y="277"/>
      <point x="455" y="206" type="curve" smooth="yes"/>
      <point x="455" y="188"/>
      <point x="452" y="171"/>
      <point x="446" y="156" type="curve"/>
      <point x="404" y="176"/>
      <point x="360" y="189"/>
      <point x="327" y="199" type="curve" smooth="yes"/>
      <point x="233" y="227"/>
      <point x="195" y="263"/>
      <point x="195" y="309" type="curve" smooth="yes"/>
    </contour>
  </outline>
</glyph>
<glyph name="dieresis" format="1">
  <advance width="556"/>
  <unicode hex="00A8"/>
  <outline>
    <contour>
      <point x="100" y="582" type="line"/>
      <point x="208" y="582" type="line"/>
      <point x="208" y="690" type="line"/>
      <point x="100" y="690" type="line"/>
    </contour>
    <contour>
      <point x="348" y="582" type="line"/>
      <point x="456" y="582" type="line"/>
      <point x="456" y="690" type="line"/>
      <point x="348" y="690" type="line"/>
    </contour>
  </outline>
</glyph>
<glyph name="copyright" format="1">
  <advance width="808"/>
  <unicode hex="00A9"/>
  <outline>
    <contour>
      <point x="635" y="-5"/>
      <point x="788" y="169"/>
      <point x="788" y="383" type="curve" smooth="yes"/>
      <point x="788" y="598"/>
      <point x="635" y="775"/>
      <point x="404" y="775" type="curve" smooth="yes"/>
      <point x="173" y="775"/>
      <point x="20" y="598"/>
      <point x="20" y="383" type="curve" smooth="yes"/>
      <point x="20" y="169"/>
      <point x="174" y="-5"/>
      <point x="404" y="-5" type="curve" smooth="yes"/>
    </contour>
    <contour>
      <point x="227" y="74"/>
      <point x="112" y="204"/>
      <point x="112" y="383" type="curve" smooth="yes"/>
      <point x="112" y="564"/>
      <point x="228" y="696"/>
      <point x="404" y="696" type="curve" smooth="yes"/>
      <point x="581" y="696"/>
      <point x="696" y="564"/>
      <point x="696" y="383" type="curve" smooth="yes"/>
      <point x="696" y="204"/>
      <point x="581" y="74"/>
      <point x="404" y="74" type="curve" smooth="yes"/>
    </contour>
    <contour>
      <point x="585" y="482" type="line"/>
      <point x="562" y="548"/>
      <point x="501" y="587"/>
      <point x="412" y="587" type="curve" smooth="yes"/>
      <point x="295" y="587"/>
      <point x="206" y="516"/>
      <point x="206" y="387" type="curve" smooth="yes"/>
      <point x="206" y="259"/>
      <point x="302" y="194"/>
      <point x="407" y="194" type="curve" smooth="yes"/>
      <point x="500" y="194"/>
      <point x="564" y="238"/>
      <point x="588" y="316" type="curve"/>
      <point x="515" y="346" type="line"/>
      <point x="500" y="302"/>
      <point x="475" y="262"/>
      <point x="407" y="262" type="curve" smooth="yes"/>
      <point x="346" y="262"/>
      <point x="292" y="304"/>
      <point x="292" y="387" type="curve" smooth="yes"/>
      <point x="292" y="470"/>
      <point x="336" y="520"/>
      <point x="412" y="520" type="curve" smooth="yes"/>
      <point x="462" y="520"/>
      <point x="496" y="490"/>
      <point x="516" y="443" type="curve"/>
    </contour>
  </outline>
</glyph>
<glyph name="ordfeminine" format="1">
  <advance width="373"/>
  <unicode hex="00AA"/>
  <outline>
    <contour>
      <point x="106" y="733"/>
      <point x="36" y="677"/>
      <point x="49" y="614" type="curve"/>
      <point x="132" y="614" type="line"/>
      <point x="128" y="622"/>
      <point x="132" y="676"/>
      <point x="193" y="676" type="curve" smooth="yes"/>
      <point x="233" y="676"/>
      <point x="250" y="664"/>
      <point x="256" y="640" type="curve"/>
      <point x="262" y="612"/>
      <point x="232" y="588"/>
      <point x="164" y="581" type="curve" smooth="yes"/>
      <point x="56" y="570"/>
      <point x="20" y="530"/>
      <point x="20" y="478" type="curve" smooth="yes"/>
      <point x="20" y="415"/>
      <point x="66" y="373"/>
      <point x="150" y="373" type="curve" smooth="yes"/>
      <point x="203" y="373"/>
      <point x="238" y="396"/>
      <point x="260" y="427" type="curve"/>
      <point x="260" y="381" type="line"/>
      <point x="334" y="381" type="line"/>
      <point x="334" y="597" type="line" smooth="yes"/>
      <point x="334" y="653"/>
      <point x="322" y="733"/>
      <point x="190" y="733" type="curve" smooth="yes"/>
    </contour>
    <contour>
      <point x="111" y="426"/>
      <point x="98" y="458"/>
      <point x="98" y="481" type="curve" smooth="yes"/>
      <point x="98" y="511"/>
      <point x="127" y="529"/>
      <point x="167" y="534" type="curve" smooth="yes"/>
      <point x="203" y="538"/>
      <point x="236" y="548"/>
      <point x="260" y="565" type="curve"/>
      <point x="260" y="538" type="line" smooth="yes"/>
      <point x="260" y="458"/>
      <point x="212" y="426"/>
      <point x="160" y="426" type="curve" smooth="yes"/>
    </contour>
  </outline>
</glyph>
<glyph name="guillemotleft" format="1">
  <advance width="527"/>
  <unicode hex="00AB"/>
  <outline>
    <contour>
      <point x="149" y="267" type="line"/>
      <point x="273" y="437" type="line"/>
      <point x="206" y="481" type="line"/>
      <point x="40" y="267" type="line"/>
      <point x="206" y="52" type="line"/>
      <point x="273" y="97" type="line"/>
    </contour>
    <contour>
      <point x="365" y="267" type="line"/>
      <point x="478" y="421" type="line"/>
      <point x="417" y="461" type="line"/>
      <point x="266" y="267" type="line"/>
      <point x="417" y="71" type="line"/>
      <point x="478" y="112" type="line"/>
    </contour>
  </outline>
</glyph>
<glyph name="registered" format="1">
  <advance width="808"/>
  <unicode hex="00AE"/>
  <outline>
    <contour>
      <point x="173" y="775"/>
      <point x="20" y="598"/>
      <point x="20" y="383" type="curve" smooth="yes"/>
      <point x="20" y="169"/>
      <point x="174" y="-5"/>
      <point x="404" y="-5" type="curve" smooth="yes"/>
      <point x="635" y="-5"/>
      <point x="788" y="169"/>
      <point x="788" y="383" type="curve" smooth="yes"/>
      <point x="788" y="598"/>
      <point x="635" y="775"/>
      <point x="404" y="775" type="curve" smooth="yes"/>
    </contour>
    <contour>
      <point x="227" y="74"/>
      <point x="112" y="204"/>
      <point x="112" y="383" type="curve" smooth="yes"/>
      <point x="112" y="564"/>
      <point x="228" y="696"/>
      <point x="404" y="696" type="curve" smooth="yes"/>
      <point x="581" y="696"/>
      <point x="696" y="564"/>
      <point x="696" y="383" type="curve" smooth="yes"/>
      <point x="696" y="204"/>
      <point x="581" y="74"/>
      <point x="404" y="74" type="curve" smooth="yes"/>
    </contour>
    <contour>
      <point x="515" y="569"/>
      <point x="453" y="591"/>
      <point x="397" y="591" type="curve" smooth="yes"/>
      <point x="272" y="591" type="line"/>
      <point x="272" y="196" type="line"/>
      <point x="333" y="196" type="line"/>
      <point x="333" y="382" type="line"/>
      <point x="393" y="383" type="line" smooth="yes"/>
      <point x="393" y="383"/>
      <point x="394" y="383"/>
      <point x="395" y="383" type="curve"/>
      <point x="518" y="196" type="line"/>
      <point x="590" y="196" type="line"/>
      <point x="459" y="395" type="line"/>
      <point x="491" y="410"/>
      <point x="515" y="438"/>
      <point x="515" y="491" type="curve" smooth="yes"/>
    </contour>
    <contour>
      <point x="333" y="433" type="line"/>
      <point x="333" y="536" type="line"/>
      <point x="355" y="536"/>
      <point x="382" y="536"/>
      <point x="397" y="536" type="curve" smooth="yes"/>
      <point x="430" y="536"/>
      <point x="454" y="519"/>
      <point x="454" y="485" type="curve" smooth="yes"/>
      <point x="454" y="452"/>
      <point x="431" y="433"/>
      <point x="395" y="433" type="curve" smooth="yes"/>
    </contour>
  </outline>
</glyph>
<glyph name="macron" format="1">
  <advance width="600"/>
  <unicode hex="00AF"/>
  <outline>
    <contour>
      <point x="38" y="640" type="line"/>
      <point x="572" y="640" type="line"/>
      <point x="572" y="748" type="line"/>
      <point x="38" y="748" type="line"/>
    </contour>
  </outline>
</glyph>
<glyph name="plusminus" format="1">
  <advance width="600"/>
  <unicode hex="00B1"/>
  <outline>
    <contour>
      <point x="545" y="463" type="line"/>
      <point x="350" y="463" type="line"/>
      <point x="350" y="657" type="line"/>
      <point x="250" y="657" type="line"/>
      <point x="250" y="463" type="line"/>
      <point x="54" y="463" type="line"/>
      <point x="54" y="363" type="line"/>
      <point x="250" y="363" type="line"/>
      <point x="250" y="170" type="line"/>
      <point x="350" y="170" type="line"/>
      <point x="350" y="363" type="line"/>
      <point x="545" y="363" type="line"/>
    </contour>
    <contour>
      <point x="54" y="100" type="line"/>
      <point x="54" y="0" type="line"/>
      <point x="545" y="0" type="line"/>
      <point x="545" y="100" type="line"/>
    </contour>
  </outline>
</glyph>
<glyph name="acute" format="1">
  <advance width="600"/>
  <unicode hex="00B4"/>
  <outline>
    <contour>
      <point x="403" y="663" type="line"/>
      <point x="342" y="764" type="line"/>
      <point x="158" y="592" type="line"/>
      <point x="246" y="565" type="line"/>
    </contour>
  </outline>
</glyph>
<glyph name="paragraph" format="1">
  <advance width="691"/>
  <unicode hex="00B6"/>
  <outline>
    <contour>
      <point x="448" y="-200" type="line"/>
      <point x="448" y="700" type="line"/>
      <point x="280" y="700" type="line" smooth="yes"/>
      <point x="198" y="700"/>
      <point x="100" y="660"/>
      <point x="100" y="537" type="curve" smooth="yes"/>
      <point x="100" y="412"/>
      <point x="194" y="374"/>
      <point x="285" y="374" type="curve" smooth="yes"/>
      <point x="359" y="374" type="line"/>
      <point x="359" y="-200" type="line"/>
    </contour>
    <contour>
      <point x="621" y="-200" type="line"/>
      <point x="621" y="700" type="line"/>
      <point x="531" y="700" type="line"/>
      <point x="531" y="-200" type="line"/>
    </contour>
  </outline>
</glyph>
<glyph name="periodcentered" format="1">
  <advance width="600"/>
  <unicode hex="00B7"/>
  <outline>
    <contour>
      <point x="234" y="223" type="line"/>
      <point x="366" y="223" type="line"/>
      <point x="366" y="355" type="line"/>
      <point x="234" y="355" type="line"/>
    </contour>
  </outline>
</glyph>
<glyph name="onesuperior" format="1">
  <advance width="318"/>
  <unicode hex="00B9"/>
  <outline>
    <contour>
      <point x="248" y="861" type="line"/>
      <point x="142" y="861" type="line"/>
      <point x="149" y="820"/>
      <point x="116" y="786"/>
      <point x="50" y="801" type="curve"/>
      <point x="50" y="729" type="line"/>
      <point x="143" y="729" type="line"/>
      <point x="143" y="406" type="line"/>
      <point x="248" y="406" type="line"/>
    </contour>
  </outline>
</glyph>
<glyph name="ordmasculine" format="1">
  <advance width="380"/>
  <unicode hex="00BA"/>
  <outline>
    <contour>
      <point x="298" y="369"/>
      <point x="368" y="447"/>
      <point x="368" y="547" type="curve" smooth="yes"/>
      <point x="368" y="648"/>
      <point x="298" y="729"/>
      <point x="197" y="729" type="curve" smooth="yes"/>
      <point x="96" y="729"/>
      <point x="27" y="648"/>
      <point x="27" y="547" type="curve" smooth="yes"/>
      <point x="27" y="447"/>
      <point x="96" y="369"/>
      <point x="197" y="369" type="curve" smooth="yes"/>
    </contour>
    <contour>
      <point x="139" y="430"/>
      <point x="100" y="479"/>
      <point x="100" y="547" type="curve" smooth="yes"/>
      <point x="100" y="616"/>
      <point x="139" y="665"/>
      <point x="197" y="665" type="curve" smooth="yes"/>
      <point x="255" y="665"/>
      <point x="294" y="616"/>
      <point x="294" y="547" type="curve" smooth="yes"/>
      <point x="294" y="479"/>
      <point x="255" y="430"/>
      <point x="197" y="430" type="curve" smooth="yes"/>
    </contour>
  </outline>
</glyph>
<glyph name="guillemotright" format="1">
  <advance width="526"/>
  <unicode hex="00BB"/>
  <outline>
    <contour>
      <point x="486" y="267" type="line"/>
      <point x="320" y="481" type="line"/>
      <point x="253" y="437" type="line"/>
      <point x="377" y="267" type="line"/>
      <point x="253" y="97" type="line"/>
      <point x="320" y="52" type="line"/>
    </contour>
    <contour>
      <point x="260" y="267" type="line"/>
      <point x="109" y="461" type="line"/>
      <point x="48" y="421" type="line"/>
      <point x="161" y="267" type="line"/>
      <point x="48" y="112" type="line"/>
      <point x="109" y="71" type="line"/>
    </contour>
  </outline>
</glyph>
<glyph name="onequarter" format="1">
  <advance width="851"/>
  <unicode hex="00BC"/>
  <outline>
    <contour>
      <point x="143" y="729" type="line"/>
      <point x="143" y="406" type="line"/>
      <point x="248" y="406" type="line"/>
      <point x="248" y="861" type="line"/>
      <point x="142" y="861" type="line"/>
      <point x="149" y="820"/>
      <point x="116" y="786"/>
      <point x="50" y="801" type="curve"/>
      <point x="50" y="729" type="line"/>
    </contour>
    <contour>
      <point x="744" y="749" type="line"/>
      <point x="626" y="749" type="line"/>
      <point x="48" y="0" type="line"/>
      <point x="166" y="0" type="line"/>
    </contour>
    <contour>
      <point x="636" y="169" type="line"/>
      <point x="538" y="169" type="line"/>
      <point x="636" y="289" type="line"/>
      <point x="636" y="417" type="line"/>
      <point x="652" y="455" type="line"/>
      <point x="413" y="160" type="line"/>
      <point x="412" y="89" type="line"/>
      <point x="636" y="89" type="line"/>
    </contour>
    <contour>
      <point x="727" y="400" type="line"/>
      <point x="636" y="289" type="line"/>
      <point x="636" y="169" type="line"/>
      <point x="741" y="169" type="line"/>
      <point x="741" y="455" type="line"/>
      <point x="652" y="455" type="line"/>
    </contour>
    <contour>
      <point x="811" y="89" type="line"/>
      <point x="811" y="169" type="line"/>
      <point x="741" y="169" type="line"/>
      <point x="741" y="89" type="line"/>
    </contour>
    <contour>
      <point x="636" y="89" type="line"/>
      <point x="636" y="0" type="line"/>
      <point x="741" y="0" type="line"/>
      <point x="741" y="89" type="line"/>
    </contour>
  </outline>
</glyph>
<glyph name="onehalf" format="1">
  <advance width="882"/>
  <unicode hex="00BD"/>
  <outline>
    <contour>
      <point x="143" y="729" type="line"/>
      <point x="143" y="406" type="line"/>
      <point x="248" y="406" type="line"/>
      <point x="248" y="861" type="line"/>
      <point x="142" y="861" type="line"/>
      <point x="149" y="820"/>
      <point x="116" y="786"/>
      <point x="50" y="801" type="curve"/>
      <point x="50" y="729" type="line"/>
    </contour>
    <contour>
      <point x="744" y="749" type="line"/>
      <point x="626" y="749" type="line"/>
      <point x="48" y="0" type="line"/>
      <point x="166" y="0" type="line"/>
    </contour>
    <contour>
      <point x="842" y="88" type="line"/>
      <point x="650" y="88" type="line"/>
      <point x="706" y="136"/>
      <point x="833" y="200"/>
      <point x="831" y="335" type="curve" smooth="yes"/>
      <point x="830" y="396"/>
      <point x="788" y="465"/>
      <point x="675" y="465" type="curve" smooth="yes"/>
      <point x="574" y="465"/>
      <point x="508" y="399"/>
      <point x="523" y="327" type="curve"/>
      <point x="628" y="337" type="line"/>
      <point x="625" y="369"/>
      <point x="635" y="388"/>
      <point x="675" y="388" type="curve" smooth="yes"/>
      <point x="714" y="388"/>
      <point x="726" y="358"/>
      <point x="726" y="328" type="curve" smooth="yes"/>
      <point x="724" y="207"/>
      <point x="547" y="142"/>
      <point x="509" y="70" type="curve"/>
      <point x="508" y="2" type="line"/>
      <point x="842" y="2" type="line"/>
    </contour>
  </outline>
</glyph>
<glyph name="threequarters" format="1">
  <advance width="851"/>
  <unicode hex="00BE"/>
  <outline>
    <contour>
      <point x="277" y="400"/>
      <point x="361" y="458"/>
      <point x="361" y="550" type="curve" smooth="yes"/>
      <point x="361" y="623"/>
      <point x="311" y="673"/>
      <point x="249" y="687" type="curve"/>
      <point x="353" y="793" type="line"/>
      <point x="353" y="861" type="line"/>
      <point x="42" y="861" type="line"/>
      <point x="42" y="784" type="line"/>
      <point x="216" y="784" type="line"/>
      <point x="108" y="668" type="line"/>
      <point x="153" y="615" type="line"/>
      <point x="175" y="620"/>
      <point x="184" y="623"/>
      <point x="197" y="623" type="curve" smooth="yes"/>
      <point x="231" y="623"/>
      <point x="256" y="600"/>
      <point x="256" y="550" type="curve" smooth="yes"/>
      <point x="256" y="500"/>
      <point x="226" y="476"/>
      <point x="191" y="476" type="curve" smooth="yes"/>
      <point x="146" y="476"/>
      <point x="122" y="497"/>
      <point x="125" y="560" type="curve"/>
      <point x="20" y="560" type="line"/>
      <point x="15" y="456"/>
      <point x="95" y="400"/>
      <point x="191" y="400" type="curve" smooth="yes"/>
    </contour>
    <contour>
      <point x="744" y="749" type="line"/>
      <point x="626" y="749" type="line"/>
      <point x="48" y="0" type="line"/>
      <point x="166" y="0" type="line"/>
    </contour>
    <contour>
      <point x="811" y="89" type="line"/>
      <point x="811" y="169" type="line"/>
      <point x="741" y="169" type="line"/>
      <point x="741" y="455" type="line"/>
      <point x="652" y="455" type="line"/>
      <point x="413" y="160" type="line"/>
      <point x="412" y="89" type="line"/>
      <point x="636" y="89" type="line"/>
      <point x="636" y="0" type="line"/>
      <point x="741" y="0" type="line"/>
      <point x="741" y="89" type="line"/>
    </contour>
    <contour>
      <point x="636" y="169" type="line"/>
      <point x="538" y="169" type="line"/>
      <point x="636" y="289" type="line"/>
    </contour>
  </outline>
</glyph>
<glyph name="questiondown" format="1">
  <advance width="501"/>
  <unicode hex="00BF"/>
  <outline>
    <contour>
      <point x="292" y="506" type="line"/>
      <point x="160" y="506" type="line"/>
      <point x="160" y="374" type="line"/>
      <point x="292" y="374" type="line"/>
    </contour>
    <contour>
      <point x="168" y="-125"/>
      <point x="132" y="-95"/>
      <point x="132" y="-51" type="curve" smooth="yes"/>
      <point x="132" y="-10"/>
      <point x="172" y="-2"/>
      <point x="245" y="28" type="curve" smooth="yes"/>
      <point x="295" y="49"/>
      <point x="379" y="85"/>
      <point x="379" y="175" type="curve" smooth="yes"/>
      <point x="379" y="268"/>
      <point x="301" y="312"/>
      <point x="227" y="312" type="curve" smooth="yes"/>
      <point x="156" y="312"/>
      <point x="109" y="278"/>
      <point x="81" y="199" type="curve"/>
      <point x="170" y="171" type="line"/>
      <point x="169" y="206"/>
      <point x="196" y="225"/>
      <point x="222" y="225" type="curve" smooth="yes"/>
      <point x="253" y="225"/>
      <point x="272" y="205"/>
      <point x="272" y="175" type="curve" smooth="yes"/>
      <point x="272" y="138"/>
      <point x="246" y="121"/>
      <point x="215" y="107" type="curve" smooth="yes"/>
      <point x="157" y="80"/>
      <point x="28" y="56"/>
      <point x="28" y="-53" type="curve" smooth="yes"/>
      <point x="28" y="-137"/>
      <point x="94" y="-215"/>
      <point x="227" y="-215" type="curve" smooth="yes"/>
      <point x="322" y="-215"/>
      <point x="417" y="-162"/>
      <point x="443" y="-73" type="curve"/>
      <point x="359" y="-11" type="line"/>
      <point x="349" y="-71"/>
      <point x="304" y="-125"/>
      <point x="227" y="-125" type="curve" smooth="yes"/>
    </contour>
  </outline>
</glyph>
<glyph name="Aacute" format="1">
  <advance width="756"/>
  <unicode hex="00C1"/>
  <outline>
    <contour>
      <point x="343" y="766" type="line"/>
      <point x="500" y="864" type="line"/>
      <point x="439" y="965" type="line"/>
      <point x="255" y="793" type="line"/>
    </contour>
    <contour>
      <point x="533" y="186" type="line"/>
      <point x="608" y="0" type="line"/>
      <point x="726" y="0" type="line"/>
      <point x="442" y="700" type="line"/>
      <point x="314" y="700" type="line"/>
      <point x="30" y="0" type="line"/>
      <point x="148" y="0" type="line"/>
      <point x="223" y="186" type="line"/>
    </contour>
    <contour>
      <point x="495" y="280" type="line"/>
      <point x="261" y="280" type="line"/>
      <point x="378" y="571" type="line"/>
    </contour>
  </outline>
</glyph>
<glyph name="Atilde" format="1">
  <advance width="756"/>
  <unicode hex="00C3"/>
  <outline>
    <contour>
      <point x="323" y="788" type="line"/>
      <point x="270" y="826"/>
      <point x="248" y="897"/>
      <point x="271" y="897" type="curve" smooth="yes"/>
      <point x="297" y="897"/>
      <point x="340" y="847"/>
      <point x="379" y="819" type="curve" smooth="yes"/>
      <point x="403" y="801"/>
      <point x="432" y="788"/>
      <point x="468" y="788" type="curve" smooth="yes"/>
      <point x="563" y="788"/>
      <point x="594" y="906"/>
      <point x="520" y="948" type="curve"/>
      <point x="425" y="948" type="line"/>
      <point x="478" y="910"/>
      <point x="500" y="849"/>
      <point x="477" y="849" type="curve" smooth="yes"/>
      <point x="452" y="849"/>
      <point x="409" y="889"/>
      <point x="386" y="906" type="curve" smooth="yes"/>
      <point x="342" y="937"/>
      <point x="321" y="948"/>
      <point x="280" y="948" type="curve" smooth="yes"/>
      <point x="186" y="948"/>
      <point x="161" y="843"/>
      <point x="223" y="788" type="curve"/>
    </contour>
    <contour>
      <point x="533" y="186" type="line"/>
      <point x="608" y="0" type="line"/>
      <point x="726" y="0" type="line"/>
      <point x="442" y="700" type="line"/>
      <point x="314" y="700" type="line"/>
      <point x="30" y="0" type="line"/>
      <point x="148" y="0" type="line"/>
      <point x="223" y="186" type="line"/>
    </contour>
    <contour>
      <point x="495" y="280" type="line"/>
      <point x="261" y="280" type="line"/>
      <point x="378" y="571" type="line"/>
    </contour>
  </outline>
</glyph>
<glyph name="Aring" format="1">
  <advance width="756"/>
  <unicode hex="00C5"/>
  <outline>
    <contour>
      <point x="449" y="755"/>
      <point x="506" y="812"/>
      <point x="506" y="883" type="curve" smooth="yes"/>
      <point x="506" y="954"/>
      <point x="449" y="1011"/>
      <point x="378" y="1011" type="curve" smooth="yes"/>
      <point x="307" y="1011"/>
      <point x="250" y="954"/>
      <point x="250" y="883" type="curve" smooth="yes"/>
      <point x="250" y="812"/>
      <point x="307" y="755"/>
      <point x="378" y="755" type="curve" smooth="yes"/>
    </contour>
    <contour>
      <point x="416" y="951"/>
      <point x="446" y="921"/>
      <point x="446" y="883" type="curve" smooth="yes"/>
      <point x="446" y="845"/>
      <point x="416" y="815"/>
      <point x="378" y="815" type="curve" smooth="yes"/>
      <point x="340" y="815"/>
      <point x="310" y="845"/>
      <point x="310" y="883" type="curve" smooth="yes"/>
      <point x="310" y="921"/>
      <point x="340" y="951"/>
      <point x="378" y="951" type="curve" smooth="yes"/>
    </contour>
    <contour>
      <point x="533" y="186" type="line"/>
      <point x="608" y="0" type="line"/>
      <point x="726" y="0" type="line"/>
      <point x="442" y="700" type="line"/>
      <point x="314" y="700" type="line"/>
      <point x="30" y="0" type="line"/>
      <point x="148" y="0" type="line"/>
      <point x="223" y="186" type="line"/>
    </contour>
    <contour>
      <point x="495" y="280" type="line"/>
      <point x="261" y="280" type="line"/>
      <point x="378" y="571" type="line"/>
    </contour>
  </outline>
</glyph>
<glyph name="AE" format="1">
  <advance width="1070"/>
  <unicode hex="00C6"/>
  <outline>
    <contour>
      <point x="1032" y="108" type="line"/>
      <point x="595" y="108" type="line"/>
      <point x="595" y="304" type="line"/>
      <point x="1012" y="304" type="line"/>
      <point x="1012" y="412" type="line"/>
      <point x="595" y="412" type="line"/>
      <point x="595" y="592" type="line"/>
      <point x="1022" y="592" type="line"/>
      <point x="1022" y="700" type="line"/>
      <point x="422" y="700" type="line"/>
      <point x="24" y="0" type="line"/>
      <point x="152" y="0" type="line"/>
      <point x="283" y="232" type="line"/>
      <point x="487" y="232" type="line"/>
      <point x="487" y="0" type="line"/>
      <point x="1032" y="0" type="line"/>
    </contour>
    <contour>
      <point x="487" y="326" type="line"/>
      <point x="336" y="326" type="line"/>
      <point x="487" y="592" type="line"/>
    </contour>
  </outline>
</glyph>
<glyph name="Ccedilla" format="1">
  <advance width="723"/>
  <unicode hex="00C7"/>
  <outline>
    <contour>
      <point x="263" y="93"/>
      <point x="168" y="200"/>
      <point x="168" y="348" type="curve" smooth="yes"/>
      <point x="168" y="498"/>
      <point x="264" y="607"/>
      <point x="399" y="607" type="curve" smooth="yes"/>
      <point x="480" y="607"/>
      <point x="551" y="569"/>
      <point x="592" y="501" type="curve"/>
      <point x="693" y="552" type="line"/>
      <point x="633" y="646"/>
      <point x="530" y="705"/>
      <point x="399" y="705" type="curve" smooth="yes"/>
      <point x="189" y="705"/>
      <point x="50" y="544"/>
      <point x="50" y="348" type="curve" smooth="yes"/>
      <point x="50" y="174"/>
      <point x="162" y="29"/>
      <point x="335" y="0" type="curve"/>
      <point x="294" y="-90" type="line"/>
      <point x="357" y="-90" type="line"/>
      <point x="362" y="-83"/>
      <point x="375" y="-73"/>
      <point x="397" y="-73" type="curve" smooth="yes"/>
      <point x="418" y="-73"/>
      <point x="429" y="-87"/>
      <point x="424" y="-110" type="curve" smooth="yes"/>
      <point x="419" y="-137"/>
      <point x="389" y="-151"/>
      <point x="358" y="-151" type="curve" smooth="yes"/>
      <point x="335" y="-151"/>
      <point x="290" y="-140"/>
      <point x="278" y="-130" type="curve"/>
      <point x="278" y="-196" type="line"/>
      <point x="285" y="-200"/>
      <point x="319" y="-208"/>
      <point x="346" y="-208" type="curve" smooth="yes"/>
      <point x="401" y="-208"/>
      <point x="472" y="-181"/>
      <point x="487" y="-112" type="curve" smooth="yes"/>
      <point x="496" y="-69"/>
      <point x="470" y="-31"/>
      <point x="405" y="-31" type="curve" smooth="yes"/>
      <point x="398" y="-31"/>
      <point x="390" y="-32"/>
      <point x="382" y="-34" type="curve"/>
      <point x="395" y="-5" type="line"/>
      <point x="396" y="-5"/>
      <point x="398" y="-5"/>
      <point x="399" y="-5" type="curve" smooth="yes"/>
      <point x="529" y="-5"/>
      <point x="632" y="52"/>
      <point x="691" y="144" type="curve"/>
      <point x="589" y="193" type="line"/>
      <point x="548" y="129"/>
      <point x="478" y="93"/>
      <point x="399" y="93" type="curve" smooth="yes"/>
    </contour>
  </outline>
</glyph>
<glyph name="Egrave" format="1">
  <advance width="633"/>
  <unicode hex="00C8"/>
  <outline>
    <contour>
      <point x="348" y="766" type="line"/>
      <point x="436" y="793" type="line"/>
      <point x="252" y="965" type="line"/>
      <point x="191" y="864" type="line"/>
    </contour>
    <contour>
      <point x="595" y="108" type="line"/>
      <point x="158" y="108" type="line"/>
      <point x="158" y="304" type="line"/>
      <point x="575" y="304" type="line"/>
      <point x="575" y="412" type="line"/>
      <point x="158" y="412" type="line"/>
      <point x="158" y="592" type="line"/>
      <point x="585" y="592" type="line"/>
      <point x="585" y="700" type="line"/>
      <point x="50" y="700" type="line"/>
      <point x="50" y="0" type="line"/>
      <point x="595" y="0" type="line"/>
    </contour>
  </outline>
</glyph>
<glyph name="Eacute" format="1">
  <advance width="633"/>
  <unicode hex="00C9"/>
  <outline>
    <contour>
      <point x="282" y="766" type="line"/>
      <point x="439" y="864" type="line"/>
      <point x="378" y="965" type="line"/>
      <point x="194" y="793" type="line"/>
    </contour>
    <contour>
      <point x="595" y="108" type="line"/>
      <point x="158" y="108" type="line"/>
      <point x="158" y="304" type="line"/>
      <point x="575" y="304" type="line"/>
      <point x="575" y="412" type="line"/>
      <point x="158" y="412" type="line"/>
      <point x="158" y="592" type="line"/>
      <point x="585" y="592" type="line"/>
      <point x="585" y="700" type="line"/>
      <point x="50" y="700" type="line"/>
      <point x="50" y="0" type="line"/>
      <point x="595" y="0" type="line"/>
    </contour>
  </outline>
</glyph>
<glyph name="Ecircumflex" format="1">
  <advance width="633"/>
  <unicode hex="00CA"/>
  <outline>
    <contour>
      <point x="222" y="779" type="line"/>
      <point x="318" y="869" type="line"/>
      <point x="414" y="779" type="line"/>
      <point x="502" y="806" type="line"/>
      <point x="318" y="968" type="line"/>
      <point x="134" y="806" type="line"/>
    </contour>
    <contour>
      <point x="595" y="108" type="line"/>
      <point x="158" y="108" type="line"/>
      <point x="158" y="304" type="line"/>
      <point x="575" y="304" type="line"/>
      <point x="575" y="412" type="line"/>
      <point x="158" y="412" type="line"/>
      <point x="158" y="592" type="line"/>
      <point x="585" y="592" type="line"/>
      <point x="585" y="700" type="line"/>
      <point x="50" y="700" type="line"/>
      <point x="50" y="0" type="line"/>
      <point x="595" y="0" type="line"/>
    </contour>
  </outline>
</glyph>
<glyph name="Edieresis" format="1">
  <advance width="633"/>
  <unicode hex="00CB"/>
  <outline>
    <contour>
      <point x="247" y="783" type="line"/>
      <point x="247" y="891" type="line"/>
      <point x="139" y="891" type="line"/>
      <point x="139" y="783" type="line"/>
    </contour>
    <contour>
      <point x="495" y="783" type="line"/>
      <point x="495" y="891" type="line"/>
      <point x="387" y="891" type="line"/>
      <point x="387" y="783" type="line"/>
    </contour>
    <contour>
      <point x="595" y="108" type="line"/>
      <point x="158" y="108" type="line"/>
      <point x="158" y="304" type="line"/>
      <point x="575" y="304" type="line"/>
      <point x="575" y="412" type="line"/>
      <point x="158" y="412" type="line"/>
      <point x="158" y="592" type="line"/>
      <point x="585" y="592" type="line"/>
      <point x="585" y="700" type="line"/>
      <point x="50" y="700" type="line"/>
      <point x="50" y="0" type="line"/>
      <point x="595" y="0" type="line"/>
    </contour>
  </outline>
</glyph>
<glyph name="Igrave" format="1">
  <advance width="248"/>
  <unicode hex="00CC"/>
  <outline>
    <contour>
      <point x="243" y="793" type="line"/>
      <point x="59" y="965" type="line"/>
      <point x="-2" y="864" type="line"/>
      <point x="155" y="766" type="line"/>
    </contour>
    <contour>
      <point x="70" y="0" type="line"/>
      <point x="178" y="0" type="line"/>
      <point x="178" y="700" type="line"/>
      <point x="70" y="700" type="line"/>
    </contour>
  </outline>
</glyph>
<glyph name="Iacute" format="1">
  <advance width="248"/>
  <unicode hex="00CD"/>
  <outline>
    <contour>
      <point x="246" y="864" type="line"/>
      <point x="185" y="965" type="line"/>
      <point x="1" y="793" type="line"/>
      <point x="89" y="766" type="line"/>
    </contour>
    <contour>
      <point x="70" y="0" type="line"/>
      <point x="178" y="0" type="line"/>
      <point x="178" y="700" type="line"/>
      <point x="70" y="700" type="line"/>
    </contour>
  </outline>
</glyph>
<glyph name="Icircumflex" format="1">
  <advance width="248"/>
  <unicode hex="00CE"/>
  <outline>
    <contour>
      <point x="309" y="806" type="line"/>
      <point x="125" y="968" type="line"/>
      <point x="-59" y="806" type="line"/>
      <point x="29" y="779" type="line"/>
      <point x="125" y="869" type="line"/>
      <point x="221" y="779" type="line"/>
    </contour>
    <contour>
      <point x="70" y="700" type="line"/>
      <point x="70" y="0" type="line"/>
      <point x="178" y="0" type="line"/>
      <point x="178" y="700" type="line"/>
    </contour>
  </outline>
</glyph>
<glyph name="Idieresis" format="1">
  <advance width="248"/>
  <unicode hex="00CF"/>
  <outline>
    <contour>
      <point x="-54" y="783" type="line"/>
      <point x="54" y="783" type="line"/>
      <point x="54" y="891" type="line"/>
      <point x="-54" y="891" type="line"/>
    </contour>
    <contour>
      <point x="194" y="783" type="line"/>
      <point x="302" y="783" type="line"/>
      <point x="302" y="891" type="line"/>
      <point x="194" y="891" type="line"/>
    </contour>
    <contour>
      <point x="70" y="0" type="line"/>
      <point x="178" y="0" type="line"/>
      <point x="178" y="700" type="line"/>
      <point x="70" y="700" type="line"/>
    </contour>
  </outline>
</glyph>
<glyph name="Eth" format="1">
  <advance width="777"/>
  <unicode hex="00D0"/>
  <outline>
    <contour>
      <point x="186" y="700" type="line"/>
      <point x="186" y="358" type="line"/>
      <point x="32" y="358" type="line"/>
      <point x="32" y="258" type="line"/>
      <point x="186" y="258" type="line"/>
      <point x="186" y="0" type="line"/>
      <point x="382" y="0" type="line" smooth="yes"/>
      <point x="585" y="0"/>
      <point x="747" y="105"/>
      <point x="747" y="351" type="curve" smooth="yes"/>
      <point x="747" y="602"/>
      <point x="564" y="700"/>
      <point x="366" y="700" type="curve" smooth="yes"/>
    </contour>
    <contour>
      <point x="294" y="98" type="line"/>
      <point x="294" y="258" type="line"/>
      <point x="453" y="258" type="line"/>
      <point x="453" y="358" type="line"/>
      <point x="294" y="358" type="line"/>
      <point x="294" y="602" type="line"/>
      <point x="366" y="602" type="line" smooth="yes"/>
      <point x="519" y="602"/>
      <point x="634" y="537"/>
      <point x="634" y="351" type="curve" smooth="yes"/>
      <point x="634" y="169"/>
      <point x="538" y="98"/>
      <point x="382" y="98" type="curve" smooth="yes"/>
    </contour>
  </outline>
</glyph>
<glyph name="Ntilde" format="1">
  <advance width="625"/>
  <unicode hex="00D1"/>
  <outline>
    <contour>
      <point x="263" y="788" type="line"/>
      <point x="210" y="826"/>
      <point x="188" y="897"/>
      <point x="211" y="897" type="curve" smooth="yes"/>
      <point x="237" y="897"/>
      <point x="280" y="847"/>
      <point x="319" y="819" type="curve" smooth="yes"/>
      <point x="343" y="801"/>
      <point x="372" y="788"/>
      <point x="408" y="788" type="curve" smooth="yes"/>
      <point x="503" y="788"/>
      <point x="534" y="906"/>
      <point x="460" y="948" type="curve"/>
      <point x="365" y="948" type="line"/>
      <point x="418" y="910"/>
      <point x="440" y="849"/>
      <point x="417" y="849" type="curve" smooth="yes"/>
      <point x="392" y="849"/>
      <point x="349" y="889"/>
      <point x="326" y="906" type="curve" smooth="yes"/>
      <point x="282" y="937"/>
      <point x="261" y="948"/>
      <point x="220" y="948" type="curve" smooth="yes"/>
      <point x="126" y="948"/>
      <point x="101" y="843"/>
      <point x="163" y="788" type="curve"/>
    </contour>
    <contour>
      <point x="585" y="700" type="line"/>
      <point x="477" y="700" type="line"/>
      <point x="477" y="191" type="line"/>
      <point x="158" y="700" type="line"/>
      <point x="50" y="700" type="line"/>
      <point x="50" y="0" type="line"/>
      <point x="158" y="0" type="line"/>
      <point x="158" y="498" type="line"/>
      <point x="472" y="0" type="line"/>
      <point x="585" y="0" type="line"/>
    </contour>
  </outline>
</glyph>
<glyph name="Oacute" format="1">
  <advance width="798"/>
  <unicode hex="00D3"/>
  <outline>
    <contour>
      <point x="521" y="864" type="line"/>
      <point x="460" y="965" type="line"/>
      <point x="276" y="793" type="line"/>
      <point x="364" y="766" type="line"/>
    </contour>
    <contour>
      <point x="609" y="-5"/>
      <point x="748" y="154"/>
      <point x="748" y="348" type="curve" smooth="yes"/>
      <point x="748" y="544"/>
      <point x="609" y="705"/>
      <point x="399" y="705" type="curve" smooth="yes"/>
      <point x="189" y="705"/>
      <point x="50" y="544"/>
      <point x="50" y="348" type="curve" smooth="yes"/>
      <point x="50" y="154"/>
      <point x="190" y="-5"/>
      <point x="399" y="-5" type="curve" smooth="yes"/>
    </contour>
    <contour>
      <point x="253" y="93"/>
      <point x="158" y="200"/>
      <point x="158" y="348" type="curve" smooth="yes"/>
      <point x="158" y="498"/>
      <point x="254" y="607"/>
      <point x="399" y="607" type="curve" smooth="yes"/>
      <point x="545" y="607"/>
      <point x="640" y="498"/>
      <point x="640" y="348" type="curve" smooth="yes"/>
      <point x="640" y="200"/>
      <point x="545" y="93"/>
      <point x="399" y="93" type="curve" smooth="yes"/>
    </contour>
  </outline>
</glyph>
<glyph name="Ocircumflex" format="1">
  <advance width="798"/>
  <unicode hex="00D4"/>
  <outline>
    <contour>
      <point x="304" y="779" type="line"/>
      <point x="400" y="869" type="line"/>
      <point x="496" y="779" type="line"/>
      <point x="584" y="806" type="line"/>
      <point x="400" y="968" type="line"/>
      <point x="216" y="806" type="line"/>
    </contour>
    <contour>
      <point x="189" y="705"/>
      <point x="50" y="544"/>
      <point x="50" y="348" type="curve" smooth="yes"/>
      <point x="50" y="154"/>
      <point x="190" y="-5"/>
      <point x="399" y="-5" type="curve" smooth="yes"/>
      <point x="609" y="-5"/>
      <point x="748" y="154"/>
      <point x="748" y="348" type="curve" smooth="yes"/>
      <point x="748" y="544"/>
      <point x="609" y="705"/>
      <point x="399" y="705" type="curve" smooth="yes"/>
    </contour>
    <contour>
      <point x="253" y="93"/>
      <point x="158" y="200"/>
      <point x="158" y="348" type="curve" smooth="yes"/>
      <point x="158" y="498"/>
      <point x="254" y="607"/>
      <point x="399" y="607" type="curve" smooth="yes"/>
      <point x="545" y="607"/>
      <point x="640" y="498"/>
      <point x="640" y="348" type="curve" smooth="yes"/>
      <point x="640" y="200"/>
      <point x="545" y="93"/>
      <point x="399" y="93" type="curve" smooth="yes"/>
    </contour>
  </outline>
</glyph>
<glyph name="Otilde" format="1">
  <advance width="798"/>
  <unicode hex="00D5"/>
  <outline>
    <contour>
      <point x="446" y="948" type="line"/>
      <point x="499" y="910"/>
      <point x="521" y="849"/>
      <point x="498" y="849" type="curve" smooth="yes"/>
      <point x="473" y="849"/>
      <point x="430" y="889"/>
      <point x="407" y="906" type="curve" smooth="yes"/>
      <point x="363" y="937"/>
      <point x="342" y="948"/>
      <point x="301" y="948" type="curve" smooth="yes"/>
      <point x="207" y="948"/>
      <point x="182" y="843"/>
      <point x="244" y="788" type="curve"/>
      <point x="344" y="788" type="line"/>
      <point x="291" y="826"/>
      <point x="269" y="897"/>
      <point x="292" y="897" type="curve" smooth="yes"/>
      <point x="318" y="897"/>
      <point x="361" y="847"/>
      <point x="400" y="819" type="curve" smooth="yes"/>
      <point x="424" y="801"/>
      <point x="453" y="788"/>
      <point x="489" y="788" type="curve" smooth="yes"/>
      <point x="584" y="788"/>
      <point x="615" y="906"/>
      <point x="541" y="948" type="curve"/>
    </contour>
    <contour>
      <point x="609" y="-5"/>
      <point x="748" y="154"/>
      <point x="748" y="348" type="curve" smooth="yes"/>
      <point x="748" y="544"/>
      <point x="609" y="705"/>
      <point x="399" y="705" type="curve" smooth="yes"/>
      <point x="189" y="705"/>
      <point x="50" y="544"/>
      <point x="50" y="348" type="curve" smooth="yes"/>
      <point x="50" y="154"/>
      <point x="190" y="-5"/>
      <point x="399" y="-5" type="curve" smooth="yes"/>
    </contour>
    <contour>
      <point x="253" y="93"/>
      <point x="158" y="200"/>
      <point x="158" y="348" type="curve" smooth="yes"/>
      <point x="158" y="498"/>
      <point x="254" y="607"/>
      <point x="399" y="607" type="curve" smooth="yes"/>
      <point x="545" y="607"/>
      <point x="640" y="498"/>
      <point x="640" y="348" type="curve" smooth="yes"/>
      <point x="640" y="200"/>
      <point x="545" y="93"/>
      <point x="399" y="93" type="curve" smooth="yes"/>
    </contour>
  </outline>
</glyph>
<glyph name="multiply" format="1">
  <advance width="600"/>
  <unicode hex="00D7"/>
  <outline>
    <contour>
      <point x="518" y="5" type="line"/>
      <point x="590" y="74" type="line"/>
      <point x="380" y="283" type="line"/>
      <point x="589" y="492" type="line"/>
      <point x="520" y="563" type="line"/>
      <point x="310" y="353" type="line"/>
      <point x="100" y="563" type="line"/>
      <point x="30" y="492" type="line"/>
      <point x="240" y="283" type="line"/>
      <point x="31" y="74" type="line"/>
      <point x="100" y="3" type="line"/>
      <point x="310" y="213" type="line"/>
    </contour>
  </outline>
</glyph>
<glyph name="Oslash" format="1">
  <advance width="798"/>
  <unicode hex="00D8"/>
  <outline>
    <contour>
      <point x="569" y="777" type="line"/>
      <point x="464" y="777" type="line"/>
      <point x="442" y="703" type="line"/>
      <point x="428" y="704"/>
      <point x="414" y="705"/>
      <point x="399" y="705" type="curve" smooth="yes"/>
      <point x="189" y="705"/>
      <point x="50" y="544"/>
      <point x="50" y="348" type="curve" smooth="yes"/>
      <point x="50" y="208"/>
      <point x="123" y="86"/>
      <point x="242" y="29" type="curve"/>
      <point x="214" y="-66" type="line"/>
      <point x="319" y="-66" type="line"/>
      <point x="338" y="-0" type="line"/>
      <point x="358" y="-3"/>
      <point x="378" y="-5"/>
      <point x="399" y="-5" type="curve" smooth="yes"/>
      <point x="609" y="-5"/>
      <point x="748" y="154"/>
      <point x="748" y="348" type="curve" smooth="yes"/>
      <point x="748" y="496"/>
      <point x="669" y="624"/>
      <point x="540" y="678" type="curve"/>
    </contour>
    <contour>
      <point x="158" y="498"/>
      <point x="254" y="607"/>
      <point x="399" y="607" type="curve" smooth="yes"/>
      <point x="404" y="607"/>
      <point x="409" y="607"/>
      <point x="413" y="607" type="curve"/>
      <point x="271" y="127" type="line"/>
      <point x="200" y="169"/>
      <point x="158" y="250"/>
      <point x="158" y="348" type="curve" smooth="yes"/>
    </contour>
    <contour>
      <point x="388" y="93"/>
      <point x="377" y="94"/>
      <point x="367" y="95" type="curve"/>
      <point x="511" y="582" type="line"/>
      <point x="592" y="541"/>
      <point x="640" y="455"/>
      <point x="640" y="348" type="curve" smooth="yes"/>
      <point x="640" y="200"/>
      <point x="545" y="93"/>
      <point x="399" y="93" type="curve" smooth="yes"/>
    </contour>
  </outline>
</glyph>
<glyph name="Ugrave" format="1">
  <advance width="652"/>
  <unicode hex="00D9"/>
  <outline>
    <contour>
      <point x="430" y="793" type="line"/>
      <point x="246" y="965" type="line"/>
      <point x="185" y="864" type="line"/>
      <point x="342" y="766" type="line"/>
    </contour>
    <contour>
      <point x="571" y="700" type="line"/>
      <point x="463" y="700" type="line"/>
      <point x="463" y="225" type="line" smooth="yes"/>
      <point x="463" y="124"/>
      <point x="402" y="83"/>
      <point x="311" y="83" type="curve" smooth="yes"/>
      <point x="220" y="83"/>
      <point x="159" y="124"/>
      <point x="159" y="225" type="curve" smooth="yes"/>
      <point x="159" y="700" type="line"/>
      <point x="51" y="700" type="line"/>
      <point x="50" y="225" type="line" smooth="yes"/>
      <point x="50" y="64"/>
      <point x="162" y="-12"/>
      <point x="311" y="-12" type="curve" smooth="yes"/>
      <point x="460" y="-12"/>
      <point x="572" y="64"/>
      <point x="572" y="225" type="curve"/>
    </contour>
  </outline>
</glyph>
<glyph name="Uacute" format="1">
  <advance width="652"/>
  <unicode hex="00DA"/>
  <outline>
    <contour>
      <point x="433" y="864" type="line"/>
      <point x="372" y="965" type="line"/>
      <point x="188" y="793" type="line"/>
      <point x="276" y="766" type="line"/>
    </contour>
    <contour>
      <point x="571" y="700" type="line"/>
      <point x="463" y="700" type="line"/>
      <point x="463" y="225" type="line" smooth="yes"/>
      <point x="463" y="124"/>
      <point x="402" y="83"/>
      <point x="311" y="83" type="curve" smooth="yes"/>
      <point x="220" y="83"/>
      <point x="159" y="124"/>
      <point x="159" y="225" type="curve" smooth="yes"/>
      <point x="159" y="700" type="line"/>
      <point x="51" y="700" type="line"/>
      <point x="50" y="225" type="line" smooth="yes"/>
      <point x="50" y="64"/>
      <point x="162" y="-12"/>
      <point x="311" y="-12" type="curve" smooth="yes"/>
      <point x="460" y="-12"/>
      <point x="572" y="64"/>
      <point x="572" y="225" type="curve"/>
    </contour>
  </outline>
</glyph>
<glyph name="Ucircumflex" format="1">
  <advance width="652"/>
  <unicode hex="00DB"/>
  <outline>
    <contour>
      <point x="216" y="779" type="line"/>
      <point x="312" y="869" type="line"/>
      <point x="408" y="779" type="line"/>
      <point x="496" y="806" type="line"/>
      <point x="312" y="968" type="line"/>
      <point x="128" y="806" type="line"/>
    </contour>
    <contour>
      <point x="571" y="700" type="line"/>
      <point x="463" y="700" type="line"/>
      <point x="463" y="225" type="line" smooth="yes"/>
      <point x="463" y="124"/>
      <point x="402" y="83"/>
      <point x="311" y="83" type="curve" smooth="yes"/>
      <point x="220" y="83"/>
      <point x="159" y="124"/>
      <point x="159" y="225" type="curve" smooth="yes"/>
      <point x="159" y="700" type="line"/>
      <point x="51" y="700" type="line"/>
      <point x="50" y="225" type="line" smooth="yes"/>
      <point x="50" y="64"/>
      <point x="162" y="-12"/>
      <point x="311" y="-12" type="curve" smooth="yes"/>
      <point x="460" y="-12"/>
      <point x="572" y="64"/>
      <point x="572" y="225" type="curve"/>
    </contour>
  </outline>
</glyph>
<glyph name="Udieresis" format="1">
  <advance width="652"/>
  <unicode hex="00DC"/>
  <outline>
    <contour>
      <point x="133" y="783" type="line"/>
      <point x="241" y="783" type="line"/>
      <point x="241" y="891" type="line"/>
      <point x="133" y="891" type="line"/>
    </contour>
    <contour>
      <point x="381" y="783" type="line"/>
      <point x="489" y="783" type="line"/>
      <point x="489" y="891" type="line"/>
      <point x="381" y="891" type="line"/>
    </contour>
    <contour>
      <point x="571" y="700" type="line"/>
      <point x="463" y="700" type="line"/>
      <point x="463" y="225" type="line" smooth="yes"/>
      <point x="463" y="124"/>
      <point x="402" y="83"/>
      <point x="311" y="83" type="curve" smooth="yes"/>
      <point x="220" y="83"/>
      <point x="159" y="124"/>
      <point x="159" y="225" type="curve" smooth="yes"/>
      <point x="159" y="700" type="line"/>
      <point x="51" y="700" type="line"/>
      <point x="50" y="225" type="line" smooth="yes"/>
      <point x="50" y="64"/>
      <point x="162" y="-12"/>
      <point x="311" y="-12" type="curve" smooth="yes"/>
      <point x="460" y="-12"/>
      <point x="572" y="64"/>
      <point x="572" y="225" type="curve"/>
    </contour>
  </outline>
</glyph>
<glyph name="Yacute" format="1">
  <advance width="585"/>
  <unicode hex="00DD"/>
  <outline>
    <contour>
      <point x="258" y="766" type="line"/>
      <point x="415" y="864" type="line"/>
      <point x="354" y="965" type="line"/>
      <point x="170" y="793" type="line"/>
    </contour>
    <contour>
      <point x="572" y="700" type="line"/>
      <point x="459" y="700" type="line"/>
      <point x="292" y="410" type="line"/>
      <point x="126" y="700" type="line"/>
      <point x="13" y="700" type="line"/>
      <point x="238" y="307" type="line"/>
      <point x="238" y="0" type="line"/>
      <point x="346" y="0" type="line"/>
      <point x="346" y="307" type="line"/>
    </contour>
  </outline>
</glyph>
<glyph name="Thorn" format="1">
  <advance width="531"/>
  <unicode hex="00DE"/>
  <outline>
    <contour>
      <point x="158" y="597" type="line"/>
      <point x="158" y="700" type="line"/>
      <point x="50" y="700" type="line"/>
      <point x="50" y="0" type="line"/>
      <point x="158" y="0" type="line"/>
      <point x="158" y="199" type="line"/>
      <point x="288" y="199" type="line" smooth="yes"/>
      <point x="398" y="199"/>
      <point x="511" y="249"/>
      <point x="511" y="400" type="curve" smooth="yes"/>
      <point x="511" y="549"/>
      <point x="393" y="597"/>
      <point x="294" y="597" type="curve" smooth="yes"/>
    </contour>
    <contour>
      <point x="158" y="298" type="line"/>
      <point x="158" y="499" type="line"/>
      <point x="291" y="499" type="line" smooth="yes"/>
      <point x="360" y="499"/>
      <point x="403" y="469"/>
      <point x="403" y="400" type="curve" smooth="yes"/>
      <point x="403" y="331"/>
      <point x="361" y="298"/>
      <point x="288" y="298" type="curve" smooth="yes"/>
    </contour>
  </outline>
</glyph>
<glyph name="agrave" format="1">
  <advance width="516"/>
  <unicode hex="00E0"/>
  <outline>
    <contour>
      <point x="289" y="566" type="line"/>
      <point x="377" y="593" type="line"/>
      <point x="193" y="765" type="line"/>
      <point x="132" y="664" type="line"/>
    </contour>
    <contour>
      <point x="145" y="510"/>
      <point x="43" y="429"/>
      <point x="63" y="338" type="curve"/>
      <point x="182" y="337" type="line"/>
      <point x="177" y="349"/>
      <point x="182" y="427"/>
      <point x="271" y="427" type="curve" smooth="yes"/>
      <point x="329" y="427"/>
      <point x="353" y="411"/>
      <point x="363" y="375" type="curve"/>
      <point x="372" y="335"/>
      <point x="327" y="300"/>
      <point x="229" y="290" type="curve" smooth="yes"/>
      <point x="73" y="274"/>
      <point x="20" y="216"/>
      <point x="20" y="140" type="curve" smooth="yes"/>
      <point x="20" y="49"/>
      <point x="87" y="-12"/>
      <point x="209" y="-12" type="curve" smooth="yes"/>
      <point x="285" y="-12"/>
      <point x="337" y="21"/>
      <point x="368" y="67" type="curve"/>
      <point x="368" y="-0" type="line"/>
      <point x="476" y="-0" type="line"/>
      <point x="476" y="313" type="line" smooth="yes"/>
      <point x="476" y="394"/>
      <point x="458" y="510"/>
      <point x="267" y="510" type="curve" smooth="yes"/>
    </contour>
    <contour>
      <point x="152" y="65"/>
      <point x="133" y="112"/>
      <point x="133" y="145" type="curve" smooth="yes"/>
      <point x="133" y="188"/>
      <point x="175" y="215"/>
      <point x="234" y="222" type="curve" smooth="yes"/>
      <point x="286" y="228"/>
      <point x="334" y="242"/>
      <point x="368" y="267" type="curve"/>
      <point x="368" y="228" type="line" smooth="yes"/>
      <point x="368" y="112"/>
      <point x="299" y="65"/>
      <point x="223" y="65" type="curve" smooth="yes"/>
    </contour>
  </outline>
</glyph>
<glyph name="ae" format="1">
  <advance width="918"/>
  <unicode hex="00E6"/>
  <outline>
    <contour>
      <point x="804" y="163" type="line"/>
      <point x="780" y="120"/>
      <point x="741" y="79"/>
      <point x="658" y="79" type="curve" smooth="yes"/>
      <point x="584" y="79"/>
      <point x="519" y="125"/>
      <point x="508" y="224" type="curve"/>
      <point x="880" y="224" type="line"/>
      <point x="917" y="399"/>
      <point x="821" y="511"/>
      <point x="652" y="511" type="curve" smooth="yes"/>
      <point x="571" y="511"/>
      <point x="499" y="482"/>
      <point x="452" y="428" type="curve"/>
      <point x="426" y="474"/>
      <point x="373" y="510"/>
      <point x="267" y="510" type="curve" smooth="yes"/>
      <point x="145" y="510"/>
      <point x="43" y="429"/>
      <point x="63" y="338" type="curve"/>
      <point x="182" y="337" type="line"/>
      <point x="177" y="349"/>
      <point x="182" y="427"/>
      <point x="271" y="427" type="curve" smooth="yes"/>
      <point x="329" y="427"/>
      <point x="353" y="411"/>
      <point x="363" y="375" type="curve"/>
      <point x="372" y="335"/>
      <point x="327" y="300"/>
      <point x="229" y="290" type="curve" smooth="yes"/>
      <point x="73" y="274"/>
      <point x="20" y="216"/>
      <point x="20" y="140" type="curve" smooth="yes"/>
      <point x="20" y="49"/>
      <point x="87" y="-12"/>
      <point x="209" y="-12" type="curve" smooth="yes"/>
      <point x="285" y="-12"/>
      <point x="337" y="21"/>
      <point x="368" y="67" type="curve"/>
      <point x="368" y="-0" type="line"/>
      <point x="476" y="-0" type="line"/>
      <point x="476" y="50" type="line"/>
      <point x="525" y="8"/>
      <point x="590" y="-12"/>
      <point x="658" y="-12" type="curve" smooth="yes"/>
      <point x="777" y="-12"/>
      <point x="857" y="34"/>
      <point x="903" y="116" type="curve"/>
    </contour>
    <contour>
      <point x="747" y="422"/>
      <point x="785" y="358"/>
      <point x="775" y="299" type="curve"/>
      <point x="510" y="299" type="line"/>
      <point x="524" y="374"/>
      <point x="575" y="422"/>
      <point x="652" y="422" type="curve" smooth="yes"/>
    </contour>
    <contour>
      <point x="152" y="65"/>
      <point x="133" y="112"/>
      <point x="133" y="145" type="curve" smooth="yes"/>
      <point x="133" y="188"/>
      <point x="175" y="215"/>
      <point x="234" y="222" type="curve" smooth="yes"/>
      <point x="286" y="228"/>
      <point x="334" y="242"/>
      <point x="368" y="267" type="curve"/>
      <point x="368" y="228" type="line" smooth="yes"/>
      <point x="368" y="112"/>
      <point x="299" y="65"/>
      <point x="223" y="65" type="curve" smooth="yes"/>
    </contour>
  </outline>
</glyph>
<glyph name="ccedilla" format="1">
  <advance width="549"/>
  <unicode hex="00E7"/>
  <outline>
    <contour>
      <point x="431" y="191" type="line"/>
      <point x="411" y="132"/>
      <point x="378" y="79"/>
      <point x="287" y="79" type="curve" smooth="yes"/>
      <point x="206" y="79"/>
      <point x="135" y="134"/>
      <point x="135" y="245" type="curve" smooth="yes"/>
      <point x="135" y="355"/>
      <point x="193" y="422"/>
      <point x="294" y="422" type="curve" smooth="yes"/>
      <point x="361" y="422"/>
      <point x="406" y="382"/>
      <point x="433" y="320" type="curve"/>
      <point x="525" y="371" type="line"/>
      <point x="494" y="459"/>
      <point x="413" y="511"/>
      <point x="294" y="511" type="curve" smooth="yes"/>
      <point x="138" y="511"/>
      <point x="20" y="417"/>
      <point x="20" y="245" type="curve" smooth="yes"/>
      <point x="20" y="93"/>
      <point x="121" y="9"/>
      <point x="240" y="-9" type="curve"/>
      <point x="203" y="-90" type="line"/>
      <point x="266" y="-90" type="line"/>
      <point x="271" y="-83"/>
      <point x="284" y="-73"/>
      <point x="306" y="-73" type="curve" smooth="yes"/>
      <point x="327" y="-73"/>
      <point x="338" y="-87"/>
      <point x="333" y="-110" type="curve" smooth="yes"/>
      <point x="328" y="-137"/>
      <point x="298" y="-151"/>
      <point x="267" y="-151" type="curve" smooth="yes"/>
      <point x="244" y="-151"/>
      <point x="199" y="-140"/>
      <point x="187" y="-130" type="curve"/>
      <point x="187" y="-196" type="line"/>
      <point x="194" y="-200"/>
      <point x="228" y="-208"/>
      <point x="255" y="-208" type="curve" smooth="yes"/>
      <point x="310" y="-208"/>
      <point x="381" y="-181"/>
      <point x="396" y="-112" type="curve" smooth="yes"/>
      <point x="405" y="-69"/>
      <point x="379" y="-31"/>
      <point x="314" y="-31" type="curve" smooth="yes"/>
      <point x="306" y="-31"/>
      <point x="299" y="-32"/>
      <point x="291" y="-34" type="curve"/>
      <point x="301" y="-12" type="line"/>
      <point x="418" y="-7"/>
      <point x="498" y="51"/>
      <point x="529" y="150" type="curve"/>
    </contour>
  </outline>
</glyph>
<glyph name="ecircumflex" format="1">
  <advance width="607"/>
  <unicode hex="00EA"/>
  <outline>
    <contour>
      <point x="194" y="579" type="line"/>
      <point x="290" y="669" type="line"/>
      <point x="386" y="579" type="line"/>
      <point x="474" y="606" type="line"/>
      <point x="290" y="768" type="line"/>
      <point x="106" y="606" type="line"/>
    </contour>
    <contour>
      <point x="443" y="163" type="line"/>
      <point x="419" y="120"/>
      <point x="380" y="79"/>
      <point x="297" y="79" type="curve" smooth="yes"/>
      <point x="223" y="79"/>
      <point x="158" y="125"/>
      <point x="147" y="224" type="curve"/>
      <point x="519" y="224" type="line"/>
      <point x="556" y="399"/>
      <point x="460" y="511"/>
      <point x="291" y="511" type="curve" smooth="yes"/>
      <point x="145" y="511"/>
      <point x="30" y="417"/>
      <point x="30" y="255" type="curve" smooth="yes"/>
      <point x="30" y="74"/>
      <point x="158" y="-12"/>
      <point x="297" y="-12" type="curve" smooth="yes"/>
      <point x="416" y="-12"/>
      <point x="496" y="34"/>
      <point x="542" y="116" type="curve"/>
    </contour>
    <contour>
      <point x="386" y="422"/>
      <point x="424" y="358"/>
      <point x="414" y="299" type="curve"/>
      <point x="149" y="299" type="line"/>
      <point x="163" y="374"/>
      <point x="214" y="422"/>
      <point x="291" y="422" type="curve" smooth="yes"/>
    </contour>
  </outline>
</glyph>
<glyph name="edieresis" format="1">
  <advance width="607"/>
  <unicode hex="00EB"/>
  <outline>
    <contour>
      <point x="219" y="583" type="line"/>
      <point x="219" y="691" type="line"/>
      <point x="111" y="691" type="line"/>
      <point x="111" y="583" type="line"/>
    </contour>
    <contour>
      <point x="467" y="583" type="line"/>
      <point x="467" y="691" type="line"/>
      <point x="359" y="691" type="line"/>
      <point x="359" y="583" type="line"/>
    </contour>
    <contour>
      <point x="443" y="163" type="line"/>
      <point x="419" y="120"/>
      <point x="380" y="79"/>
      <point x="297" y="79" type="curve" smooth="yes"/>
      <point x="223" y="79"/>
      <point x="158" y="125"/>
      <point x="147" y="224" type="curve"/>
      <point x="519" y="224" type="line"/>
      <point x="556" y="399"/>
      <point x="460" y="511"/>
      <point x="291" y="511" type="curve" smooth="yes"/>
      <point x="145" y="511"/>
      <point x="30" y="417"/>
      <point x="30" y="255" type="curve" smooth="yes"/>
      <point x="30" y="74"/>
      <point x="158" y="-12"/>
      <point x="297" y="-12" type="curve" smooth="yes"/>
      <point x="416" y="-12"/>
      <point x="496" y="34"/>
      <point x="542" y="116" type="curve"/>
    </contour>
    <contour>
      <point x="386" y="422"/>
      <point x="424" y="358"/>
      <point x="414" y="299" type="curve"/>
      <point x="149" y="299" type="line"/>
      <point x="163" y="374"/>
      <point x="214" y="422"/>
      <point x="291" y="422" type="curve" smooth="yes"/>
    </contour>
  </outline>
</glyph>
<glyph name="igrave" format="1">
  <advance width="248"/>
  <unicode hex="00EC"/>
  <outline>
    <contour>
      <point x="243" y="593" type="line"/>
      <point x="59" y="765" type="line"/>
      <point x="-2" y="664" type="line"/>
      <point x="155" y="566" type="line"/>
    </contour>
    <contour>
      <point x="70" y="0" type="line"/>
      <point x="178" y="0" type="line"/>
      <point x="178" y="500" type="line"/>
      <point x="70" y="500" type="line"/>
    </contour>
  </outline>
</glyph>
<glyph name="iacute" format="1">
  <advance width="248"/>
  <unicode hex="00ED"/>
  <outline>
    <contour>
      <point x="246" y="664" type="line"/>
      <point x="185" y="765" type="line"/>
      <point x="1" y="593" type="line"/>
      <point x="89" y="566" type="line"/>
    </contour>
    <contour>
      <point x="70" y="0" type="line"/>
      <point x="178" y="0" type="line"/>
      <point x="178" y="500" type="line"/>
      <point x="70" y="500" type="line"/>
    </contour>
  </outline>
</glyph>
<glyph name="icircumflex" format="1">
  <advance width="248"/>
  <unicode hex="00EE"/>
  <outline>
    <contour>
      <point x="309" y="606" type="line"/>
      <point x="125" y="768" type="line"/>
      <point x="-59" y="606" type="line"/>
      <point x="29" y="579" type="line"/>
      <point x="125" y="669" type="line"/>
      <point x="221" y="579" type="line"/>
    </contour>
    <contour>
      <point x="70" y="500" type="line"/>
      <point x="70" y="0" type="line"/>
      <point x="178" y="0" type="line"/>
      <point x="178" y="500" type="line"/>
    </contour>
  </outline>
</glyph>
<glyph name="idieresis" format="1">
  <advance width="248"/>
  <unicode hex="00EF"/>
  <outline>
    <contour>
      <point x="-54" y="583" type="line"/>
      <point x="54" y="583" type="line"/>
      <point x="54" y="691" type="line"/>
      <point x="-54" y="691" type="line"/>
    </contour>
    <contour>
      <point x="194" y="583" type="line"/>
      <point x="302" y="583" type="line"/>
      <point x="302" y="691" type="line"/>
      <point x="194" y="691" type="line"/>
    </contour>
    <contour>
      <point x="70" y="0" type="line"/>
      <point x="178" y="0" type="line"/>
      <point x="178" y="500" type="line"/>
      <point x="70" y="500" type="line"/>
    </contour>
  </outline>
</glyph>
<glyph name="eth" format="1">
  <advance width="573"/>
  <unicode hex="00F0"/>
  <outline>
    <contour>
      <point x="552" y="494"/>
      <point x="465" y="630"/>
      <point x="322" y="709" type="curve"/>
      <point x="373" y="753" type="line"/>
      <point x="329" y="805" type="line"/>
      <point x="255" y="741" type="line"/>
      <point x="200" y="762"/>
      <point x="139" y="777"/>
      <point x="73" y="783" type="curve"/>
      <point x="73" y="682" type="line"/>
      <point x="106" y="677"/>
      <point x="136" y="671"/>
      <point x="165" y="663" type="curve"/>
      <point x="120" y="624" type="line"/>
      <point x="164" y="573" type="line"/>
      <point x="237" y="636" type="line"/>
      <point x="319" y="599"/>
      <point x="375" y="544"/>
      <point x="409" y="478" type="curve"/>
      <point x="374" y="499"/>
      <point x="334" y="512"/>
      <point x="288" y="512" type="curve" smooth="yes"/>
      <point x="280" y="512"/>
      <point x="271" y="512"/>
      <point x="262" y="511" type="curve" smooth="yes"/>
      <point x="124" y="496"/>
      <point x="39" y="390"/>
      <point x="39" y="258" type="curve" smooth="yes"/>
      <point x="39" y="248"/>
      <point x="40" y="237"/>
      <point x="41" y="226" type="curve" smooth="yes"/>
      <point x="56" y="89"/>
      <point x="152" y="-10"/>
      <point x="286" y="-10" type="curve" smooth="yes"/>
      <point x="296" y="-10"/>
      <point x="306" y="-9"/>
      <point x="316" y="-8" type="curve" smooth="yes"/>
      <point x="442" y="5"/>
      <point x="516" y="105"/>
      <point x="537" y="199" type="curve" smooth="yes"/>
      <point x="538" y="204"/>
      <point x="540" y="210"/>
      <point x="541" y="216" type="curve" smooth="yes"/>
      <point x="549" y="253"/>
      <point x="552" y="289"/>
      <point x="552" y="323" type="curve" smooth="yes"/>
    </contour>
    <contour>
      <point x="301" y="86"/>
      <point x="296" y="86"/>
      <point x="290" y="86" type="curve" smooth="yes"/>
      <point x="208" y="86"/>
      <point x="149" y="160"/>
      <point x="149" y="262" type="curve" smooth="yes"/>
      <point x="149" y="343"/>
      <point x="194" y="409"/>
      <point x="272" y="416" type="curve" smooth="yes"/>
      <point x="334" y="422"/>
      <point x="445" y="388"/>
      <point x="445" y="245" type="curve" smooth="yes"/>
      <point x="445" y="240"/>
      <point x="445" y="234"/>
      <point x="444" y="229" type="curve"/>
      <point x="443" y="222"/>
      <point x="442" y="214"/>
      <point x="441" y="207" type="curve"/>
      <point x="427" y="138"/>
      <point x="374" y="94"/>
      <point x="306" y="87" type="curve"/>
    </contour>
  </outline>
</glyph>
<glyph name="ntilde" format="1">
  <advance width="571"/>
  <unicode hex="00F1"/>
  <outline>
    <contour>
      <point x="225" y="588" type="line"/>
      <point x="172" y="626"/>
      <point x="150" y="697"/>
      <point x="173" y="697" type="curve" smooth="yes"/>
      <point x="199" y="697"/>
      <point x="242" y="647"/>
      <point x="281" y="619" type="curve" smooth="yes"/>
      <point x="305" y="601"/>
      <point x="334" y="588"/>
      <point x="370" y="588" type="curve" smooth="yes"/>
      <point x="465" y="588"/>
      <point x="496" y="706"/>
      <point x="422" y="748" type="curve"/>
      <point x="327" y="748" type="line"/>
      <point x="380" y="710"/>
      <point x="402" y="649"/>
      <point x="379" y="649" type="curve" smooth="yes"/>
      <point x="354" y="649"/>
      <point x="311" y="689"/>
      <point x="288" y="706" type="curve" smooth="yes"/>
      <point x="244" y="737"/>
      <point x="223" y="748"/>
      <point x="182" y="748" type="curve" smooth="yes"/>
      <point x="88" y="748"/>
      <point x="63" y="643"/>
      <point x="125" y="588" type="curve"/>
    </contour>
    <contour>
      <point x="238" y="507"/>
      <point x="183" y="472"/>
      <point x="148" y="419" type="curve"/>
      <point x="148" y="500" type="line"/>
      <point x="40" y="500" type="line"/>
      <point x="40" y="0" type="line"/>
      <point x="148" y="0" type="line"/>
      <point x="148" y="261" type="line"/>
      <point x="157" y="370"/>
      <point x="232" y="415"/>
      <point x="297" y="415" type="curve" smooth="yes"/>
      <point x="380" y="415"/>
      <point x="408" y="364"/>
      <point x="408" y="296" type="curve" smooth="yes"/>
      <point x="408" y="0" type="line"/>
      <point x="516" y="0" type="line"/>
      <point x="516" y="296" type="line" smooth="yes"/>
      <point x="516" y="397"/>
      <point x="476" y="507"/>
      <point x="308" y="507" type="curve" smooth="yes"/>
    </contour>
  </outline>
</glyph>
<glyph name="oacute" format="1">
  <advance width="554"/>
  <unicode hex="00F3"/>
  <outline>
    <contour>
      <point x="399" y="664" type="line"/>
      <point x="338" y="765" type="line"/>
      <point x="154" y="593" type="line"/>
      <point x="242" y="566" type="line"/>
    </contour>
    <contour>
      <point x="423" y="-12"/>
      <point x="524" y="102"/>
      <point x="524" y="247" type="curve" smooth="yes"/>
      <point x="524" y="393"/>
      <point x="423" y="510"/>
      <point x="277" y="510" type="curve" smooth="yes"/>
      <point x="131" y="510"/>
      <point x="30" y="393"/>
      <point x="30" y="247" type="curve" smooth="yes"/>
      <point x="30" y="102"/>
      <point x="131" y="-12"/>
      <point x="277" y="-12" type="curve" smooth="yes"/>
    </contour>
    <contour>
      <point x="193" y="77"/>
      <point x="136" y="148"/>
      <point x="136" y="247" type="curve" smooth="yes"/>
      <point x="136" y="347"/>
      <point x="193" y="418"/>
      <point x="277" y="418" type="curve" smooth="yes"/>
      <point x="361" y="418"/>
      <point x="418" y="347"/>
      <point x="418" y="247" type="curve" smooth="yes"/>
      <point x="418" y="148"/>
      <point x="361" y="77"/>
      <point x="277" y="77" type="curve" smooth="yes"/>
    </contour>
  </outline>
</glyph>
<glyph name="otilde" format="1">
  <advance width="554"/>
  <unicode hex="00F5"/>
  <outline>
    <contour>
      <point x="324" y="748" type="line"/>
      <point x="377" y="710"/>
      <point x="399" y="649"/>
      <point x="376" y="649" type="curve" smooth="yes"/>
      <point x="351" y="649"/>
      <point x="308" y="689"/>
      <point x="285" y="706" type="curve" smooth="yes"/>
      <point x="241" y="737"/>
      <point x="220" y="748"/>
      <point x="179" y="748" type="curve" smooth="yes"/>
      <point x="85" y="748"/>
      <point x="60" y="643"/>
      <point x="122" y="588" type="curve"/>
      <point x="222" y="588" type="line"/>
      <point x="169" y="626"/>
      <point x="147" y="697"/>
      <point x="170" y="697" type="curve" smooth="yes"/>
      <point x="196" y="697"/>
      <point x="239" y="647"/>
      <point x="278" y="619" type="curve" smooth="yes"/>
      <point x="302" y="601"/>
      <point x="331" y="588"/>
      <point x="367" y="588" type="curve" smooth="yes"/>
      <point x="462" y="588"/>
      <point x="493" y="706"/>
      <point x="419" y="748" type="curve"/>
    </contour>
    <contour>
      <point x="423" y="-12"/>
      <point x="524" y="102"/>
      <point x="524" y="247" type="curve" smooth="yes"/>
      <point x="524" y="393"/>
      <point x="423" y="510"/>
      <point x="277" y="510" type="curve" smooth="yes"/>
      <point x="131" y="510"/>
      <point x="30" y="393"/>
      <point x="30" y="247" type="curve" smooth="yes"/>
      <point x="30" y="102"/>
      <point x="131" y="-12"/>
      <point x="277" y="-12" type="curve" smooth="yes"/>
    </contour>
    <contour>
      <point x="193" y="77"/>
      <point x="136" y="148"/>
      <point x="136" y="247" type="curve" smooth="yes"/>
      <point x="136" y="347"/>
      <point x="193" y="418"/>
      <point x="277" y="418" type="curve" smooth="yes"/>
      <point x="361" y="418"/>
      <point x="418" y="347"/>
      <point x="418" y="247" type="curve" smooth="yes"/>
      <point x="418" y="148"/>
      <point x="361" y="77"/>
      <point x="277" y="77" type="curve" smooth="yes"/>
    </contour>
  </outline>
</glyph>
<glyph name="divide" format="1">
  <advance width="600"/>
  <unicode hex="00F7"/>
  <outline>
    <contour>
      <point x="231" y="397" type="line"/>
      <point x="363" y="397" type="line"/>
      <point x="363" y="529" type="line"/>
      <point x="231" y="529" type="line"/>
    </contour>
    <contour>
      <point x="52" y="210" type="line"/>
      <point x="543" y="210" type="line"/>
      <point x="543" y="310" type="line"/>
      <point x="52" y="310" type="line"/>
    </contour>
    <contour>
      <point x="231" y="-2" type="line"/>
      <point x="364" y="-2" type="line"/>
      <point x="364" y="131" type="line"/>
      <point x="231" y="131" type="line"/>
    </contour>
  </outline>
</glyph>
<glyph name="oslash" format="1">
  <advance width="554"/>
  <unicode hex="00F8"/>
  <outline>
    <contour>
      <point x="452" y="687" type="line"/>
      <point x="347" y="687" type="line"/>
      <point x="294" y="509" type="line"/>
      <point x="289" y="510"/>
      <point x="283" y="510"/>
      <point x="277" y="510" type="curve" smooth="yes"/>
      <point x="131" y="510"/>
      <point x="30" y="393"/>
      <point x="30" y="247" type="curve" smooth="yes"/>
      <point x="30" y="150"/>
      <point x="76" y="66"/>
      <point x="150" y="22" type="curve"/>
      <point x="97" y="-156" type="line"/>
      <point x="202" y="-156" type="line"/>
      <point x="245" y="-10" type="line"/>
      <point x="256" y="-11"/>
      <point x="266" y="-12"/>
      <point x="277" y="-12" type="curve" smooth="yes"/>
      <point x="423" y="-12"/>
      <point x="524" y="102"/>
      <point x="524" y="247" type="curve" smooth="yes"/>
      <point x="524" y="351"/>
      <point x="473" y="440"/>
      <point x="391" y="483" type="curve"/>
    </contour>
    <contour>
      <point x="136" y="343"/>
      <point x="189" y="412"/>
      <point x="267" y="418" type="curve"/>
      <point x="179" y="120" type="line"/>
      <point x="152" y="151"/>
      <point x="136" y="195"/>
      <point x="136" y="247" type="curve" smooth="yes"/>
    </contour>
    <contour>
      <point x="275" y="77"/>
      <point x="273" y="77"/>
      <point x="271" y="77" type="curve"/>
      <point x="363" y="387" type="line"/>
      <point x="397" y="357"/>
      <point x="418" y="307"/>
      <point x="418" y="247" type="curve" smooth="yes"/>
      <point x="418" y="148"/>
      <point x="361" y="77"/>
      <point x="277" y="77" type="curve" smooth="yes"/>
    </contour>
  </outline>
</glyph>
<glyph name="ugrave" format="1">
  <advance width="576"/>
  <unicode hex="00F9"/>
  <outline>
    <contour>
      <point x="309" y="566" type="line"/>
      <point x="397" y="593" type="line"/>
      <point x="213" y="765" type="line"/>
      <point x="152" y="664" type="line"/>
    </contour>
    <contour>
      <point x="516" y="500" type="line"/>
      <point x="408" y="500" type="line"/>
      <point x="408" y="262" type="line" smooth="yes"/>
      <point x="408" y="115"/>
      <point x="328" y="85"/>
      <point x="259" y="85" type="curve" smooth="yes"/>
      <point x="176" y="85"/>
      <point x="148" y="136"/>
      <point x="148" y="204" type="curve" smooth="yes"/>
      <point x="148" y="500" type="line"/>
      <point x="40" y="500" type="line"/>
      <point x="40" y="204" type="line" smooth="yes"/>
      <point x="40" y="103"/>
      <point x="80" y="-7"/>
      <point x="248" y="-7" type="curve" smooth="yes"/>
      <point x="316" y="-7"/>
      <point x="373" y="17"/>
      <point x="408" y="64" type="curve"/>
      <point x="408" y="0" type="line"/>
      <point x="516" y="0" type="line"/>
    </contour>
  </outline>
</glyph>
<glyph name="ucircumflex" format="1">
  <advance width="576"/>
  <unicode hex="00FB"/>
  <outline>
    <contour>
      <point x="183" y="579" type="line"/>
      <point x="279" y="669" type="line"/>
      <point x="375" y="579" type="line"/>
      <point x="463" y="606" type="line"/>
      <point x="279" y="768" type="line"/>
      <point x="95" y="606" type="line"/>
    </contour>
    <contour>
      <point x="516" y="500" type="line"/>
      <point x="408" y="500" type="line"/>
      <point x="408" y="262" type="line" smooth="yes"/>
      <point x="408" y="115"/>
      <point x="328" y="85"/>
      <point x="259" y="85" type="curve" smooth="yes"/>
      <point x="176" y="85"/>
      <point x="148" y="136"/>
      <point x="148" y="204" type="curve" smooth="yes"/>
      <point x="148" y="500" type="line"/>
      <point x="40" y="500" type="line"/>
      <point x="40" y="204" type="line" smooth="yes"/>
      <point x="40" y="103"/>
      <point x="80" y="-7"/>
      <point x="248" y="-7" type="curve" smooth="yes"/>
      <point x="316" y="-7"/>
      <point x="373" y="17"/>
      <point x="408" y="64" type="curve"/>
      <point x="408" y="0" type="line"/>
      <point x="516" y="0" type="line"/>
    </contour>
  </outline>
</glyph>
<glyph name="udieresis" format="1">
  <advance width="576"/>
  <unicode hex="00FC"/>
  <outline>
    <contour>
      <point x="208" y="583" type="line"/>
      <point x="208" y="691" type="line"/>
      <point x="100" y="691" type="line"/>
      <point x="100" y="583" type="line"/>
    </contour>
    <contour>
      <point x="456" y="583" type="line"/>
      <point x="456" y="691" type="line"/>
      <point x="348" y="691" type="line"/>
      <point x="348" y="583" type="line"/>
    </contour>
    <contour>
      <point x="516" y="500" type="line"/>
      <point x="408" y="500" type="line"/>
      <point x="408" y="262" type="line" smooth="yes"/>
      <point x="408" y="115"/>
      <point x="328" y="85"/>
      <point x="259" y="85" type="curve" smooth="yes"/>
      <point x="176" y="85"/>
      <point x="148" y="136"/>
      <point x="148" y="204" type="curve" smooth="yes"/>
      <point x="148" y="500" type="line"/>
      <point x="40" y="500" type="line"/>
      <point x="40" y="204" type="line" smooth="yes"/>
      <point x="40" y="103"/>
      <point x="80" y="-7"/>
      <point x="248" y="-7" type="curve" smooth="yes"/>
      <point x="316" y="-7"/>
      <point x="373" y="17"/>
      <point x="408" y="64" type="curve"/>
      <point x="408" y="0" type="line"/>
      <point x="516" y="0" type="line"/>
    </contour>
  </outline>
</glyph>
<glyph name="yacute" format="1">
  <advance width="532"/>
  <unicode hex="00FD"/>
  <outline>
    <contour>
      <point x="231" y="566" type="line"/>
      <point x="388" y="664" type="line"/>
      <point x="327" y="765" type="line"/>
      <point x="143" y="593" type="line"/>
    </contour>
    <contour>
      <point x="522" y="500" type="line"/>
      <point x="409" y="500" type="line"/>
      <point x="284" y="196" type="line"/>
      <point x="139" y="500" type="line"/>
      <point x="15" y="500" type="line"/>
      <point x="230" y="64" type="line"/>
      <point x="122" y="-200" type="line"/>
      <point x="236" y="-200" type="line"/>
    </contour>
  </outline>
</glyph>
<glyph name="ydieresis" format="1">
  <advance width="532"/>
  <unicode hex="00FF"/>
  <outline>
    <contour>
      <point x="196" y="583" type="line"/>
      <point x="196" y="691" type="line"/>
      <point x="88" y="691" type="line"/>
      <point x="88" y="583" type="line"/>
    </contour>
    <contour>
      <point x="444" y="583" type="line"/>
      <point x="444" y="691" type="line"/>
      <point x="336" y="691" type="line"/>
      <point x="336" y="583" type="line"/>
    </contour>
    <contour>
      <point x="522" y="500" type="line"/>
      <point x="409" y="500" type="line"/>
      <point x="284" y="196" type="line"/>
      <point x="139" y="500" type="line"/>
      <point x="15" y="500" type="line"/>
      <point x="230" y="64" type="line"/>
      <point x="122" y="-200" type="line"/>
      <point x="236" y="-200" type="line"/>
    </contour>
  </outline>
</glyph>
<glyph name="dotlessi" format="1">
  <advance width="248"/>
  <unicode hex="0131"/>
  <outline>
    <contour>
      <point x="70" y="0" type="line"/>
      <point x="178" y="0" type="line"/>
      <point x="178" y="500" type="line"/>
      <point x="70" y="500" type="line"/>
    </contour>
  </outline>
</glyph>
<glyph name="Lslash" format="1">
  <advance width="697"/>
  <unicode hex="0141"/>
  <outline>
    <contour>
      <point x="666" y="108" type="line"/>
      <point x="273" y="108" type="line"/>
      <point x="273" y="364" type="line"/>
      <point x="382" y="395" type="line"/>
      <point x="381" y="500" type="line"/>
      <point x="273" y="469" type="line"/>
      <point x="273" y="700" type="line"/>
      <point x="165" y="700" type="line"/>
      <point x="165" y="438" type="line"/>
      <point x="50" y="405" type="line"/>
      <point x="51" y="300" type="line"/>
      <point x="165" y="333" type="line"/>
      <point x="165" y="0" type="line"/>
      <point x="666" y="0" type="line"/>
    </contour>
  </outline>
</glyph>
<glyph name="lslash" format="1">
  <advance width="472"/>
  <unicode hex="0142"/>
  <outline>
    <contour>
      <point x="291" y="363" type="line"/>
      <point x="402" y="395" type="line"/>
      <point x="401" y="500" type="line"/>
      <point x="291" y="468" type="line"/>
      <point x="291" y="700" type="line"/>
      <point x="183" y="700" type="line"/>
      <point x="183" y="437" type="line"/>
      <point x="70" y="405" type="line"/>
      <point x="71" y="300" type="line"/>
      <point x="183" y="332" type="line"/>
      <point x="183" y="0" type="line"/>
      <point x="291" y="0" type="line"/>
    </contour>
  </outline>
</glyph>
<glyph name="OE" format="1">
  <advance width="1154"/>
  <unicode hex="0152"/>
  <outline>
    <contour>
      <point x="1116" y="108" type="line"/>
      <point x="679" y="108" type="line"/>
      <point x="679" y="304" type="line"/>
      <point x="1096" y="304" type="line"/>
      <point x="1096" y="412" type="line"/>
      <point x="679" y="412" type="line"/>
      <point x="679" y="592" type="line"/>
      <point x="1106" y="592" type="line"/>
      <point x="1106" y="700" type="line"/>
      <point x="571" y="700" type="line"/>
      <point x="571" y="651" type="line"/>
      <point x="518" y="685"/>
      <point x="452" y="705"/>
      <point x="379" y="705" type="curve" smooth="yes"/>
      <point x="169" y="705"/>
      <point x="30" y="544"/>
      <point x="30" y="348" type="curve" smooth="yes"/>
      <point x="30" y="154"/>
      <point x="170" y="-5"/>
      <point x="379" y="-5" type="curve" smooth="yes"/>
      <point x="453" y="-5"/>
      <point x="518" y="14"/>
      <point x="571" y="48" type="curve"/>
      <point x="571" y="-0" type="line"/>
      <point x="1116" y="-0" type="line"/>
    </contour>
    <contour>
      <point x="233" y="93"/>
      <point x="138" y="200"/>
      <point x="138" y="348" type="curve" smooth="yes"/>
      <point x="138" y="498"/>
      <point x="234" y="607"/>
      <point x="379" y="607" type="curve" smooth="yes"/>
      <point x="462" y="607"/>
      <point x="529" y="571"/>
      <point x="571" y="513" type="curve"/>
      <point x="571" y="185" type="line"/>
      <point x="529" y="128"/>
      <point x="462" y="93"/>
      <point x="379" y="93" type="curve" smooth="yes"/>
    </contour>
    <contour>
      <point x="601" y="457" type="line"/>
      <point x="606" y="442"/>
      <point x="611" y="428"/>
      <point x="614" y="412" type="curve"/>
      <point x="604" y="412" type="line"/>
      <point x="604" y="304" type="line"/>
      <point x="617" y="304" type="line"/>
      <point x="613" y="277"/>
      <point x="606" y="251"/>
      <point x="596" y="228" type="curve"/>
    </contour>
  </outline>
</glyph>
<glyph name="oe" format="1">
  <advance width="953"/>
  <unicode hex="0153"/>
  <outline>
    <contour>
      <point x="839" y="163" type="line"/>
      <point x="815" y="120"/>
      <point x="776" y="79"/>
      <point x="693" y="79" type="curve" smooth="yes"/>
      <point x="619" y="79"/>
      <point x="554" y="125"/>
      <point x="543" y="224" type="curve"/>
      <point x="915" y="224" type="line"/>
      <point x="952" y="399"/>
      <point x="856" y="511"/>
      <point x="687" y="511" type="curve" smooth="yes"/>
      <point x="598" y="511"/>
      <point x="520" y="476"/>
      <point x="473" y="411" type="curve"/>
      <point x="429" y="472"/>
      <point x="361" y="510"/>
      <point x="277" y="510" type="curve" smooth="yes"/>
      <point x="131" y="510"/>
      <point x="30" y="393"/>
      <point x="30" y="247" type="curve" smooth="yes"/>
      <point x="30" y="102"/>
      <point x="131" y="-12"/>
      <point x="277" y="-12" type="curve" smooth="yes"/>
      <point x="362" y="-12"/>
      <point x="432" y="27"/>
      <point x="476" y="88" type="curve"/>
      <point x="526" y="21"/>
      <point x="607" y="-12"/>
      <point x="693" y="-12" type="curve" smooth="yes"/>
      <point x="812" y="-12"/>
      <point x="892" y="34"/>
      <point x="938" y="116" type="curve"/>
    </contour>
    <contour>
      <point x="782" y="422"/>
      <point x="820" y="358"/>
      <point x="810" y="299" type="curve"/>
      <point x="545" y="299" type="line"/>
      <point x="559" y="374"/>
      <point x="610" y="422"/>
      <point x="687" y="422" type="curve" smooth="yes"/>
    </contour>
    <contour>
      <point x="193" y="77"/>
      <point x="136" y="148"/>
      <point x="136" y="247" type="curve" smooth="yes"/>
      <point x="136" y="347"/>
      <point x="193" y="418"/>
      <point x="277" y="418" type="curve" smooth="yes"/>
      <point x="361" y="418"/>
      <point x="418" y="347"/>
      <point x="418" y="247" type="curve" smooth="yes"/>
      <point x="418" y="148"/>
      <point x="361" y="77"/>
      <point x="277" y="77" type="curve" smooth="yes"/>
    </contour>
  </outline>
</glyph>
<glyph name="Zcaron" format="1">
  <advance width="555"/>
  <unicode hex="017D"/>
  <outline>
    <contour>
      <point x="279" y="759" type="line"/>
      <point x="463" y="921" type="line"/>
      <point x="375" y="948" type="line"/>
      <point x="279" y="858" type="line"/>
      <point x="183" y="948" type="line"/>
      <point x="95" y="921" type="line"/>
    </contour>
    <contour>
      <point x="545" y="592" type="line"/>
      <point x="545" y="700" type="line"/>
      <point x="33" y="700" type="line"/>
      <point x="33" y="592" type="line"/>
      <point x="404" y="592" type="line"/>
      <point x="10" y="108" type="line"/>
      <point x="10" y="0" type="line"/>
      <point x="541" y="0" type="line"/>
      <point x="541" y="108" type="line"/>
      <point x="150" y="108" type="line"/>
    </contour>
  </outline>
</glyph>
<glyph name="zcaron" format="1">
  <advance width="489"/>
  <unicode hex="017E"/>
  <outline>
    <contour>
      <point x="246" y="559" type="line"/>
      <point x="430" y="721" type="line"/>
      <point x="342" y="748" type="line"/>
      <point x="246" y="658" type="line"/>
      <point x="150" y="748" type="line"/>
      <point x="62" y="721" type="line"/>
    </contour>
    <contour>
      <point x="469" y="100" type="line"/>
      <point x="158" y="100" type="line"/>
      <point x="451" y="400" type="line"/>
      <point x="451" y="500" type="line"/>
      <point x="35" y="500" type="line"/>
      <point x="35" y="400" type="line"/>
      <point x="313" y="400" type="line"/>
      <point x="20" y="100" type="line"/>
      <point x="20" y="0" type="line"/>
      <point x="469" y="0" type="line"/>
    </contour>
  </outline>
</glyph>
<glyph name="florin" format="1">
  <advance width="583"/>
  <unicode hex="0192"/>
  <outline>
    <contour>
      <point x="215" y="723"/>
      <point x="186" y="584"/>
      <point x="170" y="526" type="curve" smooth="yes"/>
      <point x="142" y="419" type="line"/>
      <point x="24" y="419" type="line"/>
      <point x="24" y="319" type="line"/>
      <point x="116" y="319" type="line"/>
      <point x="-10" y="-160" type="line"/>
      <point x="98" y="-160" type="line"/>
      <point x="224" y="319" type="line"/>
      <point x="394" y="319" type="line"/>
      <point x="394" y="419" type="line"/>
      <point x="250" y="419" type="line"/>
      <point x="278" y="526" type="line" smooth="yes"/>
      <point x="291" y="576"/>
      <point x="314" y="635"/>
      <point x="383" y="635" type="curve" smooth="yes"/>
      <point x="432" y="635"/>
      <point x="469" y="593"/>
      <point x="475" y="571" type="curve"/>
      <point x="563" y="634" type="line"/>
      <point x="536" y="671"/>
      <point x="490" y="723"/>
      <point x="383" y="723" type="curve" smooth="yes"/>
    </contour>
  </outline>
</glyph>
<glyph name="circumflex" format="1">
  <advance width="600"/>
  <unicode hex="02C6"/>
  <outline>
    <contour>
      <point x="385" y="578" type="line"/>
      <point x="473" y="605" type="line"/>
      <point x="289" y="767" type="line"/>
      <point x="105" y="605" type="line"/>
      <point x="193" y="578" type="line"/>
      <point x="289" y="668" type="line"/>
    </contour>
  </outline>
</glyph>
<glyph name="caron" format="1">
  <advance width="600"/>
  <unicode hex="02C7"/>
  <outline>
    <contour>
      <point x="473" y="723" type="line"/>
      <point x="385" y="750" type="line"/>
      <point x="289" y="660" type="line"/>
      <point x="193" y="750" type="line"/>
      <point x="105" y="723" type="line"/>
      <point x="289" y="561" type="line"/>
    </contour>
  </outline>
</glyph>
<glyph name="breve" format="1">
  <advance width="600"/>
  <unicode hex="02D8"/>
  <outline>
    <contour>
      <point x="402" y="717" type="line"/>
      <point x="364" y="634"/>
      <point x="326" y="622"/>
      <point x="288" y="620" type="curve"/>
      <point x="250" y="622"/>
      <point x="212" y="634"/>
      <point x="174" y="717" type="curve"/>
      <point x="85" y="718" type="line"/>
      <point x="153" y="565"/>
      <point x="220" y="531"/>
      <point x="288" y="529" type="curve"/>
      <point x="356" y="531"/>
      <point x="423" y="565"/>
      <point x="491" y="718" type="curve"/>
    </contour>
  </outline>
</glyph>
<glyph name="dotaccent" format="1">
  <advance width="248"/>
  <unicode hex="02D9"/>
  <outline>
    <contour>
      <point x="70" y="592" type="line"/>
      <point x="178" y="592" type="line"/>
      <point x="178" y="700" type="line"/>
      <point x="70" y="700" type="line"/>
    </contour>
  </outline>
</glyph>
<glyph name="ogonek" format="1">
  <advance width="600"/>
  <unicode hex="02DB"/>
  <outline>
    <contour>
      <point x="255" y="0" type="line"/>
      <point x="232" y="-28"/>
      <point x="221" y="-55"/>
      <point x="221" y="-86" type="curve" smooth="yes"/>
      <point x="221" y="-169"/>
      <point x="300" y="-205"/>
      <point x="367" y="-205" type="curve" smooth="yes"/>
      <point x="399" y="-205"/>
      <point x="441" y="-195"/>
      <point x="449" y="-190" type="curve"/>
      <point x="449" y="-111" type="line"/>
      <point x="435" y="-122"/>
      <point x="395" y="-136"/>
      <point x="367" y="-136" type="curve" smooth="yes"/>
      <point x="329" y="-136"/>
      <point x="297" y="-116"/>
      <point x="297" y="-83" type="curve" smooth="yes"/>
      <point x="297" y="-53"/>
      <point x="312" y="-32"/>
      <point x="335" y="0" type="curve"/>
    </contour>
  </outline>
</glyph>
<glyph name="tilde" format="1">
  <advance width="600"/>
  <unicode hex="02DC"/>
  <outline>
    <contour>
      <point x="354" y="746" type="line"/>
      <point x="407" y="708"/>
      <point x="429" y="647"/>
      <point x="406" y="647" type="curve" smooth="yes"/>
      <point x="381" y="647"/>
      <point x="338" y="687"/>
      <point x="315" y="704" type="curve" smooth="yes"/>
      <point x="271" y="735"/>
      <point x="250" y="746"/>
      <point x="209" y="746" type="curve" smooth="yes"/>
      <point x="115" y="746"/>
      <point x="90" y="641"/>
      <point x="152" y="586" type="curve"/>
      <point x="252" y="586" type="line"/>
      <point x="199" y="624"/>
      <point x="177" y="695"/>
      <point x="200" y="695" type="curve" smooth="yes"/>
      <point x="226" y="695"/>
      <point x="269" y="645"/>
      <point x="308" y="617" type="curve" smooth="yes"/>
      <point x="332" y="599"/>
      <point x="361" y="586"/>
      <point x="397" y="586" type="curve" smooth="yes"/>
      <point x="492" y="586"/>
      <point x="523" y="704"/>
      <point x="449" y="746" type="curve"/>
    </contour>
  </outline>
</glyph>
<glyph name="hungarumlaut" format="1">
  <advance width="788"/>
  <unicode hex="02DD"/>
  <outline>
    <contour>
      <point x="394" y="663" type="line"/>
      <point x="333" y="764" type="line"/>
      <point x="149" y="592" type="line"/>
      <point x="237" y="565" type="line"/>
    </contour>
    <contour>
      <point x="639" y="663" type="line"/>
      <point x="578" y="764" type="line"/>
      <point x="394" y="592" type="line"/>
      <point x="482" y="565" type="line"/>
    </contour>
  </outline>
</glyph>
<glyph name="Delta" format="1">
  <advance width="652"/>
  <unicode hex="0394"/>
  <outline>
    <contour>
      <point x="636" y="115" type="line"/>
      <point x="384" y="699" type="line"/>
      <point x="384" y="700" type="line"/>
      <point x="268" y="700" type="line"/>
      <point x="268" y="699" type="line"/>
      <point x="16" y="115" type="line"/>
      <point x="16" y="0" type="line"/>
      <point x="636" y="0" type="line"/>
    </contour>
    <contour>
      <point x="521" y="115" type="line"/>
      <point x="131" y="115" type="line"/>
      <point x="326" y="566" type="line"/>
    </contour>
  </outline>
</glyph>
<glyph name="mu" format="1">
  <advance width="556"/>
  <unicode hex="03BC"/>
  <outline>
    <contour>
      <point x="516" y="500" type="line"/>
      <point x="408" y="500" type="line"/>
      <point x="408" y="262" type="line" smooth="yes"/>
      <point x="408" y="115"/>
      <point x="328" y="85"/>
      <point x="259" y="85" type="curve" smooth="yes"/>
      <point x="176" y="85"/>
      <point x="148" y="136"/>
      <point x="148" y="204" type="curve" smooth="yes"/>
      <point x="148" y="500" type="line"/>
      <point x="40" y="500" type="line"/>
      <point x="40" y="-200" type="line"/>
      <point x="148" y="-200" type="line"/>
      <point x="148" y="10" type="line"/>
      <point x="175" y="-1"/>
      <point x="208" y="-7"/>
      <point x="248" y="-7" type="curve" smooth="yes"/>
      <point x="316" y="-7"/>
      <point x="373" y="17"/>
      <point x="408" y="64" type="curve"/>
      <point x="408" y="0" type="line"/>
      <point x="516" y="0" type="line"/>
    </contour>
  </outline>
</glyph>
<glyph name="pi" format="1">
  <advance width="600"/>
  <unicode hex="03C0"/>
  <outline>
    <contour>
      <point x="587" y="387" type="line"/>
      <point x="587" y="502" type="line"/>
      <point x="16" y="502" type="line"/>
      <point x="16" y="387" type="line"/>
      <point x="107" y="387" type="line"/>
      <point x="107" y="0" type="line"/>
      <point x="222" y="0" type="line"/>
      <point x="222" y="387" type="line"/>
      <point x="379" y="387" type="line"/>
      <point x="379" y="0" type="line"/>
      <point x="494" y="0" type="line"/>
      <point x="494" y="387" type="line"/>
    </contour>
  </outline>
</glyph>
<glyph name="endash" format="1">
  <advance width="600"/>
  <unicode hex="2013"/>
  <outline>
    <contour>
      <point x="80" y="260" type="line"/>
      <point x="519" y="260" type="line"/>
      <point x="519" y="360" type="line"/>
      <point x="80" y="360" type="line"/>
    </contour>
  </outline>
</glyph>
<glyph name="quoteleft" format="1">
  <advance width="310"/>
  <unicode hex="2018"/>
  <outline>
    <contour>
      <point x="221" y="635" type="line"/>
      <point x="221" y="671"/>
      <point x="199" y="769"/>
      <point x="106" y="793" type="curve"/>
      <point x="106" y="735" type="line"/>
      <point x="151" y="708"/>
      <point x="152" y="672"/>
      <point x="152" y="635" type="curve"/>
      <point x="89" y="635" type="line"/>
      <point x="89" y="503" type="line"/>
      <point x="221" y="503" type="line"/>
    </contour>
  </outline>
</glyph>
<glyph name="quoteright" format="1">
  <advance width="310"/>
  <unicode hex="2019"/>
  <outline>
    <contour>
      <point x="221" y="792" type="line"/>
      <point x="89" y="792" type="line"/>
      <point x="89" y="660" type="line"/>
      <point x="152" y="660" type="line"/>
      <point x="152" y="623"/>
      <point x="151" y="587"/>
      <point x="106" y="560" type="curve"/>
      <point x="106" y="502" type="line"/>
      <point x="199" y="526"/>
      <point x="221" y="624"/>
      <point x="221" y="660" type="curve"/>
      <point x="221" y="660" type="line"/>
    </contour>
  </outline>
</glyph>
<glyph name="quotesinglbase" format="1">
  <advance width="310"/>
  <unicode hex="201A"/>
  <outline>
    <contour>
      <point x="221" y="131" type="line"/>
      <point x="89" y="131" type="line"/>
      <point x="89" y="-1" type="line"/>
      <point x="152" y="-1" type="line"/>
      <point x="152" y="-38"/>
      <point x="151" y="-74"/>
      <point x="106" y="-101" type="curve"/>
      <point x="106" y="-159" type="line"/>
      <point x="199" y="-135"/>
      <point x="221" y="-37"/>
      <point x="221" y="-1" type="curve"/>
      <point x="221" y="-1" type="line"/>
    </contour>
  </outline>
</glyph>
<glyph name="quotedblleft" format="1">
  <advance width="548"/>
  <unicode hex="201C"/>
  <outline>
    <contour>
      <point x="204" y="791" type="line"/>
      <point x="111" y="767"/>
      <point x="89" y="669"/>
      <point x="89" y="633" type="curve" smooth="yes"/>
      <point x="89" y="501" type="line"/>
      <point x="221" y="501" type="line"/>
      <point x="221" y="633" type="line"/>
      <point x="158" y="633" type="line"/>
      <point x="158" y="670"/>
      <point x="159" y="706"/>
      <point x="204" y="733" type="curve"/>
    </contour>
    <contour>
      <point x="459" y="633" type="line"/>
      <point x="396" y="633" type="line"/>
      <point x="396" y="670"/>
      <point x="397" y="706"/>
      <point x="442" y="733" type="curve"/>
      <point x="442" y="791" type="line"/>
      <point x="349" y="767"/>
      <point x="327" y="669"/>
      <point x="327" y="633" type="curve" smooth="yes"/>
      <point x="327" y="501" type="line"/>
      <point x="459" y="501" type="line"/>
    </contour>
  </outline>
</glyph>
<glyph name="quotedblright" format="1">
  <advance width="548"/>
  <unicode hex="201D"/>
  <outline>
    <contour>
      <point x="89" y="780" type="line"/>
      <point x="89" y="648" type="line"/>
      <point x="152" y="648" type="line"/>
      <point x="152" y="611"/>
      <point x="151" y="575"/>
      <point x="106" y="548" type="curve"/>
      <point x="106" y="490" type="line"/>
      <point x="199" y="514"/>
      <point x="221" y="612"/>
      <point x="221" y="648" type="curve"/>
      <point x="221" y="648" type="line"/>
      <point x="221" y="780" type="line"/>
    </contour>
    <contour>
      <point x="459" y="780" type="line"/>
      <point x="327" y="780" type="line"/>
      <point x="327" y="648" type="line"/>
      <point x="390" y="648" type="line"/>
      <point x="390" y="611"/>
      <point x="389" y="575"/>
      <point x="344" y="548" type="curve"/>
      <point x="344" y="490" type="line"/>
      <point x="437" y="514"/>
      <point x="459" y="612"/>
      <point x="459" y="648" type="curve"/>
      <point x="459" y="648" type="line"/>
    </contour>
  </outline>
</glyph>
<glyph name="quotedblbase" format="1">
  <advance width="600"/>
  <unicode hex="201E"/>
  <outline>
    <contour>
      <point x="89" y="131" type="line"/>
      <point x="89" y="-1" type="line"/>
      <point x="152" y="-1" type="line"/>
      <point x="152" y="-38"/>
      <point x="151" y="-74"/>
      <point x="106" y="-101" type="curve"/>
      <point x="106" y="-159" type="line"/>
      <point x="199" y="-135"/>
      <point x="221" y="-37"/>
      <point x="221" y="-1" type="curve"/>
      <point x="221" y="-1" type="line"/>
      <point x="221" y="131" type="line"/>
    </contour>
    <contour>
      <point x="484" y="131" type="line"/>
      <point x="352" y="131" type="line"/>
      <point x="352" y="-1" type="line"/>
      <point x="415" y="-1" type="line"/>
      <point x="415" y="-38"/>
      <point x="414" y="-74"/>
      <point x="369" y="-101" type="curve"/>
      <point x="369" y="-159" type="line"/>
      <point x="462" y="-135"/>
      <point x="484" y="-37"/>
      <point x="484" y="-1" type="curve"/>
      <point x="484" y="-1" type="line"/>
    </contour>
  </outline>
</glyph>
<glyph name="daggerdbl" format="1">
  <advance width="600"/>
  <unicode hex="2021"/>
  <outline>
    <contour>
      <point x="343" y="407" type="line"/>
      <point x="542" y="395" type="line"/>
      <point x="542" y="510" type="line"/>
      <point x="345" y="499" type="line"/>
      <point x="357" y="744" type="line"/>
      <point x="243" y="744" type="line"/>
      <point x="255" y="499" type="line"/>
      <point x="58" y="510" type="line"/>
      <point x="58" y="395" type="line"/>
      <point x="257" y="407" type="line"/>
      <point x="257" y="188" type="line"/>
      <point x="58" y="200" type="line"/>
      <point x="58" y="85" type="line"/>
      <point x="255" y="96" type="line"/>
      <point x="243" y="-151" type="line"/>
      <point x="357" y="-151" type="line"/>
      <point x="345" y="96" type="line"/>
      <point x="542" y="85" type="line"/>
      <point x="542" y="200" type="line"/>
      <point x="343" y="188" type="line"/>
    </contour>
  </outline>
</glyph>
<glyph name="ellipsis" format="1">
  <advance width="732"/>
  <unicode hex="2026"/>
  <outline>
    <contour>
      <point x="69" y="-1" type="line"/>
      <point x="201" y="-1" type="line"/>
      <point x="201" y="131" type="line"/>
      <point x="69" y="131" type="line"/>
    </contour>
    <contour>
      <point x="304" y="-1" type="line"/>
      <point x="436" y="-1" type="line"/>
      <point x="436" y="131" type="line"/>
      <point x="304" y="131" type="line"/>
    </contour>
    <contour>
      <point x="531" y="-1" type="line"/>
      <point x="663" y="-1" type="line"/>
      <point x="663" y="131" type="line"/>
      <point x="531" y="131" type="line"/>
    </contour>
  </outline>
</glyph>
<glyph name="perthousand" format="1">
  <advance width="1214"/>
  <unicode hex="2030"/>
  <outline>
    <contour>
      <point x="86" y="724"/>
      <point x="23" y="635"/>
      <point x="23" y="512" type="curve" smooth="yes"/>
      <point x="23" y="390"/>
      <point x="86" y="302"/>
      <point x="192" y="302" type="curve" smooth="yes"/>
      <point x="297" y="302"/>
      <point x="363" y="390"/>
      <point x="363" y="512" type="curve" smooth="yes"/>
      <point x="363" y="635"/>
      <point x="297" y="724"/>
      <point x="192" y="724" type="curve" smooth="yes"/>
    </contour>
    <contour>
      <point x="229" y="-39" type="line"/>
      <point x="711" y="724" type="line"/>
      <point x="589" y="724" type="line"/>
      <point x="108" y="-39" type="line"/>
    </contour>
    <contour>
      <point x="241" y="632"/>
      <point x="271" y="593"/>
      <point x="271" y="512" type="curve" smooth="yes"/>
      <point x="271" y="433"/>
      <point x="241" y="393"/>
      <point x="192" y="393" type="curve" smooth="yes"/>
      <point x="145" y="393"/>
      <point x="115" y="433"/>
      <point x="115" y="512" type="curve" smooth="yes"/>
      <point x="115" y="593"/>
      <point x="145" y="632"/>
      <point x="192" y="632" type="curve" smooth="yes"/>
    </contour>
    <contour>
      <point x="543" y="408"/>
      <point x="479" y="318"/>
      <point x="479" y="196" type="curve" smooth="yes"/>
      <point x="479" y="74"/>
      <point x="543" y="-16"/>
      <point x="648" y="-16" type="curve" smooth="yes"/>
      <point x="754" y="-16"/>
      <point x="818" y="74"/>
      <point x="818" y="196" type="curve" smooth="yes"/>
      <point x="818" y="318"/>
      <point x="754" y="408"/>
      <point x="648" y="408" type="curve" smooth="yes"/>
    </contour>
    <contour>
      <point x="919" y="408"/>
      <point x="855" y="318"/>
      <point x="855" y="196" type="curve" smooth="yes"/>
      <point x="855" y="74"/>
      <point x="919" y="-16"/>
      <point x="1024" y="-16" type="curve" smooth="yes"/>
      <point x="1130" y="-16"/>
      <point x="1194" y="74"/>
      <point x="1194" y="196" type="curve" smooth="yes"/>
      <point x="1194" y="318"/>
      <point x="1130" y="408"/>
      <point x="1024" y="408" type="curve" smooth="yes"/>
    </contour>
    <contour>
      <point x="696" y="316"/>
      <point x="726" y="276"/>
      <point x="726" y="196" type="curve" smooth="yes"/>
      <point x="726" y="115"/>
      <point x="696" y="76"/>
      <point x="648" y="76" type="curve" smooth="yes"/>
      <point x="600" y="76"/>
      <point x="571" y="115"/>
      <point x="571" y="196" type="curve" smooth="yes"/>
      <point x="571" y="276"/>
      <point x="600" y="316"/>
      <point x="648" y="316" type="curve" smooth="yes"/>
    </contour>
    <contour>
      <point x="1072" y="316"/>
      <point x="1102" y="276"/>
      <point x="1102" y="196" type="curve" smooth="yes"/>
      <point x="1102" y="115"/>
      <point x="1072" y="76"/>
      <point x="1024" y="76" type="curve" smooth="yes"/>
      <point x="976" y="76"/>
      <point x="947" y="115"/>
      <point x="947" y="196" type="curve" smooth="yes"/>
      <point x="947" y="276"/>
      <point x="976" y="316"/>
      <point x="1024" y="316" type="curve" smooth="yes"/>
    </contour>
  </outline>
</glyph>
<glyph name="guilsinglleft" format="1">
  <advance width="347"/>
  <unicode hex="2039"/>
  <outline>
    <contour>
      <point x="134" y="267" type="line"/>
      <point x="258" y="437" type="line"/>
      <point x="191" y="481" type="line"/>
      <point x="25" y="267" type="line"/>
      <point x="191" y="52" type="line"/>
      <point x="258" y="97" type="line"/>
    </contour>
  </outline>
</glyph>
<glyph name="guilsinglright" format="1">
  <advance width="352"/>
  <unicode hex="203A"/>
  <outline>
    <contour>
      <point x="322" y="267" type="line"/>
      <point x="156" y="481" type="line"/>
      <point x="89" y="437" type="line"/>
      <point x="213" y="267" type="line"/>
      <point x="89" y="97" type="line"/>
      <point x="156" y="52" type="line"/>
    </contour>
  </outline>
</glyph>
<glyph name="Euro" format="1">
  <advance width="781"/>
  <unicode hex="20AC"/>
  <outline>
    <contour>
      <point x="392" y="93"/>
      <point x="322" y="136"/>
      <point x="283" y="205" type="curve"/>
      <point x="551" y="205" type="line"/>
      <point x="551" y="298" type="line"/>
      <point x="251" y="298" type="line"/>
      <point x="248" y="314"/>
      <point x="247" y="331"/>
      <point x="247" y="348" type="curve" smooth="yes"/>
      <point x="247" y="357"/>
      <point x="247" y="366"/>
      <point x="248" y="375" type="curve"/>
      <point x="551" y="375" type="line"/>
      <point x="551" y="468" type="line"/>
      <point x="270" y="468" type="line"/>
      <point x="307" y="553"/>
      <point x="383" y="607"/>
      <point x="478" y="607" type="curve" smooth="yes"/>
      <point x="559" y="607"/>
      <point x="630" y="569"/>
      <point x="671" y="501" type="curve"/>
      <point x="772" y="552" type="line"/>
      <point x="712" y="646"/>
      <point x="609" y="705"/>
      <point x="478" y="705" type="curve" smooth="yes"/>
      <point x="313" y="705"/>
      <point x="192" y="606"/>
      <point x="148" y="468" type="curve"/>
      <point x="32" y="468" type="line"/>
      <point x="32" y="375" type="line"/>
      <point x="130" y="375" type="line"/>
      <point x="129" y="366"/>
      <point x="129" y="357"/>
      <point x="129" y="348" type="curve" smooth="yes"/>
      <point x="129" y="331"/>
      <point x="130" y="314"/>
      <point x="132" y="298" type="curve"/>
      <point x="32" y="298" type="line"/>
      <point x="32" y="205" type="line"/>
      <point x="157" y="205" type="line"/>
      <point x="207" y="82"/>
      <point x="324" y="-5"/>
      <point x="478" y="-5" type="curve" smooth="yes"/>
      <point x="608" y="-5"/>
      <point x="711" y="52"/>
      <point x="770" y="144" type="curve"/>
      <point x="668" y="193" type="line"/>
      <point x="627" y="129"/>
      <point x="557" y="93"/>
      <point x="478" y="93" type="curve" smooth="yes"/>
    </contour>
  </outline>
</glyph>
<glyph name="product" format="1">
  <advance width="687"/>
  <unicode hex="220F"/>
  <outline>
    <contour>
      <point x="672" y="585" type="line"/>
      <point x="672" y="700" type="line"/>
      <point x="16" y="700" type="line"/>
      <point x="16" y="585" type="line"/>
      <point x="87" y="585" type="line"/>
      <point x="87" y="-111" type="line"/>
      <point x="202" y="-111" type="line"/>
      <point x="202" y="585" type="line"/>
      <point x="482" y="585" type="line"/>
      <point x="482" y="-111" type="line"/>
      <point x="597" y="-111" type="line"/>
      <point x="597" y="585" type="line"/>
    </contour>
  </outline>
</glyph>
<glyph name="summation" format="1">
  <advance width="732"/>
  <unicode hex="2211"/>
  <outline>
    <contour>
      <point x="662" y="585" type="line"/>
      <point x="662" y="700" type="line"/>
      <point x="76" y="700" type="line"/>
      <point x="76" y="585" type="line"/>
      <point x="436" y="301" type="line"/>
      <point x="76" y="8" type="line"/>
      <point x="76" y="-107" type="line"/>
      <point x="662" y="-107" type="line"/>
      <point x="662" y="8" type="line"/>
      <point x="222" y="8" type="line"/>
      <point x="592" y="300" type="line"/>
      <point x="591" y="301" type="line"/>
      <point x="592" y="301" type="line"/>
      <point x="225" y="585" type="line"/>
    </contour>
  </outline>
</glyph>
<glyph name="radical" format="1">
  <advance width="497"/>
  <unicode hex="221A"/>
  <outline>
    <contour>
      <point x="465" y="521" type="line"/>
      <point x="402" y="521" type="line"/>
      <point x="248" y="71" type="line"/>
      <point x="179" y="271" type="line"/>
      <point x="116" y="271" type="line"/>
      <point x="36" y="210" type="line"/>
      <point x="69" y="170" type="line"/>
      <point x="133" y="222" type="line"/>
      <point x="215" y="-18" type="line"/>
      <point x="280" y="-18" type="line"/>
    </contour>
  </outline>
</glyph>
<glyph name="integral" format="1">
  <advance width="600"/>
  <unicode hex="222B"/>
  <outline>
    <contour>
      <point x="82" y="-74" type="line"/>
      <point x="67" y="-147"/>
      <point x="117" y="-240"/>
      <point x="232" y="-228" type="curve" smooth="yes"/>
      <point x="414" y="-208"/>
      <point x="417" y="19"/>
      <point x="348" y="283" type="curve" smooth="yes"/>
      <point x="297" y="477"/>
      <point x="238" y="680"/>
      <point x="313" y="688" type="curve" smooth="yes"/>
      <point x="342" y="691"/>
      <point x="355" y="651"/>
      <point x="350" y="628" type="curve"/>
      <point x="456" y="628" type="line"/>
      <point x="458" y="700"/>
      <point x="410" y="789"/>
      <point x="304" y="777" type="curve" smooth="yes"/>
      <point x="92" y="755"/>
      <point x="167" y="469"/>
      <point x="218" y="270" type="curve" smooth="yes"/>
      <point x="283" y="14"/>
      <point x="276" y="-132"/>
      <point x="223" y="-138" type="curve" smooth="yes"/>
      <point x="185" y="-142"/>
      <point x="180" y="-93"/>
      <point x="185" y="-74" type="curve"/>
    </contour>
  </outline>
</glyph>
<glyph name="approxequal" format="1">
  <advance width="600"/>
  <unicode hex="2248"/>
  <outline>
    <contour>
      <point x="462" y="469" type="line"/>
      <point x="472" y="440"/>
      <point x="466" y="386"/>
      <point x="410" y="386" type="curve" smooth="yes"/>
      <point x="374" y="386"/>
      <point x="327" y="424"/>
      <point x="297" y="446" type="curve" smooth="yes"/>
      <point x="263" y="470"/>
      <point x="223" y="493"/>
      <point x="176" y="493" type="curve" smooth="yes"/>
      <point x="31" y="493"/>
      <point x="34" y="371"/>
      <point x="47" y="332" type="curve"/>
      <point x="132" y="332" type="line"/>
      <point x="122" y="361"/>
      <point x="128" y="415"/>
      <point x="184" y="415" type="curve" smooth="yes"/>
      <point x="220" y="415"/>
      <point x="268" y="377"/>
      <point x="298" y="355" type="curve" smooth="yes"/>
      <point x="332" y="331"/>
      <point x="371" y="308"/>
      <point x="418" y="308" type="curve" smooth="yes"/>
      <point x="563" y="308"/>
      <point x="560" y="430"/>
      <point x="547" y="469" type="curve"/>
    </contour>
    <contour>
      <point x="462" y="246" type="line"/>
      <point x="472" y="217"/>
      <point x="466" y="163"/>
      <point x="410" y="163" type="curve" smooth="yes"/>
      <point x="374" y="163"/>
      <point x="327" y="201"/>
      <point x="297" y="223" type="curve" smooth="yes"/>
      <point x="263" y="247"/>
      <point x="223" y="270"/>
      <point x="176" y="270" type="curve" smooth="yes"/>
      <point x="31" y="270"/>
      <point x="34" y="148"/>
      <point x="47" y="109" type="curve"/>
      <point x="132" y="109" type="line"/>
      <point x="122" y="138"/>
      <point x="128" y="192"/>
      <point x="184" y="192" type="curve" smooth="yes"/>
      <point x="220" y="192"/>
      <point x="268" y="154"/>
      <point x="298" y="132" type="curve" smooth="yes"/>
      <point x="332" y="108"/>
      <point x="371" y="85"/>
      <point x="418" y="85" type="curve" smooth="yes"/>
      <point x="563" y="85"/>
      <point x="560" y="207"/>
      <point x="547" y="246" type="curve"/>
    </contour>
  </outline>
</glyph>
<glyph name="notequal" format="1">
  <advance width="600"/>
  <unicode hex="2260"/>
  <outline>
    <contour>
      <point x="384" y="310" type="line"/>
      <point x="559" y="310" type="line"/>
      <point x="559" y="410" type="line"/>
      <point x="414" y="410" type="line"/>
      <point x="485" y="651" type="line"/>
      <point x="380" y="651" type="line"/>
      <point x="309" y="410" type="line"/>
      <point x="38" y="410" type="line"/>
      <point x="38" y="310" type="line"/>
      <point x="279" y="310" type="line"/>
      <point x="252" y="220" type="line"/>
      <point x="38" y="220" type="line"/>
      <point x="38" y="120" type="line"/>
      <point x="223" y="120" type="line"/>
      <point x="152" y="-119" type="line"/>
      <point x="257" y="-119" type="line"/>
      <point x="328" y="120" type="line"/>
      <point x="559" y="120" type="line"/>
      <point x="559" y="220" type="line"/>
      <point x="357" y="220" type="line"/>
    </contour>
  </outline>
</glyph>
<glyph name="lessequal" format="1">
  <advance width="600"/>
  <unicode hex="2264"/>
  <outline>
    <contour>
      <point x="557" y="581" type="line"/>
      <point x="557" y="704" type="line"/>
      <point x="25" y="412" type="line"/>
      <point x="557" y="119" type="line"/>
      <point x="557" y="243" type="line"/>
      <point x="224" y="412" type="line"/>
    </contour>
    <contour>
      <point x="24" y="100" type="line"/>
      <point x="24" y="0" type="line"/>
      <point x="555" y="0" type="line"/>
      <point x="555" y="100" type="line"/>
    </contour>
  </outline>
</glyph>
<glyph name="greaterequal" format="1">
  <advance width="600"/>
  <unicode hex="2265"/>
  <outline>
    <contour>
      <point x="556" y="412" type="line"/>
      <point x="24" y="704" type="line"/>
      <point x="24" y="581" type="line"/>
      <point x="357" y="412" type="line"/>
      <point x="24" y="243" type="line"/>
      <point x="24" y="119" type="line"/>
    </contour>
    <contour>
      <point x="557" y="100" type="line"/>
      <point x="26" y="100" type="line"/>
      <point x="26" y="0" type="line"/>
      <point x="557" y="0" type="line"/>
    </contour>
  </outline>
</glyph>
<glyph name="lozenge" format="1">
  <advance width="754"/>
  <unicode hex="25CA"/>
  <outline>
    <contour>
      <point x="709" y="287" type="line"/>
      <point x="377" y="579" type="line"/>
      <point x="45" y="287" type="line"/>
      <point x="377" y="-6" type="line"/>
    </contour>
    <contour>
      <point x="560" y="287" type="line"/>
      <point x="377" y="118" type="line"/>
      <point x="194" y="287" type="line"/>
      <point x="377" y="456" type="line"/>
    </contour>
  </outline>
</glyph>
<glyph name="fl" format="1">
  <advance width="705"/>
  <unicode hex="FB02"/>
  <outline>
    <contour>
      <point x="118" y="746"/>
      <point x="45" y="659"/>
      <point x="45" y="588" type="curve" smooth="yes"/>
      <point x="45" y="549"/>
      <point x="59" y="519"/>
      <point x="85" y="500" type="curve"/>
      <point x="3" y="500" type="line"/>
      <point x="3" y="400" type="line"/>
      <point x="94" y="400" type="line"/>
      <point x="93" y="0" type="line"/>
      <point x="201" y="0" type="line"/>
      <point x="201" y="400" type="line"/>
      <point x="363" y="400" type="line"/>
      <point x="363" y="500" type="line"/>
      <point x="217" y="500" type="line"/>
      <point x="164" y="518"/>
      <point x="151" y="557"/>
      <point x="151" y="584" type="curve" smooth="yes"/>
      <point x="151" y="634"/>
      <point x="204" y="658"/>
      <point x="248" y="658" type="curve" smooth="yes"/>
      <point x="317" y="658"/>
      <point x="352" y="605"/>
      <point x="358" y="594" type="curve"/>
      <point x="446" y="647" type="line"/>
      <point x="419" y="684"/>
      <point x="357" y="746"/>
      <point x="248" y="746" type="curve" smooth="yes"/>
    </contour>
    <contour>
      <point x="527" y="0" type="line"/>
      <point x="635" y="0" type="line"/>
      <point x="635" y="700" type="line"/>
      <point x="527" y="700" type="line"/>
    </contour>
  </outline>
</glyph>
